<svg width="236" height="222" viewBox="0 0 236 222" fill="none" xmlns="http://www.w3.org/2000/svg">
<path d="M87.5158 32.9746C87.5158 32.9746 79.1735 44.324 61.5777 44.0608C43.9819 43.7977 25.3403 86.1858 25.3403 86.1858C25.3403 86.1858 30.1345 88.642 34.8983 83.1709L34.4768 88.701C34.4768 88.701 40.5415 90.5166 46.5852 78.9486L48.188 83.8924C48.188 83.8924 54.7991 81.3816 59.9717 68.5024L61.5606 72.4104C61.5606 72.4104 68.6417 69.0855 71.3724 58.0758L73.4188 60.6314C73.4188 60.6314 78.0684 53.778 78.6588 48.4955C78.6688 48.4782 88.4104 43.2252 87.5158 32.9746Z" fill="white"/>
<mask id="mask0_36_4044" style="mask-type:luminance" maskUnits="userSpaceOnUse" x="25" y="32" width="63" height="57">
<path d="M87.5158 32.9746C87.5158 32.9746 79.1735 44.324 61.5777 44.0608C43.9819 43.7977 25.3403 86.1858 25.3403 86.1858C25.3403 86.1858 30.1345 88.642 34.8983 83.1709L34.4768 88.701C34.4768 88.701 40.5415 90.5166 46.5852 78.9486L48.188 83.8924C48.188 83.8924 54.7991 81.3816 59.9717 68.5024L61.5606 72.4104C61.5606 72.4104 68.6417 69.0855 71.3724 58.0758L73.4188 60.6314C73.4188 60.6314 78.0684 53.778 78.6588 48.4955C78.6688 48.4782 88.4104 43.2252 87.5158 32.9746Z" fill="white"/>
</mask>
<g mask="url(#mask0_36_4044)">
<path opacity="0.4" d="M87.5245 32.9796C88.3954 43.2512 78.6625 48.5092 78.6625 48.5092C78.0548 53.7817 73.4225 60.6451 73.4225 60.6451L71.3178 58.0905C68.6008 69.0965 61.511 72.4164 61.511 72.4164L59.9221 68.5084C54.7842 81.4076 48.1298 83.8934 48.1298 83.8934L46.6089 78.9277C40.5679 90.451 34.4968 88.6664 34.4968 88.6664L34.927 83.1412C30.1546 88.6073 25.3604 86.1512 25.3604 86.1512C25.3604 86.1512 30.6924 86.2159 34.3225 79.6283C34.3225 79.6283 36.4118 82.2895 40.7641 75.9111C40.7641 75.9111 46.418 71.6583 46.9853 66.5357C46.9853 66.5357 50.5639 66.7773 52.9176 61.6006L54.1536 64.5198C54.1536 64.5198 57.3238 65.6688 59.3999 58.773L61.7231 61.269C61.7231 61.269 65.1854 60.6121 67.972 51.8056C67.972 51.8056 68.1555 55.1678 69.4346 54.8324C70.7136 54.497 72.5234 52.2624 73.5455 50.012C73.5082 50.0367 84.9136 45.5019 87.5245 32.9796Z" fill="#FF725C"/>
</g>
<path d="M87.5158 32.9746C87.5158 32.9746 79.1735 44.324 61.5777 44.0608C43.9819 43.7977 25.3403 86.1858 25.3403 86.1858C25.3403 86.1858 30.1345 88.642 34.8983 83.1709L34.4768 88.701C34.4768 88.701 40.5415 90.5166 46.5852 78.9486L48.188 83.8924C48.188 83.8924 54.7991 81.3816 59.9717 68.5024L61.5606 72.4104C61.5606 72.4104 68.6417 69.0855 71.3724 58.0758L73.4188 60.6314C73.4188 60.6314 78.0684 53.778 78.6588 48.4955C78.6688 48.4782 88.4104 43.2252 87.5158 32.9746Z" stroke="#263238" stroke-linecap="round" stroke-linejoin="round"/>
<path d="M36.6542 72.4298C35.3525 77.0245 33.6321 79.2643 33.4276 83.1184C33.4276 83.1184 38.4783 82.5704 41.952 75.4538" fill="white"/>
<path d="M36.6542 72.4298C35.3525 77.0245 33.6321 79.2643 33.4276 83.1184C33.4276 83.1184 38.4783 82.5704 41.952 75.4538" stroke="#263238" stroke-linecap="round" stroke-linejoin="round"/>
<path d="M45.0999 73.2413C44.4711 75.1789 44.0246 77.1709 43.7661 79.1916C43.7661 79.1916 48.952 80.8693 52.9987 68.7603" stroke="#263238" stroke-linecap="round" stroke-linejoin="round"/>
<path d="M56.9406 65.4128L57.1744 69.7278C60.8038 66.9162 63.4519 63.0295 64.7405 58.6231" stroke="#263238" stroke-linecap="round" stroke-linejoin="round"/>
<path d="M66.6182 55.5504C66.6182 55.5504 67.0106 59.9108 67.3737 59.9818C67.7368 60.0529 73.5568 55.2724 73.7417 48.0122" fill="white"/>
<path d="M66.6182 55.5504C66.6182 55.5504 67.0106 59.9108 67.3737 59.9818C67.7368 60.0529 73.5568 55.2724 73.7417 48.0122" stroke="#263238" stroke-linecap="round" stroke-linejoin="round"/>
<path d="M41.762 66.603C41.533 68.9995 39.1021 75.09 39.7098 75.9374C39.7098 75.9374 45.914 77.0715 48.4529 65.9741" fill="white"/>
<path d="M41.762 66.603C41.533 68.9995 39.1021 75.09 39.7098 75.9374C39.7098 75.9374 45.914 77.0715 48.4529 65.9741" stroke="#263238" stroke-linecap="round" stroke-linejoin="round"/>
<path d="M51.4085 63.7546C51.1562 65.5197 51.1557 67.3118 51.4071 69.077C51.4071 69.077 58.592 68.3524 59.335 56.9456" fill="white"/>
<path d="M51.4085 63.7546C51.1562 65.5197 51.1557 67.3118 51.4071 69.077C51.4071 69.077 58.592 68.3524 59.335 56.9456" stroke="#263238" stroke-linecap="round" stroke-linejoin="round"/>
<path d="M59.9763 55.8147C59.8755 56.799 59.9766 57.7935 60.2736 58.7373C60.5705 59.6811 61.057 60.5544 61.7032 61.3036C61.7032 61.3036 67.0788 58.5528 68.4706 49.3221" fill="white"/>
<path d="M59.9763 55.8147C59.8755 56.799 59.9766 57.7935 60.2736 58.7373C60.5705 59.6811 61.057 60.5544 61.7032 61.3036C61.7032 61.3036 67.0788 58.5528 68.4706 49.3221" stroke="#263238" stroke-linecap="round" stroke-linejoin="round"/>
<path d="M48.02 59.8237C48.02 59.8237 46.0731 65.8358 46.9754 66.553C46.9754 66.553 53.1733 64.3579 55.2664 56.4326" fill="white"/>
<path d="M48.02 59.8237C48.02 59.8237 46.0731 65.8358 46.9754 66.553C46.9754 66.553 53.1733 64.3579 55.2664 56.4326" stroke="#263238" stroke-linecap="round" stroke-linejoin="round"/>
<path d="M55.2549 55.3522C55.1963 56.427 55.3863 57.5008 55.8103 58.4903C55.8103 58.4903 60.071 58.1904 61.4796 51.8907" fill="white"/>
<path d="M55.2549 55.3522C55.1963 56.427 55.3863 57.5008 55.8103 58.4903C55.8103 58.4903 60.071 58.1904 61.4796 51.8907" stroke="#263238" stroke-linecap="round" stroke-linejoin="round"/>
<path d="M72.4051 16.1674L71.4313 21.194L66.0711 20.7782C65.8015 20.7541 65.5327 20.8321 65.3179 20.9967C65.1031 21.1614 64.9579 21.4007 64.9111 21.6673L61.5419 38.7631C61.4935 39.0445 61.5377 39.334 61.6678 39.5882C61.798 39.8424 62.0071 40.0475 62.2637 40.1728L67.2332 42.5454L61.6894 71.0875C61.5701 71.7585 61.7051 72.4499 62.0681 73.0267C62.4311 73.6035 62.9961 74.0244 63.6527 74.2071L105.446 85.5192C105.754 85.6072 106.078 85.63 106.395 85.5862C106.713 85.5424 107.018 85.4329 107.291 85.2647C107.564 85.0965 107.799 84.8733 107.981 84.6092C108.164 84.3452 108.289 84.0461 108.349 83.7311L119.015 28.817C119.132 28.1458 118.997 27.455 118.635 26.8774C118.274 26.2999 117.712 25.8765 117.057 25.6888L75.3167 14.3844C75.0081 14.2965 74.6846 14.2736 74.3667 14.3171C74.0488 14.3606 73.7434 14.4696 73.4698 14.6372C73.1961 14.8047 72.9602 15.0273 72.7769 15.2907C72.5937 15.5541 72.4671 15.8526 72.4051 16.1674Z" fill="#FF725C"/>
<mask id="mask1_36_4044" style="mask-type:luminance" maskUnits="userSpaceOnUse" x="61" y="14" width="59" height="72">
<path d="M72.4051 16.1674L71.4313 21.194L66.0711 20.7782C65.8015 20.7541 65.5327 20.8321 65.3179 20.9967C65.1031 21.1614 64.9579 21.4007 64.9111 21.6673L61.5419 38.7631C61.4935 39.0445 61.5377 39.334 61.6678 39.5882C61.798 39.8424 62.0071 40.0475 62.2637 40.1728L67.2332 42.5454L61.6894 71.0875C61.5701 71.7585 61.7051 72.4499 62.0681 73.0267C62.4311 73.6035 62.9961 74.0244 63.6527 74.2071L105.446 85.5192C105.754 85.6072 106.078 85.63 106.395 85.5862C106.713 85.5424 107.018 85.4329 107.291 85.2647C107.564 85.0965 107.799 84.8733 107.981 84.6092C108.164 84.3452 108.289 84.0461 108.349 83.7311L119.015 28.817C119.132 28.1458 118.997 27.455 118.635 26.8774C118.274 26.2999 117.712 25.8765 117.057 25.6888L75.3167 14.3844C75.0081 14.2965 74.6846 14.2736 74.3667 14.3171C74.0488 14.3606 73.7434 14.4696 73.4698 14.6372C73.1961 14.8047 72.9602 15.0273 72.7769 15.2907C72.5937 15.5541 72.4671 15.8526 72.4051 16.1674Z" fill="white"/>
</mask>
<g mask="url(#mask1_36_4044)">
<path opacity="0.2" d="M72.4051 16.1674L71.4313 21.194L66.0711 20.7782C65.8015 20.7541 65.5327 20.8321 65.3179 20.9967C65.1031 21.1614 64.9579 21.4007 64.9111 21.6673L61.5419 38.7631C61.4935 39.0445 61.5377 39.334 61.6678 39.5882C61.798 39.8424 62.0071 40.0475 62.2637 40.1728L67.2332 42.5454L61.6894 71.0875C61.5701 71.7585 61.7051 72.4499 62.0681 73.0267C62.4311 73.6035 62.9961 74.0244 63.6527 74.2071L105.446 85.5192C105.754 85.6072 106.078 85.63 106.395 85.5862C106.713 85.5424 107.018 85.4329 107.291 85.2647C107.564 85.0965 107.799 84.8733 107.981 84.6092C108.164 84.3452 108.289 84.0461 108.349 83.7311L119.015 28.817C119.132 28.1458 118.997 27.455 118.635 26.8774C118.274 26.2999 117.712 25.8765 117.057 25.6888L75.3167 14.3844C75.0081 14.2965 74.6846 14.2736 74.3667 14.3171C74.0488 14.3606 73.7434 14.4696 73.4698 14.6372C73.1961 14.8047 72.9602 15.0273 72.7769 15.2907C72.5937 15.5541 72.4671 15.8526 72.4051 16.1674Z" fill="black"/>
</g>
<path d="M72.4051 16.1674L71.4313 21.194L66.0711 20.7782C65.8015 20.7541 65.5327 20.8321 65.3179 20.9967C65.1031 21.1614 64.9579 21.4007 64.9111 21.6673L61.5419 38.7631C61.4935 39.0445 61.5377 39.334 61.6678 39.5882C61.798 39.8424 62.0071 40.0475 62.2637 40.1728L67.2332 42.5454L61.6894 71.0875C61.5701 71.7585 61.7051 72.4499 62.0681 73.0267C62.4311 73.6035 62.9961 74.0244 63.6527 74.2071L105.446 85.5192C105.754 85.6072 106.078 85.63 106.395 85.5862C106.713 85.5424 107.018 85.4329 107.291 85.2647C107.564 85.0965 107.799 84.8733 107.981 84.6092C108.164 84.3452 108.289 84.0461 108.349 83.7311L119.015 28.817C119.132 28.1458 118.997 27.455 118.635 26.8774C118.274 26.2999 117.712 25.8766 117.057 25.6888L75.3167 14.3844C75.0081 14.2965 74.6846 14.2736 74.3667 14.3171C74.0488 14.3606 73.7434 14.4696 73.4698 14.6372C73.1961 14.8047 72.9602 15.0273 72.7769 15.2907C72.5937 15.5541 72.4671 15.8526 72.4051 16.1674Z" stroke="#263238" stroke-linecap="round" stroke-linejoin="round"/>
<path d="M118.958 29.0959L108.292 84.0099C108.141 84.6852 107.755 85.2849 107.203 85.7022C106.652 86.1196 105.97 86.3274 105.279 86.2887L104.69 86.2489L76.0953 84.1159L61.9599 83.0793C61.6404 83.0657 61.3277 82.9825 61.0436 82.8358C60.7595 82.689 60.5108 82.482 60.3149 82.2293C60.119 81.9765 59.9805 81.6841 59.9091 81.3724C59.8377 81.0607 59.8351 80.7372 59.9015 80.4244L70.5812 25.5067C70.7271 24.8301 71.1101 24.2281 71.6611 23.8092C72.2121 23.3904 72.8947 23.1824 73.5856 23.2229L116.928 26.4113C117.249 26.4265 117.562 26.512 117.847 26.6618C118.131 26.8116 118.378 27.022 118.572 27.2782C118.766 27.5343 118.901 27.8299 118.967 28.144C119.034 28.4582 119.031 28.7831 118.958 29.0959Z" fill="#FF725C"/>
<mask id="mask2_36_4044" style="mask-type:luminance" maskUnits="userSpaceOnUse" x="59" y="23" width="61" height="64">
<path d="M118.958 29.0959L108.292 84.0099C108.141 84.6852 107.755 85.2849 107.203 85.7022C106.652 86.1196 105.97 86.3274 105.279 86.2887L104.69 86.2489L76.0953 84.1159L61.9599 83.0793C61.6404 83.0657 61.3277 82.9825 61.0436 82.8358C60.7595 82.689 60.5108 82.482 60.3149 82.2293C60.119 81.9765 59.9805 81.6841 59.9091 81.3724C59.8377 81.0607 59.8351 80.7372 59.9015 80.4244L70.5812 25.5067C70.7271 24.8301 71.1101 24.2281 71.6611 23.8092C72.2121 23.3904 72.8947 23.1824 73.5856 23.2229L116.928 26.4113C117.249 26.4265 117.562 26.512 117.847 26.6618C118.131 26.8116 118.378 27.022 118.572 27.2782C118.766 27.5343 118.901 27.8299 118.967 28.144C119.034 28.4582 119.031 28.7831 118.958 29.0959Z" fill="white"/>
</mask>
<g mask="url(#mask2_36_4044)">
<path opacity="0.2" d="M92.0483 57.1843C94.9068 59.1637 97.0227 62.0407 98.0604 65.3591C99.0981 68.6775 98.9982 72.2474 97.7766 75.5027C100.831 78.538 103.193 82.1979 104.7 86.2316L76.0952 84.1159C82.9364 75.9067 89.8797 65.9204 92.0483 57.1843Z" fill="black"/>
</g>
<path d="M118.958 29.0959L108.292 84.0099C108.141 84.6852 107.755 85.2849 107.203 85.7022C106.652 86.1196 105.97 86.3274 105.279 86.2887L104.69 86.2489L76.0953 84.1159L61.9599 83.0793C61.6404 83.0657 61.3277 82.9825 61.0436 82.8358C60.7595 82.689 60.5108 82.482 60.3149 82.2293C60.119 81.9765 59.9805 81.6841 59.9091 81.3724C59.8377 81.0607 59.8351 80.7372 59.9015 80.4244L70.5812 25.5067C70.7271 24.8301 71.1101 24.2281 71.6611 23.8092C72.2121 23.3904 72.8947 23.1824 73.5856 23.2229L116.928 26.4113C117.249 26.4265 117.562 26.512 117.847 26.6618C118.131 26.8116 118.378 27.022 118.572 27.2782C118.766 27.5343 118.901 27.8299 118.967 28.144C119.034 28.4582 119.031 28.7831 118.958 29.0959Z" stroke="#263238" stroke-linecap="round" stroke-linejoin="round"/>
<path d="M92.0396 57.1793C92.0396 57.1793 87.7777 70.5612 71.0309 76.0075C54.2841 81.4537 50.2339 127.509 50.2339 127.509C50.2339 127.509 55.564 128.277 58.278 121.576L59.6645 126.915C59.6645 126.915 65.9814 126.693 68.0011 113.795L71.0497 118.015C71.0497 118.015 76.5075 113.522 77.2675 99.6653L80.0366 102.869C80.0366 102.869 85.6759 97.4416 84.7363 86.1489L87.5392 87.8941C87.5392 87.8941 89.7292 79.9209 88.6125 74.7151C88.6385 74.7301 96.1676 66.6294 92.0396 57.1793Z" fill="white"/>
<mask id="mask3_36_4044" style="mask-type:luminance" maskUnits="userSpaceOnUse" x="50" y="57" width="44" height="71">
<path d="M92.0396 57.1793C92.0396 57.1793 87.7777 70.5612 71.0309 76.0075C54.2841 81.4537 50.2339 127.509 50.2339 127.509C50.2339 127.509 55.564 128.277 58.278 121.576L59.6645 126.915C59.6645 126.915 65.9814 126.693 68.0011 113.795L71.0497 118.015C71.0497 118.015 76.5075 113.522 77.2675 99.6653L80.0366 102.869C80.0366 102.869 85.6759 97.4416 84.7363 86.1489L87.5392 87.8941C87.5392 87.8941 89.7292 79.9209 88.6125 74.7151C88.6385 74.7301 96.1676 66.6294 92.0396 57.1793Z" fill="white"/>
</mask>
<g mask="url(#mask3_36_4044)">
<path opacity="0.4" d="M92.0481 57.1843C96.1675 66.6294 88.6384 74.7301 88.6384 74.7301C89.7651 79.9186 87.5651 87.9091 87.5651 87.9091L84.7536 86.1589C85.7104 97.4616 80.0625 102.884 80.0625 102.884L77.2934 99.6803C76.542 113.542 71.0756 118.03 71.0756 118.03L68.0356 113.815C66.0073 126.708 59.6904 126.93 59.6904 126.93L58.3089 121.582C55.5749 128.318 50.2548 127.532 50.2548 127.532C50.2548 127.532 55.3379 125.848 56.6208 118.506C56.6208 118.506 59.453 120.361 61.5302 112.923C61.5302 112.923 65.5279 107.079 64.4141 102.048C64.4141 102.048 67.8838 101.118 68.456 95.4671L70.554 97.8331C70.554 97.8331 73.9188 97.9052 73.6793 90.7001L76.6761 92.3495C76.6761 92.3495 79.7176 90.6414 79.553 81.3665C79.553 81.3665 80.808 84.4928 81.9039 83.7746C82.9999 83.0563 83.9905 80.3605 84.2558 77.881C84.2658 77.8636 93.5915 69.9111 92.0481 57.1843Z" fill="#FF725C"/>
</g>
<path d="M92.0396 57.1793C92.0396 57.1793 87.7777 70.5612 71.0309 76.0075C54.2841 81.4537 50.2339 127.509 50.2339 127.509C50.2339 127.509 55.564 128.277 58.278 121.576L59.6645 126.915C59.6645 126.915 65.9814 126.693 68.0011 113.795L71.0497 118.015C71.0497 118.015 76.5075 113.522 77.2675 99.6653L80.0366 102.869C80.0366 102.869 85.6759 97.4416 84.7363 86.1489L87.5392 87.8941C87.5392 87.8941 89.7292 79.9209 88.6125 74.7151C88.6385 74.7301 96.1676 66.6294 92.0396 57.1793Z" stroke="#263238" stroke-linecap="round" stroke-linejoin="round"/>
<path d="M56.5121 110.915C56.7638 115.679 55.8328 118.351 56.8866 122.066C56.8866 122.066 61.5018 119.892 62.4954 112.071" fill="white"/>
<path d="M56.5121 110.915C56.7638 115.679 55.8328 118.351 56.8866 122.066C56.8866 122.066 61.5018 119.892 62.4954 112.071" stroke="#263238" stroke-linecap="round" stroke-linejoin="round"/>
<path d="M64.7395 108.944C64.7659 110.979 64.9831 113.006 65.3886 115C65.3886 115 70.8402 114.938 70.778 102.166" stroke="#263238" stroke-linecap="round" stroke-linejoin="round"/>
<path d="M73.4856 97.7358L75.0838 101.788C77.6051 97.951 78.8495 93.4157 78.6393 88.8294" stroke="#263238" stroke-linecap="round" stroke-linejoin="round"/>
<path d="M79.4759 85.3403C79.4759 85.3403 81.243 89.3396 81.6178 89.2904C81.9926 89.2413 85.9604 82.8488 83.8009 75.9093" fill="white"/>
<path d="M79.4759 85.3403C79.4759 85.3403 81.243 89.3396 81.6178 89.2904C81.9926 89.2413 85.9604 82.8488 83.8009 75.9093" stroke="#263238" stroke-linecap="round" stroke-linejoin="round"/>
<path d="M59.4889 103.719C59.9896 106.052 59.69 112.611 60.5406 113.217C60.5406 113.217 66.7875 112.298 65.6361 100.952" fill="white"/>
<path d="M59.4889 103.719C59.9896 106.052 59.69 112.611 60.5406 113.217C60.5406 113.217 66.7875 112.298 65.6361 100.952" stroke="#263238" stroke-linecap="round" stroke-linejoin="round"/>
<path d="M67.7071 97.9445C68.0368 99.6965 68.6122 101.393 69.4162 102.984C69.4162 102.984 75.9936 99.992 73.0561 88.9199" fill="white"/>
<path d="M67.7071 97.9445C68.0368 99.6965 68.6122 101.393 69.4162 102.984C69.4162 102.984 75.9936 99.992 73.0561 88.9199" stroke="#263238" stroke-linecap="round" stroke-linejoin="round"/>
<path d="M73.2787 87.6743C73.4993 88.6397 73.9151 89.5497 74.5005 90.3483C75.0859 91.147 75.8285 91.8175 76.6826 92.3185C76.6826 92.3185 80.8843 88.0009 79.2509 78.7902" fill="white"/>
<path d="M73.2787 87.6743C73.4993 88.6397 73.9151 89.5497 74.5005 90.3483C75.0859 91.147 75.8285 91.8175 76.6826 92.3185C76.6826 92.3185 80.8843 88.0009 79.2509 78.7902" stroke="#263238" stroke-linecap="round" stroke-linejoin="round"/>
<path d="M63.2375 95.3062C63.2375 95.3062 63.3284 101.629 64.412 102.012C64.412 102.012 69.5688 97.9801 69.0174 89.7752" fill="white"/>
<path d="M63.2375 95.3062C63.2375 95.3062 63.3284 101.629 64.412 102.012C64.412 102.012 69.5688 97.9801 69.0174 89.7752" stroke="#263238" stroke-linecap="round" stroke-linejoin="round"/>
<path d="M68.6622 88.7503C68.9461 89.7873 69.4704 90.7428 70.1927 91.5392C70.1927 91.5392 74.1358 89.8897 73.4499 83.4777" fill="white"/>
<path d="M68.6622 88.7503C68.9461 89.7873 69.4704 90.7428 70.1927 91.5392C70.1927 91.5392 74.1358 89.8897 73.4499 83.4777" stroke="#263238" stroke-linecap="round" stroke-linejoin="round"/>
<path d="M161.794 220.982C162.042 219.751 162.274 218.43 162.487 217.04" stroke="#263238" stroke-width="2" stroke-linecap="round" stroke-linejoin="round"/>
<path d="M163.108 212.145C165.641 187.557 161.204 146.844 123.545 133.311C92.5553 122.186 81.6631 146.832 83.4182 157.152C86.4039 174.661 108.452 189.792 123.16 175.478C147.518 151.668 124.52 109.603 115.102 94.7545" stroke="#263238" stroke-width="2" stroke-linecap="round" stroke-linejoin="round" stroke-dasharray="7.9 4.94"/>
<path d="M113.782 92.6412C112.389 90.5326 111.515 89.3467 111.515 89.3467" stroke="#263238" stroke-width="2" stroke-linecap="round" stroke-linejoin="round"/>
</svg>
