<svg width="432" height="443" viewBox="0 0 432 443" fill="none" xmlns="http://www.w3.org/2000/svg">
<path opacity="0.7" d="M34.14 137.974C34.14 137.974 6.25995 209.974 45.44 282.474C84.62 354.974 165.32 393.274 229.91 426.024C294.5 458.774 361.57 442.824 393.44 389.184C425.31 335.544 381.6 297.254 381.54 220.764C381.48 144.274 392.99 124.024 351.54 59.4043C310.09 -5.21566 208.48 -19.5257 131.64 28.4044C54.7999 76.3344 34.14 137.974 34.14 137.974Z" fill="white"/>
<path d="M65.9101 53.7544C79.3601 37.6744 97.5501 25.2244 119.21 25.4944C156.21 25.9544 176.21 58.6944 197.43 83.9644C208.43 97.0644 220.92 109.704 237.26 115.854C261.77 125.094 289.07 119.704 312.95 111.134C323.65 107.294 336.33 101.894 348.37 104.654C385 113.034 381.19 157.734 375.14 186.034C366.97 224.254 353.69 264.944 326.78 294.304C262.35 364.594 146.4 321.504 88.2801 265.414C84.0101 261.294 79.9201 256.984 76.0701 252.464C66.0759 240.778 57.6204 227.86 50.9101 214.024C32.2101 175.074 29.6001 127.724 45.8501 87.4844C50.7607 75.2755 57.5271 63.8981 65.9101 53.7544Z" fill="#FF725C"/>
<path opacity="0.7" d="M65.9101 53.7544C79.3601 37.6744 97.5501 25.2244 119.21 25.4944C156.21 25.9544 176.21 58.6944 197.43 83.9644C208.43 97.0644 220.92 109.704 237.26 115.854C261.77 125.094 289.07 119.704 312.95 111.134C323.65 107.294 336.33 101.894 348.37 104.654C385 113.034 381.19 157.734 375.14 186.034C366.97 224.254 353.69 264.944 326.78 294.304C262.35 364.594 146.4 321.504 88.2801 265.414C84.0101 261.294 79.9201 256.984 76.0701 252.464C66.0759 240.778 57.6204 227.86 50.9101 214.024C32.2101 175.074 29.6001 127.724 45.8501 87.4844C50.7607 75.2755 57.5271 63.8981 65.9101 53.7544Z" fill="white"/>
<path d="M266.55 295.604H291.5V285.584H266.55V295.604Z" stroke="#FF725C" stroke-linecap="round" stroke-linejoin="round"/>
<path d="M254.08 282.364H279.03V272.344H254.08V282.364Z" stroke="#FF725C" stroke-linecap="round" stroke-linejoin="round"/>
<path d="M196.83 201.474H221.78V191.454H196.83V201.474Z" stroke="#FF725C" stroke-linecap="round" stroke-linejoin="round"/>
<path d="M210.49 189.004H235.44V178.984H210.49V189.004Z" stroke="#FF725C" stroke-linecap="round" stroke-linejoin="round"/>
<path d="M303.35 76.1243H328.3V66.1043H303.35V76.1243Z" stroke="#FF725C" stroke-linecap="round" stroke-linejoin="round"/>
<path d="M290.16 62.7743H315.11V52.7543H290.16V62.7743Z" stroke="#FF725C" stroke-linecap="round" stroke-linejoin="round"/>
<path d="M109.64 68.1743H134.59V58.1543H109.64V68.1743Z" stroke="#FF725C" stroke-linecap="round" stroke-linejoin="round"/>
<path d="M96.4499 54.8343H121.4V44.8143H96.4499V54.8343Z" stroke="#FF725C" stroke-linecap="round" stroke-linejoin="round"/>
<path d="M184.71 111.394H209.66V101.374H184.71V111.394Z" stroke="#FF725C" stroke-linecap="round" stroke-linejoin="round"/>
<path d="M317.84 172.084H342.79V162.064H317.84V172.084Z" stroke="#FF725C" stroke-linecap="round" stroke-linejoin="round"/>
<path d="M347.48 259.904H372.43V249.884H347.48V259.904Z" stroke="#FF725C" stroke-linecap="round" stroke-linejoin="round"/>
<path d="M224.77 201.474H249.72V191.454H224.77V201.474Z" stroke="#FF725C" stroke-linecap="round" stroke-linejoin="round"/>
<path d="M323.37 230.594C299.12 230.324 274.12 230.324 250.61 230.594" stroke="#FF725C" stroke-linecap="round" stroke-linejoin="round"/>
<path d="M333.36 230.594H327.27" stroke="#FF725C" stroke-linecap="round" stroke-linejoin="round"/>
<path d="M42.21 258.794C66.46 259.064 91.46 259.064 114.97 258.794" stroke="#FF725C" stroke-linecap="round" stroke-linejoin="round"/>
<path d="M208.53 127.154H211.97" stroke="#FF725C" stroke-linecap="round" stroke-linejoin="round"/>
<path d="M172.28 127.154H204.63" stroke="#FF725C" stroke-linecap="round" stroke-linejoin="round"/>
<path d="M67.0499 176.114H34.7" stroke="#FF725C" stroke-linecap="round" stroke-linejoin="round"/>
<path d="M1 376.914H431.42" stroke="#263238" stroke-linecap="round" stroke-linejoin="round"/>
<path d="M265.49 387.074C265.49 387.074 259.05 396.184 265.72 399.244C272.39 402.304 331.45 395.244 359.09 394.984C386.73 394.724 401.83 384.284 401.24 381.124C400.65 377.964 393.91 371.944 393.91 371.944L389.21 377.434C389.21 377.434 394.21 378.934 394.07 381.254C393.93 383.574 375.62 391.124 352.59 387.944C329.56 384.764 280.48 394.624 276.59 394.184C272.7 393.744 276.42 385.044 276.42 385.044L265.49 387.074Z" fill="#263238"/>
<path d="M358.21 390.704C321.9 393.224 261.57 392.374 261.57 392.374C230.43 390.104 224.57 379.834 229.43 368.144C237 350.144 270.25 328.794 276.31 328.294C286.31 327.484 296.83 331.454 296.83 331.454L303.33 330.084C301.33 324.694 321.88 312.694 331.27 317.874C340.66 323.054 360.07 315.944 365.92 319.594C367.472 320.593 368.806 321.896 369.84 323.424C371.498 325.898 372.663 328.669 373.27 331.584H373.35C374.82 331.19 376.329 330.955 377.85 330.884C381.07 330.714 385.36 331.204 388.72 334.134C389.579 334.897 390.397 335.705 391.17 336.554C397.23 343.174 405.03 355.684 406.83 362.984C408.93 371.284 394.51 388.174 358.21 390.704Z" fill="#999999"/>
<mask id="mask0_45_466" style="mask-type:luminance" maskUnits="userSpaceOnUse" x="227" y="316" width="181" height="77">
<path d="M358.21 390.704C321.9 393.224 261.57 392.374 261.57 392.374C230.43 390.104 224.57 379.834 229.43 368.144C237 350.144 270.25 328.794 276.31 328.294C286.31 327.484 296.83 331.454 296.83 331.454L303.33 330.084C301.33 324.694 321.88 312.694 331.27 317.874C340.66 323.054 360.07 315.944 365.92 319.594C367.472 320.593 368.806 321.896 369.84 323.424C371.498 325.898 372.663 328.669 373.27 331.584H373.35C374.82 331.19 376.329 330.955 377.85 330.884C381.07 330.714 385.36 331.204 388.72 334.134C389.579 334.897 390.397 335.705 391.17 336.554C397.23 343.174 405.03 355.684 406.83 362.984C408.93 371.284 394.51 388.174 358.21 390.704Z" fill="white"/>
</mask>
<g mask="url(#mask0_45_466)">
<path opacity="0.2" d="M327.08 323.544C325.31 320.434 347.66 321.904 350.03 323.544C352.4 325.184 352.41 330.324 354.98 328.934C357.03 327.834 364.84 323.604 369.84 323.424C371.498 325.898 372.663 328.669 373.27 331.584C373.27 331.584 342.52 340.274 340.54 337.964C338.56 335.654 346.08 333.734 348.45 328.664C350.82 323.594 341.33 324.984 339.36 325.024C337.39 325.064 328.85 326.644 327.08 323.544Z" fill="black"/>
<path opacity="0.2" d="M358.21 390.704C321.9 393.224 261.57 392.374 261.57 392.374C230.43 390.104 224.57 379.834 229.43 368.144C230.63 369.084 232.69 369.504 236.07 368.854C247.18 366.714 253.5 366.124 260.63 372.854C267.76 379.584 275.87 383.674 279.63 382.354C279.63 382.354 280.15 367.494 294.63 356.824C309.11 346.154 312.52 349.184 315.41 346.354C318.3 343.524 320.01 338.354 311.71 335.434C303.41 332.514 299.37 331.434 299.37 331.434C299.37 331.434 308.51 330.724 316.43 334.274C324.35 337.824 331.26 346.274 327.9 348.184C324.54 350.094 332.84 353.494 338.58 352.584C343.66 351.764 360.52 351.674 363.9 351.534C360.9 352.174 347.48 356.364 347.48 359.584C347.48 359.584 351.62 366.384 351.59 374.074C351.56 381.764 360.59 382.744 364.5 379.864C368.41 376.984 369.23 373.034 367.75 365.514C366.27 357.994 362.13 357.434 356.75 358.604C356.75 358.604 363.67 354.434 365.85 355.814C368.03 357.194 374.15 356.614 375.34 363.134C376.53 369.654 372.34 375.004 374.34 376.784C376.34 378.564 387.79 376.584 389.77 372.784C391.75 368.984 390.44 347.214 388.53 346.784C386.62 346.354 377.07 349.254 376.8 349.334C377.252 348.062 378.031 346.931 379.057 346.053C380.084 345.176 381.323 344.583 382.65 344.334C386.17 343.714 390.51 340.254 391.2 336.474C397.26 343.094 405.06 355.604 406.86 362.904C408.93 371.284 394.51 388.174 358.21 390.704Z" fill="black"/>
</g>
<path d="M358.21 390.704C321.9 393.224 261.57 392.374 261.57 392.374C230.43 390.104 224.57 379.834 229.43 368.144C237 350.144 270.25 328.794 276.31 328.294C286.31 327.484 296.83 331.454 296.83 331.454L303.33 330.084C301.33 324.694 321.88 312.694 331.27 317.874C340.66 323.054 360.07 315.944 365.92 319.594C367.472 320.593 368.806 321.896 369.84 323.424C371.498 325.898 372.663 328.669 373.27 331.584H373.35C374.82 331.19 376.329 330.955 377.85 330.884C381.07 330.714 385.36 331.204 388.72 334.134C389.579 334.897 390.397 335.705 391.17 336.554C397.23 343.174 405.03 355.684 406.83 362.984C408.93 371.284 394.51 388.174 358.21 390.704Z" stroke="#263238" stroke-linecap="round" stroke-linejoin="round"/>
<path d="M296.83 331.454C296.83 331.454 301.38 332.974 312.83 335.704C324.28 338.434 317.97 347.704 309.66 348.204C301.35 348.704 280.02 367.274 279.62 379.884C279.22 392.494 296.21 390.654 296.21 390.654" stroke="#263238" stroke-linecap="round" stroke-linejoin="round"/>
<path d="M303.34 330.084C303.34 330.084 319.18 329.414 329.86 335.704C340.54 341.994 369.03 333.194 369.03 333.194" stroke="#263238" stroke-linecap="round" stroke-linejoin="round"/>
<path d="M348.45 359.604C353.21 366.124 351.21 386.984 351.21 386.984C351.21 386.984 382.58 384.124 391.21 377.104C399.84 370.084 392.34 347.244 387.59 346.394C382.84 345.544 365.44 355.464 351.59 357.394" stroke="#263238" stroke-linecap="round" stroke-linejoin="round"/>
<path d="M353.6 359.604C353.6 359.604 363.49 355.844 365.47 359.604C367.45 363.364 371.37 376.084 369.03 380.494C366.69 384.904 357.95 384.084 357.95 384.084" stroke="#263238" stroke-linecap="round" stroke-linejoin="round"/>
<path d="M316.41 319.884C316.41 319.884 329.05 325.214 336.18 325.114C343.31 325.014 351.62 324.484 348.45 328.704C347.038 330.512 345.719 332.391 344.5 334.334" stroke="#263238" stroke-linecap="round" stroke-linejoin="round"/>
<path d="M285.21 366.934C285.21 366.934 299.42 371.934 314.85 369.604C330.28 367.274 332.8 370.054 332.8 370.054V380.494C332.8 380.494 322.8 378.644 316.43 380.494C310.06 382.344 289.13 383.754 279.64 379.884" stroke="#263238" stroke-linecap="round" stroke-linejoin="round"/>
<path d="M281.02 374.094C281.02 374.094 286.25 375.554 299.35 375.584C312.45 375.614 324.72 374.504 324.72 374.504" stroke="#263238" stroke-linecap="round" stroke-linejoin="round"/>
<path d="M277.93 343.434L277.52 338.884C277.499 338.632 277.571 338.38 277.722 338.176C277.873 337.972 278.092 337.829 278.34 337.774L288.96 335.454C289.104 335.415 289.254 335.409 289.401 335.436C289.547 335.463 289.686 335.522 289.807 335.609C289.928 335.696 290.027 335.809 290.099 335.94C290.17 336.071 290.212 336.216 290.22 336.364L290.65 340.664C290.672 340.914 290.605 341.164 290.46 341.369C290.315 341.574 290.103 341.721 289.86 341.784L279.21 344.354C279.064 344.397 278.91 344.406 278.761 344.38C278.611 344.355 278.469 344.295 278.345 344.207C278.222 344.118 278.12 344.002 278.048 343.868C277.976 343.735 277.936 343.586 277.93 343.434Z" fill="#FF725C" stroke="#263238" stroke-linecap="round" stroke-linejoin="round"/>
<path d="M281.79 338.434L287.53 339.424L286.25 340.184L280.11 339.304L281.79 338.434Z" fill="#263238"/>
<path d="M293.56 332.884C295.528 331.212 297.983 330.22 300.56 330.054C304.41 330.054 307.38 331.244 306.98 331.474C306.58 331.704 300.46 332.904 299.32 334.284L293.56 332.884Z" fill="#263238"/>
<path d="M236.5 381.144C236.5 381.144 224.04 385.214 230.76 389.964C237.48 394.714 246.59 393.724 254 388.964L254.79 384.514C251.879 384.962 249.05 385.831 246.39 387.094C242.53 389.094 233.53 387.094 234.12 385.994C234.371 385.653 234.7 385.377 235.079 385.187C235.458 384.998 235.876 384.901 236.3 384.904L236.5 381.144Z" fill="#263238"/>
<path d="M274.89 392.074C275.81 397.074 310.57 389.874 338.8 384.894C367.03 379.914 392 385.684 394.08 381.254C396.16 376.824 401.24 381.124 401.24 381.124C398.774 386.053 394.643 389.949 389.58 392.124C381.3 395.514 342.41 394.724 320.58 399.194C298.75 403.664 260.02 410.194 262.81 393.194L274.89 392.074Z" fill="#263238"/>
<path d="M41.2099 334.884C41.2099 334.884 40.6399 360.654 83.3099 379.654C125.98 398.654 241.94 407.884 263.07 340.944L197.36 322.074H109.21L89.8099 330.884L41.2099 334.884Z" fill="#FF725C"/>
<mask id="mask1_45_466" style="mask-type:luminance" maskUnits="userSpaceOnUse" x="41" y="322" width="223" height="72">
<path d="M41.2099 334.884C41.2099 334.884 40.6399 360.654 83.3099 379.654C125.98 398.654 241.94 407.884 263.07 340.944L197.36 322.074H109.21L89.8099 330.884L41.2099 334.884Z" fill="white"/>
</mask>
<g mask="url(#mask1_45_466)">
<path opacity="0.2" d="M41.2099 334.884C41.2099 334.884 40.6399 360.654 83.3099 379.654C125.98 398.654 241.94 407.884 263.07 340.944L197.36 322.074H109.21L89.8099 330.884L41.2099 334.884Z" fill="black"/>
</g>
<path d="M41.2099 334.884C41.2099 334.884 40.6399 360.654 83.3099 379.654C125.98 398.654 241.94 407.884 263.07 340.944L197.36 322.074H109.21L89.8099 330.884L41.2099 334.884Z" stroke="#263238" stroke-linecap="round" stroke-linejoin="round"/>
<path d="M91.3 221.734C83.56 228.644 56.72 306.734 60.19 315.254C63.66 323.774 109.19 331.554 109.19 331.554C109.19 331.554 104.69 243.384 104.46 241.914C104.23 240.444 91.3 221.734 91.3 221.734Z" fill="#263238"/>
<path d="M211.89 221.734C219.63 228.644 246.47 306.734 243 315.254C239.53 323.774 194 331.554 194 331.554C194 331.554 198.5 243.384 198.73 241.914C198.96 240.444 211.89 221.734 211.89 221.734Z" fill="#263238"/>
<path d="M91.3 221.734C91.3 221.734 109.16 201.554 151.4 200.354C185.34 199.354 208.57 216.204 211.89 221.734C215.21 227.264 196.79 300.974 196.79 300.974L207.1 340.654C207.1 340.654 151.81 359.074 102.43 340.654L109.06 298.754C109.06 298.754 91.67 232.054 91.3 221.734Z" fill="#263238"/>
<g opacity="0.5">
<path d="M174.96 208.464C174.96 208.464 159.66 225.324 144.13 220.624" stroke="white" stroke-linecap="round" stroke-linejoin="round"/>
<path d="M162.21 239.584C165.787 240.276 169.404 240.744 173.04 240.984" stroke="white" stroke-linecap="round" stroke-linejoin="round"/>
<path d="M118.28 218.364C127.99 227.194 142.28 234.754 157.43 238.534" stroke="white" stroke-linecap="round" stroke-linejoin="round"/>
<path d="M202.51 235.884C199.263 241.912 197.34 248.564 196.87 255.394" stroke="white" stroke-linecap="round" stroke-linejoin="round"/>
<path d="M209.58 225.054C207.947 227.012 206.457 229.084 205.12 231.254" stroke="white" stroke-linecap="round" stroke-linejoin="round"/>
<path d="M210.97 246.054C204.06 249.054 197.7 259.874 197.7 259.874C200.573 265.501 202.798 271.435 204.33 277.564" stroke="white" stroke-linecap="round" stroke-linejoin="round"/>
<path d="M200.46 303.554C200.46 303.554 206.93 302.504 210.97 298.184C215.01 293.864 226.72 295.024 228.38 298.184" stroke="white" stroke-linecap="round" stroke-linejoin="round"/>
<path d="M215.11 293.014C215.11 293.014 219.26 286.694 228.38 291.114" stroke="white" stroke-linecap="round" stroke-linejoin="round"/>
<path d="M94.8899 226.994C94.8899 226.994 104 233.064 104.89 249.634" stroke="white" stroke-linecap="round" stroke-linejoin="round"/>
<path d="M101.09 266.274C98.6199 273.104 95.9399 280.084 94.5999 287.274" stroke="white" stroke-linecap="round" stroke-linejoin="round"/>
<path d="M96.8499 249.634C99.2599 250.244 104.73 252.534 105.19 255.354C105.41 256.664 103.49 259.804 103.04 261.004" stroke="white" stroke-linecap="round" stroke-linejoin="round"/>
<path d="M86.9099 293.884C87.8464 293.663 88.8243 293.686 89.7491 293.952C90.674 294.219 91.5146 294.719 92.1899 295.404" stroke="white" stroke-linecap="round" stroke-linejoin="round"/>
<path d="M76.9099 298.184C78.5559 297.089 80.2922 296.135 82.0999 295.334" stroke="white" stroke-linecap="round" stroke-linejoin="round"/>
<path d="M86.03 301.334C86.03 301.334 86.62 296.404 94.89 298.184C103.16 299.964 122.79 306.044 122.79 306.044" stroke="white" stroke-linecap="round" stroke-linejoin="round"/>
</g>
<path d="M173.11 206.934C173.11 206.934 163.61 216.284 152.11 216.284C140.61 216.284 129.63 205.454 129.63 205.454C129.63 205.454 135.56 202.504 137.15 196.594C137.251 196.236 137.331 195.872 137.39 195.504C137.82 192.914 137.13 188.504 136.13 184.154C134.56 177.304 132.23 170.444 132.23 170.444H169.38C169.38 170.444 167.62 179.014 166.46 186.914C166.25 188.364 166.05 189.784 165.9 191.134C165.75 192.484 165.59 193.934 165.52 195.134C165.06 203.504 173.11 206.934 173.11 206.934Z" fill="white" stroke="#263238" stroke-linecap="round" stroke-linejoin="round"/>
<path d="M208.08 340.724V345.014C208.079 345.247 208.052 345.478 208 345.704C207.838 346.323 207.477 346.872 206.973 347.265C206.469 347.659 205.85 347.877 205.21 347.884H103.39C102.741 347.884 102.11 347.668 101.598 347.27C101.085 346.871 100.72 346.313 100.56 345.684C100.508 345.458 100.481 345.227 100.48 344.994V340.704L208.08 340.724Z" fill="#757575"/>
<mask id="mask2_45_466" style="mask-type:luminance" maskUnits="userSpaceOnUse" x="100" y="340" width="109" height="8">
<path d="M208.08 340.724V345.014C208.079 345.247 208.052 345.478 208 345.704C207.838 346.323 207.477 346.872 206.973 347.265C206.469 347.659 205.85 347.877 205.21 347.884H103.39C102.741 347.884 102.11 347.668 101.598 347.27C101.085 346.871 100.72 346.313 100.56 345.684C100.508 345.458 100.481 345.227 100.48 344.994V340.704L208.08 340.724Z" fill="white"/>
</mask>
<g mask="url(#mask2_45_466)">
<path opacity="0.2" d="M208.08 340.724V345.014C208.079 345.247 208.052 345.478 208 345.704H100.56C100.508 345.478 100.481 345.247 100.48 345.014V340.724H208.08Z" fill="black"/>
</g>
<path d="M208.08 340.724V345.014C208.079 345.247 208.052 345.478 208 345.704C207.838 346.323 207.477 346.872 206.973 347.265C206.469 347.659 205.85 347.877 205.21 347.884H103.39C102.741 347.884 102.11 347.668 101.598 347.27C101.085 346.871 100.72 346.313 100.56 345.684C100.508 345.458 100.481 345.227 100.48 344.994V340.704L208.08 340.724Z" stroke="#263238" stroke-linecap="round" stroke-linejoin="round"/>
<path d="M207.07 343.584H101.48C100.987 343.601 100.504 343.446 100.113 343.144C99.7224 342.843 99.449 342.415 99.3399 341.934L90.1699 267.934C90.1312 267.65 90.1541 267.361 90.2371 267.086C90.3201 266.811 90.4612 266.557 90.651 266.342C90.8407 266.127 91.0746 265.955 91.3366 265.838C91.5987 265.721 91.8829 265.662 92.1699 265.664H216.39C216.677 265.662 216.961 265.721 217.223 265.838C217.485 265.955 217.719 266.127 217.909 266.342C218.099 266.557 218.24 266.811 218.323 267.086C218.406 267.361 218.429 267.65 218.39 267.934L209.22 341.934C209.114 342.419 208.84 342.851 208.447 343.153C208.053 343.455 207.565 343.608 207.07 343.584Z" fill="#757575" stroke="#263238" stroke-linecap="round" stroke-linejoin="round"/>
<path opacity="0.2" d="M101.91 342.024L92.9098 271.094C92.889 270.893 92.9103 270.689 92.9724 270.497C93.0345 270.304 93.136 270.126 93.2705 269.975C93.405 269.823 93.5695 269.701 93.7536 269.617C93.9377 269.533 94.1374 269.487 94.3399 269.484H214.21C214.413 269.488 214.613 269.533 214.797 269.617C214.982 269.701 215.147 269.823 215.282 269.974C215.418 270.125 215.52 270.303 215.583 270.496C215.647 270.689 215.669 270.892 215.65 271.094L206.65 342.024" fill="white"/>
<path d="M101.91 342.024L92.9098 271.094C92.889 270.893 92.9103 270.689 92.9724 270.497C93.0345 270.304 93.136 270.126 93.2705 269.975C93.405 269.823 93.5695 269.701 93.7536 269.617C93.9377 269.533 94.1374 269.487 94.3399 269.484H214.21C214.413 269.488 214.613 269.533 214.797 269.617C214.982 269.701 215.147 269.823 215.282 269.974C215.417 270.125 215.52 270.303 215.583 270.496C215.647 270.689 215.669 270.892 215.65 271.094L206.65 342.024" stroke="#263238" stroke-linecap="round" stroke-linejoin="round"/>
<path d="M155.48 311.074H144.63L157.23 297.874L151.38 308.354L155.48 311.074Z" fill="#FF725C" stroke="#263238" stroke-linecap="round" stroke-linejoin="round"/>
<path d="M151.23 317.994L164.61 305.084H154.01L157.81 307.884L151.23 317.994Z" fill="#FF725C" stroke="#263238" stroke-linecap="round" stroke-linejoin="round"/>
<path d="M242.07 385.694L245.27 389.334C245.27 389.334 248.27 396.154 239.98 404.504C231.69 412.854 210.2 414.504 201.84 413.054L196.57 413.764L178.64 409.884C178.64 409.884 169.56 405.444 173.27 397.654C176.98 389.864 242.07 385.694 242.07 385.694Z" fill="#FF725C" stroke="#263238" stroke-linecap="round" stroke-linejoin="round"/>
<path d="M236.57 403.214C229.64 410.444 207.44 411.884 198.17 409.774C195.64 409.194 186.43 408.864 179.57 406.404C175.87 405.094 172.85 403.164 171.93 400.244C169.27 391.914 192.71 376.064 192.71 376.064C192.71 376.064 207.66 378.944 210.76 379.684C214.371 380.535 218.054 381.044 221.76 381.204C228.87 381.514 233.68 380.564 238.89 382.804C244.79 385.354 244.87 394.554 236.57 403.214Z" fill="#757575"/>
<mask id="mask3_45_466" style="mask-type:luminance" maskUnits="userSpaceOnUse" x="171" y="376" width="73" height="35">
<path d="M236.57 403.214C229.64 410.444 207.44 411.884 198.17 409.774C195.64 409.194 186.43 408.864 179.57 406.404C175.87 405.094 172.85 403.164 171.93 400.244C169.27 391.914 192.71 376.064 192.71 376.064C192.71 376.064 207.66 378.944 210.76 379.684C214.371 380.535 218.054 381.044 221.76 381.204C228.87 381.514 233.68 380.564 238.89 382.804C244.79 385.354 244.87 394.554 236.57 403.214Z" fill="white"/>
</mask>
<g mask="url(#mask3_45_466)">
<path opacity="0.2" d="M221.72 381.204C216.38 389.924 203.05 406.664 179.57 406.404C175.87 405.094 172.85 403.164 171.93 400.244C169.27 391.914 192.71 376.064 192.71 376.064C192.71 376.064 207.66 378.944 210.76 379.684C214.358 380.532 218.027 381.041 221.72 381.204Z" fill="black"/>
</g>
<path d="M236.57 403.214C229.64 410.444 207.44 411.884 198.17 409.774C195.64 409.194 186.43 408.864 179.57 406.404C175.87 405.094 172.85 403.164 171.93 400.244C169.27 391.914 192.71 376.064 192.71 376.064C192.71 376.064 207.66 378.944 210.76 379.684C214.371 380.535 218.054 381.044 221.76 381.204C228.87 381.514 233.68 380.564 238.89 382.804C244.79 385.354 244.87 394.554 236.57 403.214Z" stroke="#263238" stroke-linecap="round" stroke-linejoin="round"/>
<path d="M188.46 386.234C188.46 386.234 211.46 393.174 215.78 392.724C220.1 392.274 220.63 395.814 220.63 395.814" stroke="#263238" stroke-linecap="round" stroke-linejoin="round"/>
<path d="M192.15 377.884C192.15 377.884 217.39 383.284 220.44 384.184C222.281 384.713 224.244 384.625 226.03 383.934" stroke="#263238" stroke-linecap="round" stroke-linejoin="round"/>
<path d="M196.83 378.284C196.614 380.738 195.762 383.094 194.36 385.119C192.957 387.144 191.051 388.769 188.83 389.834" stroke="#263238" stroke-linecap="round" stroke-linejoin="round"/>
<path d="M201.55 379.144C201.323 381.526 200.613 383.837 199.465 385.936C198.317 388.035 196.753 389.879 194.87 391.354" stroke="#263238" stroke-linecap="round" stroke-linejoin="round"/>
<path d="M206.58 380.884C206.58 380.884 207.94 388.264 200.09 393.694" stroke="#263238" stroke-linecap="round" stroke-linejoin="round"/>
<path d="M211.88 381.464C211.88 381.464 213.07 390.764 205.49 395.534" stroke="#263238" stroke-linecap="round" stroke-linejoin="round"/>
<path d="M217.55 382.274C217.55 382.274 217.35 391.984 210.96 396.144" stroke="#263238" stroke-linecap="round" stroke-linejoin="round"/>
<path d="M222 383.514C222 383.514 223.68 391.764 216.81 396.794" stroke="#263238" stroke-linecap="round" stroke-linejoin="round"/>
<path d="M194.48 372.234C192.25 387.344 168.95 403.764 168.95 403.764C168.95 403.764 162.5 397.714 160.37 397.964C158.24 398.214 149.37 397.584 149.37 397.584C149.37 397.584 79.2099 371.324 70.7899 371.184C65.5299 371.104 50.3699 366.494 42.8699 354.534C38.4099 347.434 36.6599 337.734 41.2699 324.864C48.8699 303.634 86.3399 319.274 123.08 339.564C135.28 346.314 146.08 351.724 154.85 355.844C169.4 362.694 178.25 365.994 178.25 365.994L183.11 364.254L194.48 372.234Z" fill="#FF725C"/>
<mask id="mask4_45_466" style="mask-type:luminance" maskUnits="userSpaceOnUse" x="38" y="314" width="157" height="90">
<path d="M194.48 372.234C192.25 387.344 168.95 403.764 168.95 403.764C168.95 403.764 162.5 397.714 160.37 397.964C158.24 398.214 149.37 397.584 149.37 397.584C149.37 397.584 79.2099 371.324 70.7899 371.184C65.5299 371.104 50.3699 366.494 42.8699 354.534C38.4099 347.434 36.6599 337.734 41.2699 324.864C48.8699 303.634 86.3399 319.274 123.08 339.564C135.28 346.314 146.08 351.724 154.85 355.844C169.4 362.694 178.25 365.994 178.25 365.994L183.11 364.254L194.48 372.234Z" fill="white"/>
</mask>
<g mask="url(#mask4_45_466)">
<path opacity="0.2" d="M194.48 372.234C192.25 387.344 168.95 403.764 168.95 403.764C168.95 403.764 162.5 397.714 160.37 397.964C158.24 398.214 149.37 397.584 149.37 397.584C149.37 397.584 79.2099 371.324 70.7899 371.184C65.5299 371.104 50.3699 366.494 42.8699 354.534C51.6799 355.184 66.6899 356.654 73.8699 359.334C73.8699 359.334 65.8699 361.334 68.0699 363.254C70.2699 365.174 102.39 368.954 113.69 366.104C123.91 363.534 144.31 356.584 154.87 355.844C169.42 362.694 178.27 365.994 178.27 365.994L183.13 364.254L194.48 372.234Z" fill="black"/>
</g>
<path d="M194.48 372.234C192.25 387.344 168.95 403.764 168.95 403.764C168.95 403.764 162.5 397.714 160.37 397.964C158.24 398.214 149.37 397.584 149.37 397.584C149.37 397.584 79.2099 371.324 70.7899 371.184C65.5299 371.104 50.3699 366.494 42.8699 354.534C38.4099 347.434 36.6599 337.734 41.2699 324.864C48.8699 303.634 86.3399 319.274 123.08 339.564C135.28 346.314 146.08 351.724 154.85 355.844C169.4 362.694 178.25 365.994 178.25 365.994L183.11 364.254L194.48 372.234Z" stroke="#263238" stroke-linecap="round" stroke-linejoin="round"/>
<path d="M132.35 357.634C134.84 357.204 137.35 356.694 139.76 356.054" stroke="#263238" stroke-linecap="round" stroke-linejoin="round"/>
<path d="M65.9099 358.964C86.2399 360.594 107.17 361.054 127.42 358.384" stroke="#263238" stroke-linecap="round" stroke-linejoin="round"/>
<path d="M64.44 387.094L61.21 390.734C61.21 390.734 58.21 397.554 66.49 405.904C74.77 414.254 96.27 415.904 104.63 414.454L109.91 415.164L127.83 411.314C127.83 411.314 136.95 406.884 133.21 399.084C129.47 391.284 64.44 387.094 64.44 387.094Z" fill="#FF725C" stroke="#263238" stroke-linecap="round" stroke-linejoin="round"/>
<path d="M113.81 377.464C113.81 377.464 98.86 380.344 95.75 381.074C81.86 384.354 75.16 380.984 67.67 384.204C61.73 386.754 61.67 395.954 69.94 404.614C76.87 411.844 99.07 413.284 108.34 411.174C112.23 410.294 131.94 409.944 134.59 401.634C137.24 393.324 113.81 377.464 113.81 377.464Z" fill="#757575" stroke="#263238" stroke-linecap="round" stroke-linejoin="round"/>
<path d="M118.05 387.634C118.05 387.634 95.0499 394.574 90.7299 394.124C86.4099 393.674 85.8799 397.214 85.8799 397.214" stroke="#263238" stroke-linecap="round" stroke-linejoin="round"/>
<path d="M114.37 379.254C114.37 379.254 89.12 384.664 86.07 385.554C84.2306 386.088 82.2668 386.004 80.48 385.314" stroke="#263238" stroke-linecap="round" stroke-linejoin="round"/>
<path d="M109.69 379.684C109.906 382.138 110.757 384.494 112.16 386.519C113.563 388.544 115.469 390.169 117.69 391.234" stroke="#263238" stroke-linecap="round" stroke-linejoin="round"/>
<path d="M104.96 380.544C105.187 382.927 105.898 385.239 107.048 387.338C108.198 389.437 109.764 391.28 111.65 392.754" stroke="#263238" stroke-linecap="round" stroke-linejoin="round"/>
<path d="M99.9399 382.274C99.9399 382.274 98.5699 389.654 106.42 395.084" stroke="#263238" stroke-linecap="round" stroke-linejoin="round"/>
<path d="M94.63 382.884C94.63 382.884 93.44 392.184 101.02 396.954" stroke="#263238" stroke-linecap="round" stroke-linejoin="round"/>
<path d="M88.97 383.674C88.97 383.674 89.16 393.384 95.56 397.544" stroke="#263238" stroke-linecap="round" stroke-linejoin="round"/>
<path d="M84.52 384.884C84.52 384.884 82.84 393.124 89.7 398.164" stroke="#263238" stroke-linecap="round" stroke-linejoin="round"/>
<path d="M263.78 324.724C256.13 303.504 218.7 319.214 182.01 339.574C149.57 357.574 126.88 366.104 126.88 366.104L122.02 364.384L110.66 372.384C112.92 387.484 136.26 403.854 136.26 403.854C136.26 403.854 142.69 397.784 144.83 398.034C146.97 398.284 155.83 397.634 155.83 397.634C155.83 397.634 225.99 371.244 234.36 371.094C242.73 370.944 276.21 359.274 263.78 324.724Z" fill="#FF725C" stroke="#263238" stroke-linecap="round" stroke-linejoin="round"/>
<path d="M161.99 379.234C163.99 379.374 166.05 379.454 168.08 379.464" stroke="#263238" stroke-linecap="round" stroke-linejoin="round"/>
<path d="M126.88 366.104C134.21 373.884 146.21 377.264 156.43 378.664" stroke="#263238" stroke-linecap="round" stroke-linejoin="round"/>
<path d="M209.45 352.344C223.8 355.074 239.76 357.574 254.2 354.204" stroke="#263238" stroke-linecap="round" stroke-linejoin="round"/>
<path d="M198.44 349.944C200.44 350.454 202.5 350.944 204.55 351.354" stroke="#263238" stroke-linecap="round" stroke-linejoin="round"/>
<path d="M166.51 186.884C166.3 188.334 166.1 189.754 165.95 191.104C162.21 194.934 155.95 200.204 149.95 200.384C145.56 200.514 140.95 198.634 137.21 196.564C137.311 196.206 137.391 195.842 137.45 195.474C137.88 192.884 137.19 188.474 136.19 184.124L166.51 186.884Z" fill="#263238"/>
<path d="M176.21 162.664C176.21 162.664 178.94 160.094 180.28 160.944C181.62 161.794 183.21 164.174 182.48 166.354C181.75 168.534 178.58 172.354 178.33 174.554C178.08 176.754 176.45 179.274 174.65 177.804C172.85 176.334 176.21 162.664 176.21 162.664Z" fill="white" stroke="#263238" stroke-linecap="round" stroke-linejoin="round"/>
<path d="M127.59 162.664C127.59 162.664 124.86 160.094 123.52 160.944C122.18 161.794 120.59 164.174 121.33 166.354C122.07 168.534 125.23 172.354 125.47 174.554C125.71 176.754 127.36 179.274 129.15 177.804C130.94 176.334 127.59 162.664 127.59 162.664Z" fill="white" stroke="#263238" stroke-linecap="round" stroke-linejoin="round"/>
<path d="M151.31 127.584C186.81 127.584 177.21 170.504 170.67 185.684C168.38 191.014 157.06 198.484 151.31 198.484C145.96 198.484 135.31 191.484 133.11 186.484C126.5 171.184 117.48 127.584 151.31 127.584Z" fill="white" stroke="#263238" stroke-linecap="round" stroke-linejoin="round"/>
<path d="M157.33 162.364C157.33 162.364 166.57 159.504 169.43 165.224" stroke="#263238" stroke-linecap="round" stroke-linejoin="round"/>
<path d="M164.21 170.134C164.21 171.224 163.66 172.134 162.97 172.134C162.28 172.134 161.74 171.244 161.74 170.134C161.74 169.024 162.29 168.134 162.97 168.134C163.65 168.134 164.21 169.044 164.21 170.134Z" fill="#263238"/>
<path d="M146.49 162.364C146.49 162.364 137.24 159.504 134.38 165.224" stroke="#263238" stroke-linecap="round" stroke-linejoin="round"/>
<path d="M139.64 170.134C139.64 171.224 140.2 172.134 140.88 172.134C141.56 172.134 142.12 171.244 142.12 170.134C142.12 169.024 141.56 168.134 140.88 168.134C140.2 168.134 139.64 169.044 139.64 170.134Z" fill="#263238"/>
<path d="M147.74 178.244C146.4 179.674 151.04 182.024 151.91 182.024C152.78 182.024 156.31 180.174 156.31 179.084" fill="white"/>
<path d="M147.74 178.244C146.4 179.674 151.04 182.024 151.91 182.024C152.78 182.024 156.31 180.174 156.31 179.084" stroke="#263238" stroke-linecap="round" stroke-linejoin="round"/>
<path d="M166.05 139.674C157.151 142.514 147.589 142.514 138.69 139.674C138.69 139.674 133.9 139.394 132.01 141.804C130.12 144.214 132.01 151.644 132.51 154.674C133.01 157.704 128.35 159.794 128.98 167.444L128.35 170.334C128.35 170.334 123.19 157.194 124.45 146.604C125.71 136.014 131.38 132.484 131.38 132.484C131.38 132.484 134.43 123.344 152.29 123.404C171.54 123.484 173.48 133.904 173.48 133.904C173.48 133.904 185.48 142.904 175.8 171.314L174.8 167.444C175.295 163.681 174.43 159.866 172.36 156.684C170.68 154.234 173.36 146.854 172.74 143.074C172.12 139.294 166.05 139.674 166.05 139.674Z" fill="#263238"/>
<path d="M144.21 185.504C146.624 186.628 149.257 187.201 151.92 187.184C154.433 187.235 156.934 186.81 159.29 185.934" fill="white"/>
<path d="M144.21 185.504C146.624 186.628 149.257 187.201 151.92 187.184C154.433 187.235 156.934 186.81 159.29 185.934" stroke="#263238" stroke-linecap="round" stroke-linejoin="round"/>
<path d="M165.27 143.054C166.039 146.942 167.445 150.675 169.43 154.104C172.43 158.894 175.97 159.384 176.98 165.224C176.98 165.224 186.19 149.684 178.4 136.044C178.4 136.044 175.95 120.564 151.91 120.564C127.87 120.564 116.74 137.314 126.08 163.034C128.342 162.051 130.302 160.485 131.76 158.496C133.218 156.507 134.122 154.167 134.38 151.714C134.867 155.219 133.982 158.776 131.91 161.644C131.91 161.644 144.29 159.814 147.5 149.494C147.5 149.494 146.25 156.354 142.12 159.264C142.12 159.264 146.79 165.164 152.12 155.944C157.45 146.724 160.66 141.204 165.27 143.054Z" fill="#263238"/>
<path opacity="0.2" d="M146.3 145.064C144.8 147.214 142.69 150.534 139.64 150.214" stroke="white" stroke-linecap="round" stroke-linejoin="round"/>
<path opacity="0.2" d="M164.21 136.134C160.16 127.894 151.38 137.994 148.51 141.974" stroke="white" stroke-linecap="round" stroke-linejoin="round"/>
<path opacity="0.2" d="M130.29 137.964C129.297 138.86 128.119 139.525 126.84 139.914" stroke="white" stroke-linecap="round" stroke-linejoin="round"/>
<path opacity="0.2" d="M159.28 128.444C151.11 119.894 139.53 129.834 133.06 135.524" stroke="white" stroke-linecap="round" stroke-linejoin="round"/>
<path opacity="0.2" d="M175.78 138.174C177.177 140.376 178.072 142.858 178.4 145.444" stroke="white" stroke-linecap="round" stroke-linejoin="round"/>
<path opacity="0.2" d="M169.43 134.584C170.728 134.552 172.007 134.899 173.11 135.584" stroke="white" stroke-linecap="round" stroke-linejoin="round"/>
<path opacity="0.2" d="M166.95 130.284C166.95 130.284 168.72 125.594 172.28 129.024" stroke="white" stroke-linecap="round" stroke-linejoin="round"/>
<path d="M193.91 246.644H112.71C110.059 246.644 107.91 248.793 107.91 251.444V254.884C107.91 257.535 110.059 259.684 112.71 259.684H193.91C196.561 259.684 198.71 257.535 198.71 254.884V251.444C198.71 248.793 196.561 246.644 193.91 246.644Z" stroke="white" stroke-width="1.35896" stroke-linecap="round" stroke-linejoin="round"/>
<path d="M143.9 250.214C144.212 250.255 144.527 250.174 144.781 249.988C145.034 249.801 145.206 249.524 145.26 249.214H146.09V257.094H144.86V251.094H143.86L143.9 250.214Z" fill="white"/>
<path d="M147.49 251.114C147.49 250.616 147.688 250.138 148.041 249.785C148.393 249.432 148.871 249.234 149.37 249.234C149.869 249.234 150.347 249.432 150.699 249.785C151.052 250.138 151.25 250.616 151.25 251.114V255.214C151.25 255.713 151.052 256.191 150.699 256.544C150.347 256.896 149.869 257.094 149.37 257.094C148.871 257.094 148.393 256.896 148.041 256.544C147.688 256.191 147.49 255.713 147.49 255.214V251.114ZM148.73 255.294C148.73 255.854 148.97 256.064 149.37 256.064C149.77 256.064 150.01 255.854 150.01 255.294V251.034C150.01 250.474 149.76 250.264 149.37 250.264C148.98 250.264 148.73 250.474 148.73 251.034V255.294Z" fill="white"/>
<path d="M151.95 251.114C151.95 250.867 151.999 250.623 152.093 250.395C152.188 250.167 152.326 249.96 152.501 249.785C152.675 249.61 152.882 249.472 153.111 249.377C153.339 249.283 153.583 249.234 153.83 249.234C154.077 249.234 154.321 249.283 154.549 249.377C154.777 249.472 154.985 249.61 155.159 249.785C155.334 249.96 155.472 250.167 155.567 250.395C155.661 250.623 155.71 250.867 155.71 251.114V255.214C155.71 255.461 155.661 255.706 155.567 255.934C155.472 256.162 155.334 256.369 155.159 256.544C154.985 256.718 154.777 256.857 154.549 256.951C154.321 257.046 154.077 257.094 153.83 257.094C153.583 257.094 153.339 257.046 153.111 256.951C152.882 256.857 152.675 256.718 152.501 256.544C152.326 256.369 152.188 256.162 152.093 255.934C151.999 255.706 151.95 255.461 151.95 255.214V251.114ZM153.18 255.294C153.18 255.854 153.43 256.064 153.83 256.064C154.23 256.064 154.47 255.854 154.47 255.294V251.034C154.47 250.474 154.22 250.264 153.83 250.264C153.44 250.264 153.18 250.474 153.18 251.034V255.294Z" fill="white"/>
<path d="M156.44 250.424C156.44 250.109 156.565 249.806 156.788 249.583C157.012 249.36 157.314 249.234 157.63 249.234C157.946 249.234 158.248 249.36 158.471 249.583C158.695 249.806 158.82 250.109 158.82 250.424V253.014C158.82 253.33 158.695 253.633 158.471 253.856C158.248 254.079 157.946 254.204 157.63 254.204C157.314 254.204 157.012 254.079 156.788 253.856C156.565 253.633 156.44 253.33 156.44 253.014V250.424ZM157.23 253.074C157.23 253.424 157.37 253.574 157.63 253.574C157.89 253.574 158.04 253.424 158.04 253.074V250.374C158.04 250.024 157.88 249.874 157.63 249.874C157.38 249.874 157.23 250.024 157.23 250.374V253.074ZM160.74 249.224H161.47L158.36 257.104H157.63L160.74 249.224ZM160.34 253.314C160.325 253.148 160.344 252.981 160.397 252.823C160.451 252.665 160.536 252.519 160.649 252.396C160.761 252.273 160.898 252.174 161.051 252.107C161.203 252.04 161.368 252.005 161.535 252.005C161.702 252.005 161.867 252.04 162.019 252.107C162.172 252.174 162.309 252.273 162.421 252.396C162.534 252.519 162.619 252.665 162.672 252.823C162.726 252.981 162.745 253.148 162.73 253.314V255.884C162.745 256.05 162.726 256.218 162.672 256.376C162.619 256.534 162.534 256.679 162.421 256.803C162.309 256.926 162.172 257.024 162.019 257.092C161.867 257.159 161.702 257.194 161.535 257.194C161.368 257.194 161.203 257.159 161.051 257.092C160.898 257.024 160.761 256.926 160.649 256.803C160.536 256.679 160.451 256.534 160.397 256.376C160.344 256.218 160.325 256.05 160.34 255.884V253.314ZM161.13 255.954C161.13 256.304 161.28 256.454 161.54 256.454C161.8 256.454 161.94 256.304 161.94 255.954V253.254C161.94 252.904 161.79 252.754 161.54 252.754C161.29 252.754 161.13 252.904 161.13 253.254V255.954Z" fill="white"/>
<path d="M105.779 138.11C114.781 125.54 111.887 108.052 99.3165 99.0513C86.7459 90.0502 69.2586 92.9438 60.2575 105.514C51.2563 118.085 54.1499 135.572 66.7205 144.573C79.291 153.574 96.7783 150.681 105.779 138.11Z" stroke="#263238" stroke-width="0.996243" stroke-linecap="round" stroke-linejoin="round"/>
<path d="M105.43 99.8843C99.8764 94.4516 92.4854 91.3022 84.7202 91.0596C76.9551 90.817 69.3819 93.4989 63.5 98.5744" stroke="#263238" stroke-linecap="round" stroke-linejoin="round"/>
<path d="M112.58 133.314C114.639 128.064 115.227 122.352 114.281 116.793C113.335 111.233 110.89 106.037 107.21 101.764" stroke="#263238" stroke-linecap="round" stroke-linejoin="round"/>
<path d="M105.96 150.884L111.6 154.244L106.82 142.684C107.606 141.811 108.341 140.893 109.02 139.934" stroke="#263238" stroke-linecap="round" stroke-linejoin="round"/>
<path d="M63.5 145.444C68.6159 149.857 75.0331 152.477 81.7753 152.907C88.5175 153.336 95.2154 151.552 100.85 147.824L103.63 149.474" stroke="#263238" stroke-linecap="round" stroke-linejoin="round"/>
<path d="M54.99 110.524C52.8874 115.798 52.2734 121.548 53.215 127.147C54.1567 132.746 56.6179 137.979 60.33 142.274" stroke="#263238" stroke-linecap="round" stroke-linejoin="round"/>
<path d="M58.13 104.624C57.4458 105.621 56.8246 106.66 56.27 107.734" stroke="#263238" stroke-linecap="round" stroke-linejoin="round"/>
<path d="M78.6999 132.124L68.9899 122.774C68.5563 122.357 68.3063 121.784 68.2951 121.182C68.2838 120.58 68.5122 119.998 68.9299 119.564C69.3476 119.131 69.9205 118.881 70.5225 118.87C71.1245 118.858 71.7063 119.087 72.1399 119.504" stroke="#263238" stroke-linecap="round" stroke-linejoin="round"/>
<path d="M94.7801 109.954C95.1143 109.453 95.6339 109.105 96.2246 108.987C96.8153 108.869 97.4288 108.99 97.9301 109.324C98.4313 109.659 98.7793 110.178 98.8975 110.769C99.0156 111.36 98.8943 111.973 98.5601 112.474L84.2901 133.804C84.1069 134.081 83.8651 134.314 83.5816 134.487C83.2982 134.66 82.9801 134.768 82.6501 134.804H82.4501C81.8469 134.813 81.2647 134.583 80.8301 134.164" stroke="#263238" stroke-linecap="round" stroke-linejoin="round"/>
<path d="M74.3499 121.644L82.0199 129.024L92.9099 112.744" stroke="#263238" stroke-linecap="round" stroke-linejoin="round"/>
<path d="M373.21 123.484C373.21 123.484 359.21 121.934 350.64 106.564C342.07 91.1943 296.04 96.2443 296.04 96.2443C296.04 96.2443 296.31 101.624 303.43 103.014L298.43 105.414C298.43 105.414 299.89 111.574 312.93 111.024L309.45 114.884C309.45 114.884 314.93 119.354 328.67 117.394L326.08 120.724C326.08 120.724 332.5 125.194 343.4 122.054L342.21 125.104C342.21 125.104 350.47 125.704 355.34 123.574C355.36 123.574 364.78 129.384 373.21 123.484Z" fill="white"/>
<mask id="mask5_45_466" style="mask-type:luminance" maskUnits="userSpaceOnUse" x="296" y="95" width="78" height="32">
<path d="M373.21 123.484C373.21 123.484 359.21 121.934 350.64 106.564C342.07 91.1943 296.04 96.2443 296.04 96.2443C296.04 96.2443 296.31 101.624 303.43 103.014L298.43 105.414C298.43 105.414 299.89 111.574 312.93 111.024L309.45 114.884C309.45 114.884 314.93 119.354 328.67 117.394L326.08 120.724C326.08 120.724 332.5 125.194 343.4 122.054L342.21 125.104C342.21 125.104 350.47 125.704 355.34 123.574C355.36 123.574 364.78 129.384 373.21 123.484Z" fill="white"/>
</mask>
<g mask="url(#mask5_45_466)">
<path opacity="0.4" d="M373.21 123.494C364.75 129.384 355.33 123.584 355.33 123.584C350.46 125.694 342.2 125.114 342.2 125.114L343.36 122.014C332.47 125.164 326.05 120.684 326.05 120.684L328.64 117.354C314.9 119.354 309.42 114.834 309.42 114.834L312.96 111.034C299.96 111.564 298.47 105.414 298.47 105.414L303.47 103.024C296.35 101.624 296.08 96.2443 296.08 96.2443C296.08 96.2443 298.69 100.894 306.21 100.744C306.21 100.744 304.95 103.884 312.65 104.464C312.65 104.464 319.16 107.234 323.88 105.164C323.88 105.164 325.46 108.384 331.12 107.834L329.21 110.364C329.21 110.364 329.8 113.684 336.81 112.034L335.81 115.294C335.81 115.294 338.11 117.964 347.13 115.974C347.13 115.974 344.31 117.814 345.24 118.754C346.17 119.694 349.01 120.144 351.47 119.904C351.43 119.884 361.06 127.494 373.21 123.494Z" fill="#FF725C"/>
</g>
<path d="M373.21 123.484C373.21 123.484 359.21 121.934 350.64 106.564C342.07 91.1943 296.04 96.2443 296.04 96.2443C296.04 96.2443 296.31 101.624 303.43 103.014L298.43 105.414C298.43 105.414 299.89 111.574 312.93 111.024L309.45 114.884C309.45 114.884 314.93 119.354 328.67 117.394L326.08 120.724C326.08 120.724 332.5 125.194 343.4 122.054L342.21 125.104C342.21 125.104 350.47 125.704 355.34 123.574C355.36 123.574 364.78 129.384 373.21 123.484Z" stroke="#263238" stroke-linecap="round" stroke-linejoin="round"/>
<path d="M313.61 99.1643C308.98 100.334 306.18 99.9643 302.74 101.714C302.74 101.714 305.74 105.814 313.64 105.264" fill="white"/>
<path d="M313.61 99.1643C308.98 100.334 306.18 99.9643 302.74 101.714C302.74 101.714 305.74 105.814 313.64 105.264" stroke="#263238" stroke-linecap="round" stroke-linejoin="round"/>
<path d="M317.13 106.884C315.138 107.309 313.189 107.918 311.31 108.704C311.31 108.704 312.45 114.034 324.96 111.484" stroke="#263238" stroke-linecap="round" stroke-linejoin="round"/>
<path d="M329.83 113.224L326.21 115.584C330.46 117.322 335.15 117.672 339.61 116.584" stroke="#263238" stroke-linecap="round" stroke-linejoin="round"/>
<path d="M343.21 116.674C343.21 116.674 339.63 119.194 339.75 119.544C339.87 119.894 346.92 122.544 353.3 119.074" fill="white"/>
<path d="M343.21 116.674C343.21 116.674 339.63 119.194 339.75 119.544C339.87 119.894 346.92 122.544 353.3 119.074" stroke="#263238" stroke-linecap="round" stroke-linejoin="round"/>
<path d="M321.21 100.674C319.02 101.674 312.53 102.614 312.1 103.564C312.1 103.564 314.22 109.504 325.1 106.154" fill="white"/>
<path d="M321.21 100.674C319.02 101.674 312.53 102.614 312.1 103.564C312.1 103.564 314.22 109.504 325.1 106.154" stroke="#263238" stroke-linecap="round" stroke-linejoin="round"/>
<path d="M328.5 107.604C326.845 108.268 325.293 109.164 323.89 110.264C323.89 110.264 328.11 116.124 338.36 111.064" fill="white"/>
<path d="M328.5 107.604C326.845 108.268 325.293 109.164 323.89 110.264C323.89 110.264 328.11 116.124 338.36 111.064" stroke="#263238" stroke-linecap="round" stroke-linejoin="round"/>
<path d="M339.66 111.054C338.757 111.459 337.947 112.044 337.278 112.773C336.609 113.502 336.096 114.36 335.77 115.294C335.77 115.294 340.84 118.574 349.53 115.164" fill="white"/>
<path d="M339.66 111.054C338.757 111.459 337.947 112.044 337.278 112.773C336.609 113.502 336.096 114.36 335.77 115.294C335.77 115.294 340.84 118.574 349.53 115.164" stroke="#263238" stroke-linecap="round" stroke-linejoin="round"/>
<path d="M330.21 102.704C330.21 102.704 324.03 104.024 323.86 105.164C323.86 105.164 328.86 109.434 336.77 107.284" fill="white"/>
<path d="M330.21 102.704C330.21 102.704 324.03 104.024 323.86 105.164C323.86 105.164 328.86 109.434 336.77 107.284" stroke="#263238" stroke-linecap="round" stroke-linejoin="round"/>
<path d="M337.7 106.734C336.74 107.221 335.905 107.922 335.26 108.784C335.26 108.784 337.65 112.324 343.81 110.394" fill="white"/>
<path d="M337.7 106.734C336.74 107.221 335.905 107.922 335.26 108.784C335.26 108.784 337.65 112.324 343.81 110.394" stroke="#263238" stroke-linecap="round" stroke-linejoin="round"/>
<path d="M380.21 101.994L375.37 103.664L373.05 98.8143C372.936 98.5688 372.734 98.375 372.484 98.2713C372.234 98.1676 371.954 98.1615 371.7 98.2543L355.21 103.884C354.942 103.983 354.714 104.166 354.558 104.406C354.403 104.646 354.33 104.929 354.35 105.214L354.78 110.704L327.29 120.174C326.649 120.406 326.118 120.869 325.8 121.472C325.482 122.075 325.4 122.774 325.57 123.434L336.67 165.284C336.748 165.595 336.89 165.887 337.087 166.14C337.284 166.393 337.531 166.603 337.813 166.755C338.095 166.908 338.406 167 338.726 167.025C339.046 167.051 339.367 167.01 339.67 166.904L392.56 148.684C393.2 148.45 393.731 147.988 394.05 147.386C394.37 146.784 394.455 146.085 394.29 145.424L383.21 103.624C383.132 103.313 382.99 103.022 382.793 102.768C382.597 102.514 382.35 102.304 382.068 102.151C381.786 101.998 381.475 101.905 381.155 101.878C380.836 101.851 380.514 101.891 380.21 101.994Z" fill="#FF725C"/>
<mask id="mask6_45_466" style="mask-type:luminance" maskUnits="userSpaceOnUse" x="325" y="98" width="70" height="70">
<path d="M380.21 101.994L375.37 103.664L373.05 98.8143C372.936 98.5688 372.734 98.375 372.484 98.2713C372.234 98.1676 371.954 98.1615 371.7 98.2543L355.21 103.884C354.942 103.983 354.714 104.166 354.558 104.406C354.403 104.646 354.33 104.929 354.35 105.214L354.78 110.704L327.29 120.174C326.649 120.406 326.118 120.869 325.8 121.472C325.482 122.075 325.4 122.774 325.57 123.434L336.67 165.284C336.748 165.595 336.89 165.887 337.087 166.14C337.284 166.393 337.531 166.603 337.813 166.755C338.095 166.908 338.406 167 338.726 167.025C339.046 167.051 339.367 167.01 339.67 166.904L392.56 148.684C393.2 148.45 393.731 147.988 394.05 147.386C394.37 146.784 394.455 146.085 394.29 145.424L383.21 103.624C383.132 103.313 382.99 103.022 382.793 102.768C382.597 102.514 382.35 102.304 382.068 102.151C381.786 101.998 381.475 101.905 381.155 101.878C380.836 101.851 380.514 101.891 380.21 101.994Z" fill="white"/>
</mask>
<g mask="url(#mask6_45_466)">
<path opacity="0.2" d="M380.21 101.994L375.37 103.664L373.05 98.8143C372.936 98.5688 372.734 98.375 372.484 98.2713C372.234 98.1676 371.954 98.1615 371.7 98.2543L355.21 103.884C354.942 103.983 354.714 104.166 354.558 104.406C354.403 104.646 354.33 104.929 354.35 105.214L354.78 110.704L327.29 120.174C326.649 120.406 326.118 120.869 325.8 121.472C325.482 122.075 325.4 122.774 325.57 123.434L336.67 165.284C336.748 165.595 336.89 165.887 337.087 166.14C337.284 166.393 337.531 166.603 337.813 166.755C338.095 166.908 338.406 167 338.726 167.025C339.046 167.051 339.367 167.01 339.67 166.904L392.56 148.684C393.2 148.45 393.731 147.988 394.05 147.386C394.37 146.784 394.455 146.085 394.29 145.424L383.21 103.624C383.132 103.313 382.99 103.022 382.793 102.768C382.597 102.514 382.35 102.304 382.068 102.151C381.786 101.998 381.475 101.905 381.155 101.878C380.836 101.851 380.514 101.891 380.21 101.994Z" fill="black"/>
</g>
<path d="M380.21 101.994L375.37 103.664L373.05 98.8143C372.936 98.5688 372.734 98.375 372.484 98.2713C372.234 98.1676 371.954 98.1615 371.7 98.2543L355.21 103.884C354.942 103.983 354.714 104.166 354.558 104.406C354.403 104.646 354.33 104.929 354.35 105.214L354.78 110.704L327.29 120.174C326.649 120.406 326.118 120.869 325.8 121.472C325.482 122.075 325.4 122.774 325.57 123.434L336.67 165.284C336.748 165.595 336.89 165.887 337.087 166.14C337.284 166.393 337.531 166.603 337.813 166.755C338.095 166.908 338.406 167 338.726 167.025C339.046 167.051 339.367 167.01 339.67 166.904L392.56 148.684C393.2 148.45 393.731 147.988 394.05 147.386C394.37 146.784 394.455 146.085 394.29 145.424L383.21 103.624C383.132 103.313 382.99 103.022 382.793 102.768C382.597 102.514 382.35 102.304 382.068 102.151C381.786 101.998 381.475 101.905 381.155 101.878C380.836 101.851 380.514 101.891 380.21 101.994Z" stroke="#263238" stroke-linecap="round" stroke-linejoin="round"/>
<path d="M392.29 148.774L339.4 166.994C338.74 167.201 338.028 167.167 337.39 166.898C336.753 166.629 336.232 166.142 335.92 165.524L335.66 164.994L323.21 139.164L317.04 126.404C316.892 126.121 316.808 125.808 316.793 125.489C316.778 125.17 316.833 124.851 316.954 124.555C317.075 124.259 317.259 123.993 317.493 123.775C317.727 123.557 318.006 123.393 318.31 123.294L371.21 105.084C371.869 104.872 372.582 104.903 373.22 105.171C373.858 105.439 374.38 105.926 374.69 106.544L393.6 145.674C393.747 145.96 393.83 146.274 393.842 146.595C393.855 146.916 393.796 147.235 393.671 147.531C393.546 147.827 393.358 148.092 393.119 148.307C392.88 148.521 392.597 148.681 392.29 148.774Z" fill="#FF725C"/>
<mask id="mask7_45_466" style="mask-type:luminance" maskUnits="userSpaceOnUse" x="316" y="104" width="78" height="64">
<path d="M392.29 148.774L339.4 166.994C338.74 167.201 338.028 167.167 337.39 166.898C336.753 166.629 336.232 166.142 335.92 165.524L335.66 164.994L323.21 139.164L317.04 126.404C316.892 126.121 316.808 125.808 316.793 125.489C316.778 125.17 316.833 124.851 316.954 124.555C317.075 124.259 317.259 123.993 317.493 123.775C317.727 123.557 318.006 123.393 318.31 123.294L371.21 105.084C371.869 104.872 372.582 104.903 373.22 105.171C373.858 105.439 374.38 105.926 374.69 106.544L393.6 145.674C393.747 145.96 393.83 146.274 393.842 146.595C393.855 146.916 393.796 147.235 393.671 147.531C393.546 147.827 393.358 148.092 393.119 148.307C392.88 148.521 392.597 148.681 392.29 148.774Z" fill="white"/>
</mask>
<g mask="url(#mask7_45_466)">
<path opacity="0.2" d="M354.51 139.514C354.225 142.98 352.792 146.25 350.437 148.808C348.082 151.366 344.94 153.065 341.51 153.634C340.409 157.797 338.42 161.672 335.68 164.994L323.21 139.164C333.74 140.984 345.86 142.004 354.51 139.514Z" fill="black"/>
</g>
<path d="M392.29 148.774L339.4 166.994C338.74 167.201 338.028 167.167 337.39 166.898C336.753 166.629 336.232 166.142 335.92 165.524L335.66 164.994L323.21 139.164L317.04 126.404C316.892 126.121 316.808 125.808 316.793 125.489C316.778 125.17 316.833 124.851 316.954 124.555C317.075 124.259 317.259 123.993 317.493 123.775C317.727 123.557 318.006 123.393 318.31 123.294L371.21 105.084C371.869 104.872 372.582 104.903 373.22 105.171C373.858 105.439 374.38 105.926 374.69 106.544L393.6 145.674C393.747 145.96 393.83 146.274 393.842 146.595C393.855 146.916 393.796 147.235 393.671 147.531C393.546 147.827 393.358 148.092 393.119 148.307C392.88 148.521 392.597 148.681 392.29 148.774Z" stroke="#263238" stroke-linecap="round" stroke-linejoin="round"/>
<path d="M354.51 139.504C354.51 139.504 340.79 142.504 327.7 130.724C314.61 118.944 272.7 138.464 272.7 138.464C272.7 138.464 274.7 143.464 281.86 142.464L277.93 146.334C277.93 146.334 281.28 151.694 293.46 146.994L291.33 151.744C291.33 151.744 297.95 154.224 310.33 147.954L308.94 151.954C308.94 151.954 316.46 154.124 325.77 147.664L325.66 150.964C325.66 150.964 333.66 148.874 337.61 145.304C337.61 145.334 348.39 147.804 354.51 139.504Z" fill="white"/>
<mask id="mask8_45_466" style="mask-type:luminance" maskUnits="userSpaceOnUse" x="272" y="126" width="83" height="27">
<path d="M354.51 139.504C354.51 139.504 340.79 142.504 327.7 130.724C314.61 118.944 272.7 138.464 272.7 138.464C272.7 138.464 274.7 143.464 281.86 142.464L277.93 146.334C277.93 146.334 281.28 151.694 293.46 146.994L291.33 151.744C291.33 151.744 297.95 154.224 310.33 147.954L308.94 151.954C308.94 151.954 316.46 154.124 325.77 147.664L325.66 150.964C325.66 150.964 333.66 148.874 337.61 145.304C337.61 145.334 348.39 147.804 354.51 139.504Z" fill="white"/>
</mask>
<g mask="url(#mask8_45_466)">
<path opacity="0.4" d="M354.51 139.514C348.39 147.804 337.61 145.334 337.61 145.334C333.68 148.904 325.66 150.994 325.66 150.994L325.77 147.684C316.46 154.164 308.94 151.984 308.94 151.984L310.33 147.984C297.95 154.264 291.33 151.774 291.33 151.774L293.46 147.034C281.28 151.724 277.93 146.364 277.93 146.364L281.87 142.494C274.67 143.494 272.69 138.494 272.69 138.494C272.69 138.494 276.69 142.054 283.69 139.494C283.69 139.494 283.5 142.874 290.98 140.954C290.98 140.954 298.04 141.494 301.84 138.014C301.84 138.014 304.38 140.554 309.56 138.224L308.56 141.224C308.56 141.224 310.18 144.174 316.3 140.364L316.37 143.784C316.37 143.784 319.37 145.564 327.32 140.784C327.32 140.784 325.24 143.434 326.41 144.024C327.58 144.614 330.41 144.124 332.69 143.114C332.71 143.114 344.26 147.214 354.51 139.514Z" fill="#FF725C"/>
</g>
<path d="M354.51 139.504C354.51 139.504 340.79 142.504 327.7 130.724C314.61 118.944 272.7 138.464 272.7 138.464C272.7 138.464 274.7 143.464 281.86 142.464L277.93 146.334C277.93 146.334 281.28 151.694 293.46 146.994L291.33 151.744C291.33 151.744 297.95 154.224 310.33 147.954L308.94 151.954C308.94 151.954 316.46 154.124 325.77 147.664L325.66 150.964C325.66 150.964 333.66 148.874 337.61 145.304C337.61 145.334 348.39 147.804 354.51 139.504Z" stroke="#263238" stroke-linecap="round" stroke-linejoin="round"/>
<path d="M290.21 135.604C286.21 138.204 283.43 138.734 280.74 141.504C280.74 141.504 284.93 144.414 292.2 141.364" fill="white"/>
<path d="M290.21 135.604C286.21 138.204 283.43 138.734 280.74 141.504C280.74 141.504 284.93 144.414 292.2 141.364" stroke="#263238" stroke-linecap="round" stroke-linejoin="round"/>
<path d="M296.03 141.744C294.281 142.784 292.634 143.986 291.11 145.334C291.11 145.334 293.89 150.024 304.92 143.584" stroke="#263238" stroke-linecap="round" stroke-linejoin="round"/>
<path d="M310.11 143.714L307.4 147.124C311.983 147.389 316.533 146.199 320.4 143.724" stroke="#263238" stroke-linecap="round" stroke-linejoin="round"/>
<path d="M323.84 142.704C323.84 142.704 321.26 146.234 321.49 146.534C321.72 146.834 329.24 147.074 334.17 141.734" fill="white"/>
<path d="M323.84 142.704C323.84 142.704 321.26 146.234 321.49 146.534C321.72 146.834 329.24 147.074 334.17 141.734" stroke="#263238" stroke-linecap="round" stroke-linejoin="round"/>
<path d="M297.93 134.584C296.16 136.184 290.33 139.204 290.23 140.244C290.23 140.244 294.15 145.194 303.4 138.524" fill="white"/>
<path d="M297.93 134.584C296.16 136.184 290.33 139.204 290.23 140.244C290.23 140.244 294.15 145.194 303.4 138.524" stroke="#263238" stroke-linecap="round" stroke-linejoin="round"/>
<path d="M307.04 138.814C305.688 139.976 304.506 141.322 303.53 142.814C303.53 142.814 309.41 147.014 317.53 138.934" fill="white"/>
<path d="M307.04 138.814C305.688 139.976 304.506 141.322 303.53 142.814C303.53 142.814 309.41 147.014 317.53 138.934" stroke="#263238" stroke-linecap="round" stroke-linejoin="round"/>
<path d="M318.72 138.504C317.994 139.178 317.414 139.993 317.015 140.9C316.616 141.806 316.407 142.784 316.4 143.774C316.4 143.774 322.24 145.254 329.4 139.234" fill="white"/>
<path d="M318.72 138.504C317.994 139.178 317.414 139.993 317.015 140.9C316.616 141.806 316.407 142.784 316.4 143.774C316.4 143.774 322.24 145.254 329.4 139.234" stroke="#263238" stroke-linecap="round" stroke-linejoin="round"/>
<path d="M307.09 133.624C307.09 133.624 301.66 136.864 301.87 137.994C301.87 137.994 307.94 140.444 314.77 135.864" fill="white"/>
<path d="M307.09 133.624C307.09 133.624 301.66 136.864 301.87 137.994C301.87 137.994 307.94 140.444 314.77 135.864" stroke="#263238" stroke-linecap="round" stroke-linejoin="round"/>
<path d="M315.48 135.044C314.724 135.809 314.159 136.741 313.83 137.764C313.83 137.764 317.23 140.354 322.44 136.554" fill="white"/>
<path d="M315.48 135.044C314.724 135.809 314.159 136.741 313.83 137.764C313.83 137.764 317.23 140.354 322.44 136.554" stroke="#263238" stroke-linecap="round" stroke-linejoin="round"/>
<path d="M247.53 281.814C248.72 281.414 249.98 280.954 251.29 280.444" stroke="#263238" stroke-width="2" stroke-linecap="round" stroke-linejoin="round"/>
<path d="M255.84 278.534C278.4 268.434 311.44 244.234 304.33 204.854C298.47 172.454 271.68 175.344 263.62 182.024C249.95 193.364 247.87 220.024 267.62 225.604C300.42 234.794 325.35 193.844 333.5 178.264" stroke="#263238" stroke-width="2" stroke-linecap="round" stroke-linejoin="round" stroke-dasharray="7.9 4.94"/>
<path d="M334.67 176.064C335.8 173.804 336.39 172.454 336.39 172.454" stroke="#263238" stroke-width="2" stroke-linecap="round" stroke-linejoin="round"/>
</svg>
