<svg width="53" height="100" viewBox="0 0 53 100" fill="none" xmlns="http://www.w3.org/2000/svg">
<path d="M22.3769 37.7903C22.4166 37.7903 22.4585 37.7903 22.4982 37.7903C22.4915 37.7693 22.4847 37.7476 22.4803 37.7251L34.9674 30.6386C45.7627 24.5123 49.5472 10.7946 43.4215 0L11.0131 18.3926L10.6012 18.6383C6.49252 21.9179 5.63347 37.7903 22.3769 37.7903Z" fill="url(#paint0_linear_45_533)"/>
<path d="M40.9327 65.5537C38.5226 62.2359 33.8732 59.2072 29.6454 60.6766L14.6964 69.3015C3.94531 75.5042 0.258246 89.2489 6.46101 100L41.5439 79.759L42.2412 79.3224C44.2251 74.983 43.7488 69.4303 40.9327 65.5537Z" fill="url(#paint1_linear_45_533)"/>
<path d="M51.2614 54.5218C48.5629 45.0109 40.4361 38.5887 30.5598 38.1588L22.5468 37.8098C22.5311 37.8098 22.5154 37.8083 22.5019 37.8075C22.4996 37.8023 22.4989 37.7963 22.4974 37.7903C22.4577 37.7903 22.4158 37.7903 22.3761 37.7903C5.63339 37.7903 6.49243 21.9172 10.5996 18.6383C2.1815 23.9026 -1.77444 33.8898 0.756249 43.4913C3.28619 53.092 11.6512 59.8325 21.5695 60.2639L29.5832 60.6122C29.5989 60.6129 29.6139 60.6137 29.6274 60.6144C29.6349 60.6339 29.6408 60.6549 29.6461 60.6758C33.8739 59.2064 38.5233 62.2351 40.9335 65.553C43.7487 69.4295 44.2251 74.9822 42.2426 79.3208C50.4203 73.7667 53.9613 64.0334 51.2614 54.5218Z" fill="url(#paint2_linear_45_533)"/>
<defs>
<linearGradient id="paint0_linear_45_533" x1="59.0371" y1="6.72591" x2="-3.22154" y2="35.78" gradientUnits="userSpaceOnUse">
<stop offset="0.0256" stop-color="#DC3636"/>
<stop offset="0.7785" stop-color="#FF725C"/>
</linearGradient>
<linearGradient id="paint1_linear_45_533" x1="49.6512" y1="64.5391" x2="12.1815" y2="83.274" gradientUnits="userSpaceOnUse">
<stop offset="0.0256" stop-color="#DC3636"/>
<stop offset="0.7785" stop-color="#FF725C"/>
</linearGradient>
<linearGradient id="paint2_linear_45_533" x1="0.147206" y1="30.2214" x2="52.2074" y2="67.943" gradientUnits="userSpaceOnUse">
<stop offset="0.0256" stop-color="#FF725C"/>
<stop offset="0.7785" stop-color="#FF725C"/>
</linearGradient>
</defs>
</svg>
