<svg width="268" height="305" viewBox="0 0 268 305" fill="none" xmlns="http://www.w3.org/2000/svg">
<path d="M23.3653 132.292H246.688C247.317 132.292 247.941 132.428 248.523 132.694C249.105 132.96 249.634 133.35 250.079 133.841C250.525 134.332 250.878 134.915 251.119 135.557C251.36 136.199 251.484 136.887 251.484 137.582V291.264C251.484 294.297 250.392 297.206 248.447 299.351C246.503 301.495 243.865 302.7 241.116 302.7H28.2186C25.4687 302.7 22.8315 301.495 20.8871 299.351C18.9426 297.206 17.8502 294.297 17.8502 291.264V138.382C17.8493 137.583 17.9913 136.791 18.268 136.052C18.5447 135.313 18.9508 134.642 19.463 134.076C19.9753 133.51 20.5836 133.061 21.2531 132.755C21.9227 132.449 22.6405 132.292 23.3653 132.292Z" fill="#263238"/>
<path d="M8.07971 290.095H261.205V294.231C261.205 295.646 260.952 297.046 260.462 298.352C259.971 299.659 259.252 300.846 258.345 301.846C257.439 302.846 256.362 303.639 255.178 304.18C253.993 304.722 252.724 305 251.441 305H17.8503C16.5682 305 15.2986 304.722 14.114 304.18C12.9294 303.639 11.8531 302.846 10.9465 301.846C10.0399 300.846 9.32069 299.659 8.83003 298.352C8.33936 297.046 8.08682 295.646 8.08682 294.231V290.095H8.07971Z" fill="#263238"/>
<path d="M244.56 139.065H24.1268V282.968H244.56V139.065Z" fill="#455A64"/>
<path d="M111.635 290.095L114.774 295.605H158.973L161.89 290.095H111.635Z" fill="#455A64"/>
<path d="M234.426 148.649H31.4779V282.913H234.426V148.649Z" fill="white"/>
<path d="M40.1384 155.266C40.1398 155.639 40.0407 156.004 39.8536 156.315C39.6665 156.626 39.3998 156.869 39.0874 157.012C38.7751 157.156 38.4311 157.194 38.0991 157.121C37.7671 157.049 37.4622 156.869 37.2229 156.605C36.9836 156.341 36.8208 156.005 36.7551 155.639C36.6895 155.273 36.7239 154.893 36.854 154.549C36.9842 154.204 37.2042 153.91 37.4861 153.704C37.7681 153.497 38.0993 153.388 38.4377 153.39C38.8882 153.392 39.3197 153.59 39.6382 153.941C39.9568 154.293 40.1366 154.769 40.1384 155.266Z" fill="#263238"/>
<path d="M47.0838 155.266C47.0838 155.637 46.9841 155.999 46.7972 156.308C46.6103 156.616 46.3447 156.857 46.0339 156.999C45.7231 157.141 45.3812 157.178 45.0512 157.105C44.7213 157.033 44.4183 156.854 44.1804 156.592C43.9425 156.33 43.7806 155.995 43.7149 155.632C43.6493 155.268 43.683 154.89 43.8117 154.548C43.9405 154.205 44.1584 153.912 44.4381 153.706C44.7178 153.5 45.0467 153.39 45.383 153.39C45.8335 153.392 46.2651 153.59 46.5836 153.941C46.9022 154.293 47.082 154.769 47.0838 155.266Z" fill="#263238"/>
<path d="M54.0365 155.266C54.0379 155.639 53.9388 156.004 53.7516 156.315C53.5645 156.626 53.2979 156.869 52.9855 157.012C52.6731 157.156 52.3291 157.194 51.9972 157.121C51.6652 157.049 51.3602 156.869 51.121 156.605C50.8817 156.341 50.7189 156.005 50.6532 155.639C50.5875 155.273 50.6219 154.893 50.7521 154.549C50.8822 154.204 51.1022 153.91 51.3842 153.704C51.6661 153.497 51.9973 153.388 52.3357 153.39C52.7862 153.392 53.2177 153.59 53.5363 153.941C53.8549 154.293 54.0346 154.769 54.0365 155.266Z" fill="#263238"/>
<path d="M234.426 163.499C234.426 163.617 188.989 163.711 132.956 163.711C76.9223 163.711 31.4779 163.617 31.4779 163.499C31.4779 163.381 76.901 163.287 132.956 163.287C189.01 163.287 234.426 163.366 234.426 163.499Z" fill="#263238"/>
<path d="M251.477 290.205H17.8502V291.029H251.477V290.205Z" fill="#455A64"/>
<path d="M99.2958 193.466L101.338 234.925C101.374 235.635 101.654 236.303 102.12 236.795C102.587 237.286 103.205 237.563 103.85 237.57L171.455 238.111C172.127 238.116 172.774 237.825 173.253 237.305C173.732 236.784 174.004 236.075 174.009 235.333L174.223 203.074C174.225 202.705 174.161 202.34 174.034 201.998C173.908 201.657 173.722 201.347 173.486 201.085C173.251 200.823 172.971 200.615 172.663 200.473C172.354 200.331 172.024 200.257 171.689 200.256L130.102 200.217C129.435 200.222 128.791 199.94 128.309 199.432L121.136 191.52C120.661 191.012 120.025 190.73 119.364 190.735L101.829 190.594C101.49 190.594 101.155 190.668 100.843 190.814C100.531 190.959 100.248 191.172 100.012 191.44C99.776 191.708 99.5909 192.025 99.4678 192.373C99.3448 192.721 99.2863 193.093 99.2958 193.466Z" fill="#FF725C"/>
<path d="M174.287 195.375L100.408 194.778L100.084 243.472L173.963 244.069L174.287 195.375Z" fill="#F5F5F5"/>
<path d="M94.5066 199.102L99.8082 249.924C99.8582 250.356 100.049 250.753 100.345 251.042C100.641 251.331 101.021 251.491 101.416 251.494L173.412 252.074C173.823 252.078 174.22 251.91 174.523 251.604C174.827 251.299 175.014 250.878 175.048 250.426L179.012 199.683C179.032 199.435 179.005 199.186 178.933 198.95C178.86 198.715 178.745 198.498 178.593 198.315C178.441 198.131 178.257 197.984 178.051 197.883C177.845 197.782 177.622 197.729 177.397 197.728L96.1362 197.069C95.903 197.067 95.6721 197.12 95.459 197.224C95.246 197.329 95.0558 197.483 94.9013 197.676C94.7468 197.868 94.6317 198.095 94.5636 198.341C94.4955 198.588 94.476 198.847 94.5066 199.102Z" fill="#FF725C"/>
<path d="M152.504 224.925C152.276 224.925 152.397 222.704 151.173 219.541C150.462 217.714 149.44 216.054 148.163 214.651C146.593 212.955 144.681 211.694 142.584 210.969C140.475 210.284 138.251 210.15 136.087 210.577C134.312 210.944 132.62 211.69 131.106 212.775C128.508 214.658 127.441 216.566 127.284 216.424C127.234 216.385 127.419 215.867 127.946 215.059C128.704 213.911 129.619 212.9 130.657 212.06C132.212 210.798 133.992 209.915 135.881 209.47C138.209 208.918 140.627 209.032 142.905 209.8C145.183 210.568 147.245 211.964 148.896 213.858C150.226 215.398 151.251 217.226 151.906 219.227C152.331 220.563 152.571 221.963 152.618 223.379C152.625 224.383 152.575 224.925 152.504 224.925Z" fill="#E0E0E0"/>
<path d="M145.922 219.533C146.107 219.266 149.159 221.479 152.732 224.478L152.931 224.642L152.07 224.933C153.493 220.373 154.916 216.809 155.194 216.919C155.472 217.029 154.561 220.765 153.123 225.333L152.874 226.118L152.262 225.608L152.063 225.435C148.483 222.452 145.737 219.8 145.922 219.533Z" fill="#E0E0E0"/>
<path d="M126.53 222.405C126.757 222.405 126.394 224.564 127.241 227.766C127.714 229.627 128.499 231.373 129.554 232.915C130.833 234.802 132.502 236.325 134.422 237.358C134.922 237.625 135.435 237.863 135.959 238.072C136.485 238.237 137.005 238.433 137.524 238.543C138.529 238.785 139.556 238.903 140.584 238.896C142.336 238.876 144.068 238.487 145.687 237.75C146.791 237.251 147.842 236.617 148.818 235.858C149.529 235.325 149.885 234.987 149.949 235.074C150.013 235.16 149.729 235.576 149.088 236.243C148.176 237.186 147.136 237.967 146.007 238.558C144.322 239.461 142.485 239.967 140.613 240.042C139.503 240.085 138.392 239.982 137.304 239.736C136.741 239.626 136.179 239.422 135.603 239.241C135.031 239.02 134.472 238.757 133.931 238.456C132.05 237.445 130.402 235.977 129.111 234.162C127.819 232.347 126.917 230.233 126.473 227.978C126.323 227.203 126.23 226.415 126.195 225.623C126.195 224.933 126.195 224.336 126.238 223.857C126.345 222.908 126.473 222.366 126.53 222.405Z" fill="#E0E0E0"/>
<path d="M132.465 228.645C132.244 228.889 129.469 226.291 126.245 222.813L126.067 222.625L126.957 222.452C125.007 226.785 123.235 230.129 122.964 229.987C122.694 229.846 124.025 226.251 125.96 221.911L126.295 221.126L126.843 221.715L127.028 221.911C130.244 225.396 132.678 228.402 132.465 228.645Z" fill="#E0E0E0"/>
<path d="M71.087 79.3971L67.6356 91.2883C66.9749 93.7111 65.7212 95.886 64.0125 97.574C62.3038 99.262 60.2063 100.398 57.9504 100.856L34.908 105.628L28.6385 105.409L34.908 96.8453L52.2289 90.3307C53.0591 90.1322 53.8239 89.6862 54.4401 89.0412C55.0562 88.3963 55.5 87.5771 55.723 86.6731L62.6258 70.1196L71.3574 76.0299L71.087 79.3971Z" fill="#B78876"/>
<path d="M105.067 67.7415C104.747 69.586 99.8723 82.9999 99.8723 82.9999C99.8723 82.9999 80.9003 75.9358 81.1494 74.8683C81.3558 74.0285 84.9993 60.5911 89.3687 53.1503C90.1914 51.7172 91.3065 50.516 92.6248 49.6425C93.9431 48.7689 95.4282 48.2473 96.9617 48.1191C97.8228 48.0563 99.673 49.0374 100.178 49.3514C104.17 51.8238 107.565 53.4878 105.067 67.7415Z" fill="#455A64"/>
<path d="M78.2958 41.738C69.7136 42.7976 68.333 49.2259 64.3195 55.56L58.5339 67.3335L69.1727 74.531L68.8027 92.5836L63.7359 109.851L103.765 105.699L100.064 90.9117L105.402 67.6945C105.807 64.5549 106.91 58.6447 106.163 55.5365C103.829 45.8038 94.6632 42.9782 88.3724 41.1572C87.0701 40.7805 80.7936 40.804 79.7048 41.1023" fill="#FF725C"/>
<path d="M104.718 67.5532C104.685 67.6347 104.656 67.7186 104.633 67.8044C104.576 67.9849 104.505 68.2361 104.412 68.55L103.587 71.3992C102.875 73.8795 101.886 77.4194 100.676 81.7127L100.811 81.6421L83.0209 74.3897L82.5797 74.1856L82.6508 74.3504C83.7237 69.9416 85.1085 65.6324 86.7925 61.4624C88.1109 58.0246 89.8989 54.8297 92.0941 51.9887C92.9513 50.9196 93.9637 50.0151 95.09 49.3123C95.9356 48.7755 96.884 48.4663 97.8582 48.4096C98.0454 48.3942 98.2333 48.3942 98.4204 48.4096L98.9186 48.4646C99.068 48.4646 99.2103 48.4646 99.3384 48.5195L99.68 48.6215L100.15 48.755H100.313C100.265 48.7231 100.212 48.7018 100.157 48.6922L99.6942 48.5274L99.3527 48.4175C99.2118 48.384 99.0692 48.3604 98.9257 48.3468L98.4275 48.2762C98.2357 48.2605 98.043 48.2605 97.8511 48.2762C96.8524 48.3151 95.8765 48.6165 95.0046 49.1553C93.8563 49.8528 92.822 50.7575 91.9446 51.8318C89.718 54.671 87.9054 57.8751 86.5719 61.329C84.8497 65.5128 83.4384 69.844 82.3519 74.2798V74.3975L82.4516 74.4446L82.8999 74.6487C89.5749 77.4037 95.7661 79.8525 100.74 81.854L100.84 81.8933V81.7834L103.686 71.4306C104.014 70.2062 104.277 69.2408 104.455 68.5657C104.54 68.2518 104.604 67.9902 104.647 67.7808C104.677 67.7074 104.701 67.6312 104.718 67.5532Z" fill="#263238"/>
<path d="M83.3057 71.6663C83.3057 71.7369 87.3975 73.3067 92.4999 75.1669C97.6022 77.0271 101.751 78.4792 101.751 78.4007C101.751 78.3222 97.6592 76.7603 92.5639 74.9001C87.4687 73.0399 83.327 71.6035 83.3057 71.6663Z" fill="#263238"/>
<path d="M81.1494 109.318L82.6865 68.4951H69.6282L65.9491 111.507L81.1494 109.318Z" fill="#263238"/>
<g opacity="0.3">
<path d="M99.8082 81.391C99.0475 85.2338 98.0586 89.0173 96.8479 92.717C96.0769 95.0665 94.9876 97.2736 93.6171 99.2631C91.581 101.847 88.8685 103.671 85.8533 104.483C82.8511 105.283 79.739 105.45 76.6804 104.977L91.9234 95.4799L95.9797 79.9468L99.8082 81.391Z" fill="black"/>
</g>
<path d="M98.0576 80.5198L94.3002 94.0828C93.6494 96.5242 92.4011 98.7205 90.6925 100.431C88.9839 102.141 86.8811 103.298 84.615 103.776L61.5654 108.603L55.296 108.376L61.5654 99.7419L78.8935 93.1488C79.7278 92.9409 80.4945 92.485 81.1105 91.8305C81.7265 91.176 82.1682 90.348 82.3876 89.4362L85.597 75.7869L98.0576 80.5198Z" fill="#B78876"/>
<path d="M68.8312 92.1126C68.9025 91.6906 68.9406 91.2625 68.9451 90.8333C68.9807 89.9306 69.0305 88.7533 69.0945 87.3248C69.2084 84.3657 69.3436 80.2607 69.4717 75.7633C69.5998 71.2658 69.6852 67.1294 69.735 64.1939C69.735 62.7654 69.735 61.5881 69.735 60.6854C69.7639 60.2569 69.7639 59.8267 69.735 59.3982C69.6642 59.8202 69.6285 60.2484 69.6282 60.6776C69.5855 61.5802 69.5357 62.7576 69.4717 64.1782C69.3578 67.1373 69.2226 71.2423 69.0945 75.7476C68.9664 80.2529 68.881 84.3814 68.8312 87.3169C68.8312 88.7454 68.8312 89.9306 68.7956 90.8254C68.7786 91.2549 68.7905 91.6851 68.8312 92.1126Z" fill="#263238"/>
<path d="M60.0924 64.2019C61.5222 65.3607 63.0225 66.4097 64.5828 67.3415C66.0821 68.3932 67.6468 69.327 69.2653 70.1357C67.8355 68.9769 66.3351 67.9279 64.7749 66.9961C63.2756 65.9444 61.7109 65.0107 60.0924 64.2019Z" fill="#263238"/>
<path d="M7.35363 197.728L7.21131 189.958L20.7322 184.667L21.2873 195.483L20.5329 195.884C17.1385 197.65 3.17639 204.612 0.571842 204.871C-2.33159 205.169 7.35363 197.728 7.35363 197.728Z" fill="#FF725C"/>
<g opacity="0.4">
<path d="M2.68556 201.567C2.68556 201.567 -0.616383 204.439 0.102358 204.91C0.8211 205.381 15.1675 198.937 21.2732 195.491L21.138 195.185L4.45751 202.862C4.45751 202.862 3.43277 201.276 2.68556 201.567Z" fill="white"/>
</g>
<path d="M21.3369 195.083L21.1305 195.209L20.5257 195.523L18.3054 196.661C16.4053 197.603 13.7652 198.866 10.8191 200.193C7.87296 201.519 5.18301 202.657 3.22604 203.45L0.89903 204.368L0.265684 204.604C0.192658 204.637 0.116189 204.661 0.0379639 204.674L0.251448 204.572L0.877682 204.298L3.18335 203.324C5.12608 202.5 7.80891 201.346 10.755 200.028C13.7012 198.709 16.3484 197.453 18.2627 196.543L20.5257 195.46L21.1448 195.169C21.2057 195.133 21.2702 195.104 21.3369 195.083Z" fill="#263238"/>
<path d="M4.54292 203.065C4.28512 202.694 3.99164 202.355 3.66762 202.053C3.31394 201.8 2.93408 201.594 2.53613 201.441C2.98501 201.426 3.42322 201.593 3.76725 201.912C4.14728 202.176 4.42395 202.587 4.54292 203.065Z" fill="#263238"/>
<path d="M7.48193 199.329C7.48193 199.369 7.19017 199.212 6.89129 198.976C6.5924 198.741 6.36469 198.513 6.39315 198.474C6.42162 198.435 6.68491 198.592 6.9838 198.827C7.28268 199.062 7.5104 199.282 7.48193 199.329Z" fill="#263238"/>
<path d="M8.28602 198.278C8.28602 198.325 8.0156 198.278 7.71671 198.152C7.41783 198.027 7.19723 197.901 7.21147 197.854C7.2257 197.807 7.48188 197.854 7.77365 197.979C8.06541 198.105 8.30025 198.231 8.28602 198.278Z" fill="#263238"/>
<path d="M8.44255 196.677C8.44255 196.724 8.18637 196.896 7.82344 197.069C7.60491 197.201 7.36094 197.274 7.11182 197.281C7.29594 197.109 7.50864 196.978 7.73804 196.896C7.95491 196.766 8.19572 196.69 8.44255 196.677Z" fill="#263238"/>
<path d="M8.34293 195.679C8.34293 195.679 8.11521 196.017 7.70247 196.245C7.46724 196.402 7.19464 196.479 6.91968 196.464C6.91968 196.409 7.24703 196.292 7.6313 196.072C7.85865 195.92 8.09661 195.789 8.34293 195.679Z" fill="#263238"/>
<path d="M6.61366 198.309C6.3623 198.474 6.08834 198.593 5.80241 198.662C5.49508 198.755 5.1806 198.815 4.86306 198.843C4.67152 198.866 4.47819 198.866 4.28665 198.843C4.16946 198.822 4.06309 198.755 3.98776 198.654C3.9516 198.592 3.93237 198.52 3.93237 198.446C3.93237 198.373 3.9516 198.3 3.98776 198.238C4.23459 197.934 4.56993 197.733 4.93615 197.672C5.30237 197.61 5.6766 197.691 5.99455 197.901C6.18387 198.019 6.34871 198.179 6.47845 198.372C6.5299 198.44 6.56642 198.521 6.5852 198.607C6.40354 198.367 6.18418 198.165 5.93762 198.011C5.66792 197.858 5.36437 197.792 5.06232 197.822C4.70293 197.851 4.36813 198.034 4.13009 198.333C4.03758 198.49 4.13009 198.639 4.32935 198.662C4.50681 198.682 4.6856 198.682 4.86306 198.662C5.17138 198.64 5.47804 198.595 5.78106 198.529C6.29343 198.419 6.59943 198.278 6.61366 198.309Z" fill="#263238"/>
<path d="M6.42162 198.45C6.25288 198.306 6.13669 198.1 6.09427 197.869C6.03401 197.612 6.03401 197.342 6.09427 197.085C6.10744 196.916 6.16123 196.754 6.25006 196.616C6.33889 196.478 6.45954 196.369 6.59953 196.3C6.68775 196.285 6.77768 196.308 6.85148 196.363C6.92529 196.418 6.97759 196.502 6.99803 196.598C7.02996 196.75 7.02996 196.909 6.99803 197.061C6.96573 197.304 6.90596 197.541 6.82013 197.767C6.75433 197.986 6.63926 198.184 6.48566 198.34C6.48566 198.34 6.5924 198.105 6.70626 197.728C6.77718 197.505 6.82493 197.273 6.84859 197.037C6.89129 196.802 6.84859 196.425 6.62799 196.48C6.40738 196.535 6.29352 196.865 6.22948 197.092C6.18729 197.318 6.18729 197.55 6.22948 197.775C6.27026 198.008 6.33472 198.234 6.42162 198.45Z" fill="#263238"/>
<path d="M19.6792 191.402C19.6792 191.402 19.302 191.527 18.7612 191.857C18.0588 192.286 17.4757 192.919 17.0746 193.686C16.6877 194.463 16.503 195.343 16.5409 196.229C16.5409 196.912 16.6975 197.32 16.669 197.328C16.6405 197.336 16.6192 197.234 16.5623 197.045C16.4945 196.789 16.4492 196.526 16.427 196.26C16.3485 195.345 16.5251 194.424 16.9332 193.622C17.3414 192.82 17.9617 192.174 18.7114 191.771C18.9382 191.644 19.1768 191.544 19.423 191.473C19.5046 191.434 19.591 191.411 19.6792 191.402Z" fill="#263238"/>
<path d="M16.2491 186.261C17.0655 188.1 17.7785 189.992 18.384 191.928C17.9507 191.018 17.5634 190.083 17.2241 189.126C16.8476 188.193 16.5221 187.236 16.2491 186.261Z" fill="#263238"/>
<path d="M14.5982 196.771C14.0534 197.197 13.46 197.543 12.8334 197.799C12.2294 198.111 11.5905 198.332 10.9333 198.458C10.9333 198.411 11.766 198.097 12.7693 197.634C13.7727 197.171 14.5698 196.723 14.5982 196.771Z" fill="#263238"/>
<path d="M17.0595 195.679C17.102 195.679 17.0595 195.899 17.0595 196.143C17.0595 196.386 17.0595 196.598 17.0595 196.613C17.0595 196.629 16.9181 196.425 16.9252 196.143C16.9323 195.86 17.0171 195.679 17.0595 195.679Z" fill="#263238"/>
<path d="M17.5159 193.969C17.5586 193.969 17.5159 194.173 17.4519 194.377C17.3878 194.581 17.2811 194.73 17.2384 194.706C17.1957 194.683 17.2384 194.51 17.3024 194.306C17.3665 194.102 17.4732 193.953 17.5159 193.969Z" fill="#263238"/>
<path d="M18.633 192.791C18.633 192.846 18.4693 192.917 18.3128 193.074C18.1562 193.231 18.0637 193.396 18.0139 193.38C17.9641 193.364 18.0139 193.121 18.2061 192.933C18.3982 192.744 18.6259 192.744 18.633 192.791Z" fill="#263238"/>
<path d="M19.4735 192.092C19.5092 192.132 19.4735 192.233 19.3737 192.327C19.2739 192.421 19.1883 192.46 19.1527 192.421C19.117 192.382 19.1526 192.28 19.2596 192.194C19.3666 192.108 19.445 192.053 19.4735 192.092Z" fill="#263238"/>
<path d="M61.5654 110.526L21.9065 111.311C18.8402 111.375 15.8977 112.657 13.6202 114.923C11.3427 117.188 9.88318 120.284 9.51001 123.642L1.68213 194.126H23.2159L29.7913 133.241H61.0032L61.5654 110.526Z" fill="#263238"/>
<path d="M1.93835 189.675C1.93835 189.785 6.65643 189.91 12.4775 189.95C18.2986 189.989 22.9171 189.832 23.0167 189.816C23.6856 189.746 18.2986 189.581 12.4775 189.542C6.65643 189.502 1.93835 189.565 1.93835 189.675Z" fill="#455A64"/>
<path d="M98.7906 133.273C114.617 127.496 103.772 104.404 103.772 104.404L34.5877 111.578C33.2675 111.569 31.9586 111.847 30.7364 112.398C29.5142 112.949 28.4029 113.761 27.4663 114.787C26.5298 115.814 25.7865 117.034 25.2794 118.379C24.7722 119.723 24.5111 121.165 24.5111 122.621C24.5092 124.072 24.7667 125.509 25.2687 126.849C25.7706 128.19 26.5073 129.409 27.4366 130.435C28.3659 131.461 29.4695 132.276 30.6844 132.831C31.8992 133.387 33.2014 133.673 34.5166 133.673L98.7906 133.288" fill="#263238"/>
<path d="M77.6411 108.784L77.4419 107.135L59.7366 106.366L51.0477 82.1992L17.9429 84.6795L29.1154 111.507L77.6411 108.784Z" fill="#455A64"/>
<path d="M38.0179 97.8737C38.2008 98.1946 38.4659 98.4484 38.7797 98.603C39.0935 98.7576 39.4418 98.806 39.7806 98.7421C40.1193 98.6782 40.4333 98.5048 40.6826 98.244C40.932 97.9832 41.1056 97.6466 41.1814 97.2769C41.2572 96.9071 41.2319 96.5209 41.1086 96.1671C40.9852 95.8133 40.7695 95.5078 40.4887 95.2893C40.2078 95.0709 39.8745 94.9492 39.531 94.9398C39.1874 94.9304 38.849 95.0336 38.5587 95.2365C38.1705 95.5077 37.8956 95.9375 37.7943 96.4318C37.6929 96.9262 37.7733 97.4447 38.0179 97.8737Z" fill="white"/>
<path d="M83.3768 108.305C83.3107 108.294 83.2435 108.294 83.1775 108.305H82.594L80.3666 108.407L72.1687 108.831L45.1269 110.401C43.8104 110.463 42.501 110.589 41.2201 110.605C39.9391 110.62 38.6582 110.683 37.4129 110.762C36.1675 110.84 34.9435 110.934 33.748 111.068C32.56 111.164 31.3881 111.427 30.261 111.853C29.1846 112.272 28.1985 112.932 27.3647 113.791C26.5866 114.615 25.9859 115.621 25.607 116.735C25.26 117.763 25.0212 118.833 24.8954 119.921C24.7664 120.92 24.7022 121.927 24.7032 122.935C24.6798 124.677 24.9953 126.403 25.6283 127.998C26.1077 129.199 26.8395 130.256 27.7632 131.083C28.3475 131.606 29.0163 132.003 29.7344 132.252C30.2326 132.409 30.2397 132.362 29.7344 132.174C29.0389 131.898 28.3932 131.489 27.8273 130.965C26.9339 130.136 26.2254 129.091 25.7564 127.912C25.158 126.335 24.8694 124.636 24.9096 122.928C24.9165 121.934 24.9879 120.943 25.1231 119.961C25.2486 118.887 25.4874 117.833 25.8347 116.821C26.2086 115.759 26.7891 114.799 27.5355 114.011C28.3451 113.192 29.2964 112.562 30.3322 112.159C31.4334 111.76 32.5768 111.52 33.7338 111.445C34.9293 111.319 36.1462 111.225 37.3915 111.146C38.6369 111.068 39.8964 111.013 41.1845 110.997C42.4725 110.981 43.7748 110.856 45.0984 110.793L72.1402 109.129L80.3381 108.58L82.5655 108.407L83.1419 108.36L83.3768 108.305Z" fill="#455A64"/>
<path d="M80.7081 68.5265C80.7081 68.5265 82.473 49.689 97.7302 44.7834C98.8629 45.2574 99.9001 45.9721 100.783 46.887C100.783 46.887 86.4082 46.2277 82.6864 68.5265H80.7081Z" fill="#263238"/>
<path d="M69.749 69.437C69.749 69.437 66.2407 52.0202 79.0002 41.5261C80.2217 41.524 81.4314 41.7909 82.5583 42.311C82.5583 42.311 68.1194 47.2166 71.6775 69.5391L69.749 69.437Z" fill="#263238"/>
<path d="M95.873 7.76773C96.2056 6.74408 96.7902 5.84283 97.5611 5.16498C98.3321 4.48713 99.2589 4.05946 100.238 3.92989C101.217 3.80033 102.209 3.974 103.103 4.43143C103.998 4.88885 104.759 5.61197 105.302 6.51975C105.91 7.72823 106.388 9.01113 106.725 10.3422C107.076 11.6732 107.846 12.8226 108.896 13.5838C110.184 14.3687 111.87 14.0861 113.044 15.0594C114.347 16.1347 114.382 18.5051 113.286 19.8394C112.705 20.4713 111.967 20.8988 111.165 21.0679C110.363 21.2369 109.534 21.1399 108.782 20.7892C109.155 21.8389 109.365 22.9509 109.401 24.0779C109.416 24.6426 109.306 25.2028 109.079 25.7093C108.851 26.2157 108.515 26.6528 108.099 26.982C107.64 27.2541 107.126 27.392 106.605 27.3823C106.084 27.3727 105.574 27.216 105.124 26.927C104.233 26.3307 103.47 25.5272 102.89 24.5723C102.741 25.3654 102.487 26.1298 102.135 26.8407C101.959 27.1963 101.715 27.5059 101.42 27.7483C101.125 27.9907 100.787 28.1604 100.427 28.2457C99.9785 28.2879 99.5278 28.194 99.1239 27.974C98.72 27.7541 98.3783 27.4164 98.1359 26.9977C97.6596 26.1583 97.3717 25.2058 97.2962 24.2191C97.0321 21.7777 97.1768 19.3034 97.7232 16.9196C98.0576 15.3969 98.5344 13.835 98.2711 12.2887C98.0078 10.7425 96.6273 9.29828 95.2681 9.76137" fill="#263238"/>
<path d="M113.72 18.2933C113.72 18.2933 113.649 18.3482 113.493 18.411C113.261 18.5073 113.023 18.5834 112.781 18.6386C111.895 18.8263 110.984 18.8263 110.098 18.6386C108.76 18.3649 107.524 17.6666 106.54 16.6293C105.963 16.0203 105.482 15.3094 105.117 14.5258C104.746 13.6823 104.48 12.7872 104.327 11.865C104.175 10.9709 103.951 10.0935 103.658 9.24345C103.379 8.47551 102.911 7.80924 102.306 7.32045C101.788 6.90822 101.196 6.62461 100.569 6.48911C99.9428 6.35361 99.2971 6.36946 98.6767 6.53555C97.8303 6.77549 97.0506 7.24188 96.4066 7.89343C95.944 8.34866 95.7448 8.67832 95.6949 8.67832C95.7252 8.58997 95.7685 8.50776 95.823 8.43501C95.9588 8.20997 96.1137 7.99971 96.2856 7.80709C96.9202 7.08753 97.7154 6.56504 98.5913 6.29224C99.2497 6.09123 99.9404 6.05386 100.613 6.1828C101.287 6.31174 101.925 6.60379 102.484 7.03789C103.149 7.55786 103.665 8.27689 103.971 9.11002C104.286 9.98037 104.524 10.8819 104.683 11.8022C104.842 12.6915 105.105 13.5542 105.466 14.3688C105.807 15.1184 106.259 15.8001 106.803 16.386C107.725 17.3882 108.889 18.0774 110.155 18.3718C111.014 18.5741 111.898 18.606 112.767 18.466C113.379 18.3875 113.713 18.2933 113.72 18.2933Z" fill="#455A64"/>
<path d="M101.779 27.5236C101.779 27.5236 101.708 27.5236 101.602 27.3981C101.438 27.2549 101.292 27.0886 101.167 26.9036C100.706 26.2166 100.427 25.4011 100.363 24.5489C100.258 23.2959 100.386 22.0325 100.74 20.8363C101.191 19.4214 101.553 17.9738 101.822 16.5037C102.037 15.0452 101.785 13.5497 101.111 12.2731C100.548 11.2259 99.7157 10.3871 98.7195 9.86349C98.0504 9.50154 97.3268 9.27806 96.5846 9.20418C96.3108 9.20382 96.0374 9.18284 95.7662 9.14138C96.0362 9.05387 96.3184 9.02195 96.5988 9.0472C97.3682 9.06156 98.1265 9.25129 98.8262 9.60447C99.8826 10.1217 100.771 10.9813 101.374 12.069C102.118 13.4095 102.405 14.998 102.185 16.5508C101.919 18.0437 101.545 19.5109 101.068 20.9384C100.713 22.0862 100.561 23.2985 100.62 24.5096C100.655 25.3266 100.883 26.1192 101.281 26.8094C101.566 27.2882 101.808 27.5001 101.779 27.5236Z" fill="#455A64"/>
<path d="M71.5424 18.0656C67.9843 9.00788 72.8589 3.49006 76.0327 1.51213C77.9185 0.334784 80.1602 0.0914664 82.3306 0.0286747C84.4822 -0.083355 86.6375 0.133233 88.7352 0.672289C90.8326 1.22239 92.7466 2.41398 94.2575 4.11013C96.8549 7.17907 97.4455 11.7158 97.2036 15.8836C96.9307 20.8479 95.6386 25.6789 93.4249 30.0117C93.1765 30.5798 92.7928 31.0628 92.3147 31.4088C92.0695 31.5763 91.7767 31.6377 91.4929 31.5812C91.2091 31.5247 90.9542 31.3542 90.7776 31.1027" fill="#263238"/>
<path d="M90.6922 7.49282C91.269 7.55959 91.8019 7.8629 92.1855 8.34263C92.569 8.82236 92.7752 9.44351 92.7631 10.083L91.4466 44.6184C91.3968 48.6998 84.6932 53.5191 80.7366 53.4249C76.7444 53.3307 77.5841 48.6449 77.8901 44.7911C78.0626 41.8362 78.0293 38.871 77.7905 35.9217C77.7905 35.9217 72.7095 34.9563 71.6776 27.7117C71.1581 24.1012 71.3218 18.1753 71.5993 13.3324C71.6584 12.299 71.9065 11.2894 72.3286 10.3645C72.7507 9.43956 73.3381 8.61837 74.0554 7.95036C74.7728 7.28235 75.6052 6.78132 76.5027 6.47742C77.4002 6.17353 78.3442 6.07305 79.2778 6.18204L90.6922 7.49282Z" fill="#B78876"/>
<path d="M73.3002 18.0106C73.2963 18.2536 73.3792 18.4885 73.531 18.6647C73.6827 18.8409 73.8912 18.9443 74.1114 18.9525C74.2192 18.9621 74.3275 18.9479 74.4302 18.9106C74.5329 18.8734 74.6278 18.8139 74.7093 18.7357C74.7908 18.6575 74.8574 18.5621 74.905 18.4551C74.9527 18.3481 74.9804 18.2316 74.9867 18.1126C74.9887 17.8689 74.9042 17.634 74.7513 17.458C74.5984 17.282 74.3892 17.179 74.1684 17.1708C74.0612 17.1623 73.9536 17.1773 73.8517 17.215C73.7499 17.2527 73.6559 17.3124 73.5751 17.3905C73.4943 17.4687 73.4284 17.5637 73.3812 17.6702C73.3341 17.7766 73.3065 17.8923 73.3002 18.0106Z" fill="#263238"/>
<path d="M72.7522 16.3936C72.859 16.5113 73.4994 15.9933 74.4103 15.9933C75.3212 15.9933 75.983 16.4956 76.0826 16.3779C76.1823 16.2602 76.0257 16.1032 75.7339 15.8677C75.3392 15.5661 74.8692 15.407 74.389 15.4125C73.9159 15.4107 73.4546 15.5757 73.0725 15.8834C72.7949 16.1189 72.7024 16.3387 72.7522 16.3936Z" fill="#263238"/>
<path d="M82.1884 18.0106C82.1845 18.2536 82.2674 18.4885 82.4191 18.6647C82.5709 18.8409 82.7794 18.9443 82.9996 18.9525C83.1073 18.9621 83.2157 18.9479 83.3184 18.9106C83.421 18.8734 83.5159 18.8139 83.5975 18.7357C83.679 18.6575 83.7456 18.5621 83.7932 18.4551C83.8409 18.3481 83.8686 18.2316 83.8749 18.1126C83.8769 17.8689 83.7924 17.634 83.6395 17.458C83.4866 17.282 83.2774 17.179 83.0565 17.1708C82.9494 17.1623 82.8418 17.1773 82.7399 17.215C82.6381 17.2527 82.5441 17.3124 82.4633 17.3905C82.3825 17.4687 82.3166 17.5637 82.2694 17.6702C82.2222 17.7766 82.1947 17.8923 82.1884 18.0106Z" fill="#263238"/>
<path d="M81.6902 16.5822C81.797 16.7 82.4374 16.1819 83.3412 16.1819C84.245 16.1819 84.921 16.6843 85.0206 16.5587C85.1203 16.4331 84.9637 16.2918 84.6719 16.0564C84.2782 15.7523 83.8075 15.593 83.327 15.6011C82.8538 15.5994 82.3926 15.7644 82.0105 16.0721C81.7329 16.3075 81.6404 16.5273 81.6902 16.5822Z" fill="#263238"/>
<path d="M78.3882 24.0151C77.9101 23.851 77.4152 23.7535 76.9152 23.7247C76.6803 23.7247 76.4597 23.6462 76.4242 23.4657C76.398 23.1923 76.453 22.9169 76.5807 22.6808C76.7942 22.0633 77.0314 21.4119 77.2923 20.7264C77.9124 19.0849 78.4144 17.3921 78.7939 15.6638C78.0326 17.2507 77.3923 18.9047 76.8796 20.6087C76.6519 21.2994 76.4313 21.9508 76.2249 22.5709C76.0752 22.8784 76.0322 23.2356 76.1039 23.5756C76.1374 23.6654 76.1886 23.7458 76.2538 23.811C76.3191 23.8762 76.3967 23.9245 76.4811 23.9523C76.6114 23.9897 76.745 24.0108 76.8796 24.0151C77.3804 24.0861 77.8874 24.0861 78.3882 24.0151Z" fill="#263238"/>
<path d="M77.762 35.8827C80.8767 35.9413 83.9446 35.0417 86.6217 33.2847C86.6217 33.2847 84.4868 38.2766 77.8829 37.5937L77.762 35.8827Z" fill="#AA6550"/>
<path d="M78.7939 26.4325C78.9682 26.1925 79.1945 26.0048 79.452 25.8868C79.7095 25.7688 79.9898 25.7243 80.267 25.7575C80.4673 25.7785 80.6618 25.8435 80.839 25.9486C81.0162 26.0537 81.1725 26.1969 81.2988 26.3697C81.4179 26.5392 81.4883 26.7442 81.501 26.9581C81.5137 27.1721 81.468 27.3854 81.37 27.5706C81.222 27.7488 81.0297 27.8751 80.8171 27.9337C80.6046 27.9923 80.3811 27.9807 80.1744 27.9003C79.744 27.7271 79.3495 27.4602 79.0145 27.1154C78.912 27.0389 78.8248 26.9401 78.7583 26.825C78.7234 26.7697 78.7047 26.7039 78.7047 26.6366C78.7047 26.5692 78.7234 26.5035 78.7583 26.4482" fill="#AA6550"/>
<path d="M81.064 24.7058C80.9145 24.7058 80.9145 25.789 80.0677 26.5582C79.2208 27.3274 78.1747 27.2096 78.1676 27.3431C78.1605 27.4765 78.4025 27.555 78.8437 27.5628C79.4234 27.5779 79.9889 27.3635 80.4377 26.9585C80.8707 26.5666 81.1467 26.0029 81.2063 25.3887C81.2419 24.9727 81.1351 24.7058 81.064 24.7058Z" fill="#263238"/>
<path d="M81.2774 14.8238C81.3699 15.0985 82.2808 14.965 83.3411 15.1063C84.4014 15.2476 85.2767 15.5694 85.4119 15.3261C85.476 15.2084 85.3265 14.9493 84.9778 14.6903C84.5193 14.3574 83.9942 14.1527 83.4478 14.0938C82.9017 14.0215 82.3479 14.0941 81.8324 14.3057C81.4411 14.4784 81.2418 14.6903 81.2774 14.8238Z" fill="#263238"/>
<path d="M73.1009 13.4896C73.2646 13.7172 73.8908 13.4896 74.638 13.4896C75.3852 13.4896 76.0613 13.6387 76.1752 13.4032C76.289 13.1678 76.1396 13.0579 75.862 12.8381C75.4893 12.5749 75.0516 12.446 74.6096 12.4692C74.1687 12.4779 73.7412 12.6369 73.3856 12.9245C73.1009 13.1442 73.0155 13.3797 73.1009 13.4896Z" fill="#263238"/>
<path d="M71.585 13.3091C72.7379 7.11624 74.3034 9.56511 76.0754 6.60605C78.6372 9.47092 84.5366 12.7675 88.1374 13.4189C88.5103 13.4469 88.8715 13.5734 89.1906 13.7878C89.4287 14.0653 89.6064 14.3989 89.7099 14.7634C89.8135 15.1279 89.8404 15.5137 89.7884 15.8914C89.7183 18.0421 89.8783 20.1945 90.2652 22.304C90.6706 24.4317 91.6653 26.368 93.1117 27.8453C95.2466 22.7984 95.5028 16.9196 94.5349 11.4332C94.1364 9.19621 93.4675 6.84937 91.845 5.42086C90.6233 4.48273 89.2104 3.89224 87.7318 3.70194C84.131 2.97199 80.3238 2.79146 76.9009 4.21212C73.4779 5.63278 70.8094 7.35171 70.3468 11.3782" fill="#263238"/>
<path d="M96.4849 8.96089C96.2628 9.13539 96.0242 9.28277 95.7733 9.40042C95.4806 9.56446 95.1759 9.70099 94.8624 9.80857L94.2789 10.0283L93.61 10.2167C92.5035 10.5086 91.3737 10.6795 90.2369 10.7269C88.8371 10.7809 87.4358 10.6863 86.0525 10.4443C84.6824 10.1853 83.3382 9.78054 82.0389 9.2356C81.4719 8.99144 80.9183 8.71102 80.3808 8.39576L79.6692 7.97191L79.0288 7.51667C78.6614 7.25677 78.3096 6.971 77.9756 6.66114L77.5628 6.28439L77.2426 5.93119C77.0325 5.72703 76.846 5.49503 76.6875 5.24048C77.4841 5.96336 78.313 6.64184 79.1711 7.27336L79.8115 7.6972L80.5232 8.0975C81.0564 8.38941 81.6027 8.65138 82.1599 8.8824C83.4439 9.40206 84.7683 9.79089 86.1165 10.044C87.4672 10.281 88.8338 10.3886 90.2013 10.3658C91.3157 10.3374 92.4256 10.1981 93.5174 9.94986C95.389 9.50246 96.4493 8.87455 96.4849 8.96089Z" fill="#455A64"/>
<path d="M94.6205 4.06299C94.4531 4.26144 94.2615 4.43316 94.0512 4.57317C93.8285 4.7645 93.5903 4.93266 93.3395 5.0755L92.8627 5.35807L92.3077 5.62493C90.2448 6.50011 88.049 6.93172 85.839 6.89646C83.6391 6.90888 81.4451 6.64555 79.2992 6.11157C78.6497 5.95924 78.0083 5.76797 77.3778 5.53859C77.1294 5.47896 76.8899 5.3812 76.6661 5.24818C76.6661 5.18539 77.6838 5.4915 79.3276 5.829C81.4615 6.28448 83.63 6.51315 85.8034 6.51186C87.9821 6.54643 90.1495 6.16128 92.208 5.37377C93.0329 4.98492 93.8382 4.54736 94.6205 4.06299Z" fill="#455A64"/>
<path d="M74.3746 2.48529C74.3746 2.43819 74.6024 2.3911 74.9511 2.48529C75.4122 2.62785 75.8223 2.92387 76.1253 3.33297C76.4327 3.74065 76.6212 4.24135 76.6661 4.76933C76.6661 5.16963 76.602 5.4051 76.5522 5.39725C76.4248 4.75223 76.1829 4.14138 75.8406 3.59984C75.2357 2.73645 74.3533 2.59517 74.3746 2.48529Z" fill="#455A64"/>
<path d="M108.405 10.3108C108.454 10.2103 108.522 10.1221 108.604 10.0518C108.824 9.83363 109.1 9.69646 109.394 9.65936C109.873 9.59092 110.359 9.71037 110.767 9.99686C111.042 10.1926 111.262 10.4688 111.403 10.7945C111.544 11.1202 111.599 11.4827 111.564 11.8414C111.522 12.2724 111.385 12.6857 111.166 13.0453C110.946 13.405 110.651 13.7003 110.305 13.9056C109.893 14.1165 109.438 14.2001 108.986 14.1476C108.535 14.095 108.105 13.9083 107.743 13.6074C107.338 13.3012 107.012 12.8848 106.796 12.3986C106.591 11.9046 106.472 11.3718 106.448 10.8289C106.479 9.73186 106.453 8.63382 106.369 7.54014C106.176 6.52567 105.752 5.5821 105.137 4.79811C104.522 4.01412 103.736 3.41546 102.854 3.05839C102.125 2.78136 101.349 2.69179 100.584 2.79654C99.8197 2.90129 99.0868 3.19759 98.4419 3.66276C97.551 4.27648 96.8299 5.14793 96.3568 6.18227C96.0295 6.92792 95.9583 7.38316 95.9227 7.37531C95.9171 7.2614 95.9291 7.14727 95.9583 7.03781C96.0156 6.72109 96.1063 6.41287 96.2287 6.11948C96.602 5.18723 97.1755 4.36922 97.8996 3.73608C98.6236 3.10294 99.4765 2.67369 100.385 2.48541C101.248 2.31051 102.139 2.38624 102.968 2.70518C103.914 3.07517 104.757 3.70804 105.417 4.54264C106.076 5.37723 106.529 6.38532 106.732 7.4695C106.821 8.57859 106.847 9.69265 106.811 10.8053C106.826 11.3067 106.93 11.7999 107.117 12.2574C107.32 12.677 107.613 13.0355 107.971 13.3013C108.284 13.5662 108.656 13.7336 109.047 13.7861C109.439 13.8385 109.836 13.7741 110.198 13.5995C110.506 13.426 110.771 13.1724 110.971 12.8607C111.171 12.5489 111.298 12.1883 111.344 11.81C111.382 11.5 111.341 11.1843 111.225 10.8986C111.109 10.613 110.924 10.3686 110.689 10.1931C110.325 9.91456 109.886 9.78162 109.444 9.81634C109.059 9.85744 108.696 10.0304 108.405 10.3108Z" fill="#263238"/>
<path d="M91.105 13.5836C90.8712 13.6377 90.6317 13.6562 90.3933 13.6386C89.9521 13.6386 89.3117 13.6386 88.5218 13.6386C86.4467 13.6011 84.3894 13.2093 82.4231 12.4769C80.4371 11.7139 78.7027 10.3147 77.4418 8.45825C77.0721 7.89267 76.7729 7.27494 76.5522 6.62159C76.4605 6.38755 76.4051 6.13812 76.3885 5.88379C76.7418 6.72467 77.1634 7.52855 77.6481 8.28557C78.9284 10.0307 80.6236 11.3488 82.5441 12.0923C84.4785 12.807 86.4917 13.2295 88.5289 13.3481C89.391 13.3722 90.2511 13.4508 91.105 13.5836Z" fill="#263238"/>
<path d="M100.456 31.338C100.419 31.5987 100.31 31.8402 100.143 32.0287C99.9287 32.3007 99.6671 32.5221 99.3737 32.6799C99.0802 32.8377 98.7609 32.9286 98.4348 32.9471C97.4583 32.9764 96.5103 32.5818 95.7947 31.8482C95.3436 31.4174 95.0564 30.8148 94.9906 30.1607C94.9562 29.7947 95.0219 29.4258 95.1791 29.1013C95.3364 28.7768 95.578 28.5116 95.873 28.3397C96.1879 28.1795 96.5471 28.1612 96.8741 28.2888C97.2011 28.4163 97.47 28.6796 97.6236 29.0226C97.6835 29.1927 97.7083 29.3754 97.6959 29.5574C97.6836 29.7393 97.6346 29.916 97.5524 30.0744C97.4101 30.3759 97.1828 30.6182 96.9048 30.7651C96.4027 30.9885 95.8415 30.9885 95.3393 30.7651C94.911 30.6062 94.5231 30.3371 94.2078 29.9802C93.7493 29.4709 93.4565 28.8085 93.3752 28.0964C93.3265 27.8357 93.3388 27.5656 93.4108 27.3115C93.4463 27.3115 93.4108 27.5862 93.5175 28.0493C93.6478 28.701 93.9528 29.2944 94.3928 29.7525C94.6875 30.0685 95.046 30.3025 95.4389 30.4354C95.8664 30.607 96.337 30.5929 96.7554 30.3962C96.9654 30.2912 97.1345 30.1071 97.2324 29.8769C97.3302 29.6467 97.3503 29.3855 97.2891 29.1403C97.1712 28.9039 96.9769 28.725 96.7448 28.6392C96.5128 28.5534 96.26 28.567 96.0367 28.6772C95.8145 28.8207 95.6346 29.0317 95.5184 29.2851C95.4023 29.5385 95.3549 29.8234 95.382 30.1058C95.4415 30.6593 95.6818 31.1699 96.058 31.5421C96.7055 32.2228 97.5618 32.6095 98.4562 32.6253C99.0581 32.615 99.6335 32.351 100.064 31.8875C100.335 31.5814 100.427 31.3223 100.456 31.338Z" fill="#263238"/>
<path d="M70.1619 69.3114C70.1619 69.3585 70.105 69.4684 70.1192 69.6411C70.1334 69.8138 70.2544 69.9707 70.4466 69.8844C70.6387 69.7981 70.6245 69.6018 70.5106 69.4606C70.3967 69.3193 70.2829 69.3114 70.2686 69.2565C70.2544 69.2015 70.4181 69.076 70.6743 69.2565C70.7484 69.3049 70.811 69.3723 70.8568 69.4528C70.9026 69.5334 70.9303 69.6248 70.9376 69.7196C70.9394 69.8429 70.907 69.9639 70.8447 70.0664C70.7823 70.1688 70.6931 70.2477 70.5889 70.2926C70.4869 70.3427 70.3733 70.3569 70.2637 70.333C70.1541 70.3091 70.0539 70.2484 69.9769 70.1591C69.9196 70.0889 69.8791 70.004 69.8592 69.9122C69.8393 69.8203 69.8406 69.7244 69.863 69.6332C69.9413 69.3114 70.1548 69.2643 70.1619 69.3114Z" fill="#455A64"/>
<path d="M81.5478 69.068C81.5478 69.1308 81.3984 69.1779 81.3059 69.3898C81.2751 69.4437 81.2572 69.5052 81.2538 69.5688C81.2505 69.6324 81.2618 69.6959 81.2867 69.7533C81.3116 69.8108 81.3493 69.8603 81.3963 69.8973C81.4433 69.9343 81.498 69.9576 81.5554 69.9649C81.6127 69.9723 81.6708 69.9635 81.7243 69.9394C81.7777 69.9152 81.8247 69.8765 81.8609 69.8269C81.8971 69.7773 81.9213 69.7184 81.9313 69.6557C81.9412 69.593 81.9366 69.5285 81.9179 69.4683C81.8681 69.2406 81.7257 69.1543 81.74 69.0915C81.7542 69.0287 81.9961 69.0287 82.1598 69.3584C82.2044 69.4585 82.2276 69.5686 82.2276 69.6802C82.2276 69.7918 82.2044 69.9019 82.1598 70.002C82.0964 70.128 82 70.2299 81.8832 70.2943C81.7663 70.3588 81.6345 70.3827 81.5051 70.363C81.3885 70.356 81.2761 70.3128 81.1809 70.2384C81.0856 70.1639 81.0114 70.0613 80.9667 69.9423C80.9221 69.8233 80.9089 69.6928 80.9286 69.5659C80.9483 69.439 81.0001 69.3208 81.0782 69.225C81.3201 68.9424 81.5621 69.0209 81.5478 69.068Z" fill="#455A64"/>
<path d="M70.8948 76.0535C70.8948 76.0535 70.8948 76.4695 70.8948 77.2151C70.9169 78.2596 71.0727 79.2954 71.3574 80.2919C71.5689 80.9588 71.8951 81.5744 72.3181 82.105C72.8241 82.6827 73.4901 83.0583 74.211 83.1725C75.0003 83.3571 75.8233 83.2322 76.538 82.8193C77.2932 82.3456 77.9065 81.6391 78.3028 80.7864C78.9822 79.3193 79.3933 77.7191 79.5126 76.077L79.6905 76.2811C77.1429 76.2811 74.9653 76.2261 73.3997 76.1869L71.5566 76.132C71.3187 76.1356 71.0808 76.1198 70.845 76.0849C71.0471 76.0468 71.2521 76.031 71.457 76.0378L73.2645 75.9828C74.823 75.9436 77.0504 75.9043 79.6692 75.8965H79.8542V76.1006C79.7555 77.8155 79.3338 79.4889 78.616 81.014C78.187 81.9357 77.5212 82.6975 76.7017 83.2039C75.9146 83.6495 75.0125 83.7825 74.1469 83.5806C73.3569 83.4416 72.6324 83.013 72.0904 82.364C71.6464 81.7913 71.3102 81.127 71.1012 80.4096C70.8353 79.3899 70.7153 78.3306 70.7454 77.2701C70.7336 76.8582 70.7841 76.447 70.8948 76.0535Z" fill="#455A64"/>
<path d="M98.6056 115.62C98.4429 115.761 98.2567 115.865 98.0576 115.926C97.5287 116.136 96.975 116.261 96.4138 116.295C95.4804 116.373 94.543 116.224 93.6676 115.859C92.7921 115.493 91.9998 114.921 91.3465 114.182C90.6932 113.443 90.1948 112.554 89.8863 111.58C89.5777 110.605 89.4667 109.568 89.5608 108.541C89.6056 107.924 89.7327 107.319 89.938 106.743C90.0874 106.335 90.2013 106.131 90.2226 106.147C90.0176 106.933 89.8842 107.74 89.8241 108.556C89.7644 109.535 89.8923 110.517 90.1997 111.438C90.507 112.359 90.9868 113.198 91.6079 113.901C92.2289 114.604 92.9772 115.155 93.804 115.517C94.6309 115.879 95.5177 116.046 96.4066 116.005C97.1491 115.955 97.8855 115.826 98.6056 115.62Z" fill="#455A64"/>
<path d="M31.4708 132.291C31.4708 132.182 46.9131 132.087 65.9491 132.087C84.9851 132.087 100.427 132.182 100.427 132.291C100.427 132.401 84.9922 132.496 65.9491 132.496C46.906 132.496 31.4708 132.409 31.4708 132.291Z" fill="#455A64"/>
<path d="M265.951 97.2149C265.951 97.2149 265.738 97.2149 265.304 97.2149H263.347L255.74 97.2698L227.196 97.3797L128.7 97.5445H128.43L128.359 97.262C127.28 93.1812 127.091 88.8772 127.806 84.7005C128.521 80.5238 130.121 76.5923 132.474 73.2263C134.827 69.8604 137.868 67.1549 141.349 65.3304C144.83 63.5058 148.652 62.6136 152.504 62.7265L152.141 63.2446C151.536 60.8798 151.279 58.4232 151.38 55.9686C151.686 47.5781 156.012 39.4858 162.659 35.7104C165.883 33.8509 169.47 32.8895 173.108 32.91C176.746 32.9305 180.325 33.9324 183.531 35.8282L183.019 36.0322C186.577 26.5036 194.027 19.5965 202.133 16.4098C210.238 13.2232 219.283 13.5764 226.371 17.6657C233.108 21.5972 238.407 27.9742 241.372 35.7183C244.084 42.5499 244.718 50.1663 243.179 57.4285L242.902 57.0831C246.774 56.632 250.686 57.2497 254.288 58.8806C257.491 60.3149 260.376 62.4972 262.742 65.2775C263.823 66.5227 264.723 67.9444 265.411 69.4923C266.017 70.9285 266.494 72.427 266.834 73.9662C267.412 76.6456 267.736 79.3838 267.802 82.137C267.927 85.9301 267.631 89.7259 266.919 93.4395C266.73 94.403 266.492 95.3541 266.208 96.2887C266.008 96.9166 265.902 97.2149 265.902 97.2149" fill="#FF725C"/>
<g opacity="0.3">
<path d="M265.951 97.2149C265.951 97.2149 265.738 97.2149 265.304 97.2149H263.347L255.74 97.2698L227.196 97.3797L128.7 97.5445H128.43L128.359 97.262C127.28 93.1812 127.091 88.8772 127.806 84.7005C128.521 80.5238 130.121 76.5923 132.474 73.2263C134.827 69.8604 137.868 67.1549 141.349 65.3304C144.829 63.5058 148.652 62.6136 152.504 62.7265L152.141 63.2446C151.536 60.8798 151.279 58.4232 151.38 55.9686C151.686 47.5781 156.012 39.4858 162.659 35.7104C165.883 33.8509 169.47 32.8895 173.108 32.91C176.746 32.9305 180.324 33.9324 183.531 35.8282L183.018 36.0322C186.577 26.5036 194.027 19.5965 202.133 16.4098C210.238 13.2232 219.283 13.5764 226.371 17.6657C233.107 21.5972 238.407 27.9742 241.372 35.7183C244.084 42.5499 244.718 50.1663 243.179 57.4285L242.902 57.0831C246.774 56.632 250.686 57.2497 254.288 58.8806C257.491 60.3149 260.375 62.4972 262.742 65.2775C263.823 66.5227 264.723 67.9444 265.41 69.4923C266.017 70.9285 266.494 72.427 266.834 73.9662C267.412 76.6456 267.736 79.3838 267.802 82.137C267.927 85.9301 267.631 89.7259 266.919 93.4395C266.73 94.403 266.492 95.3541 266.208 96.2887C266.008 96.9166 265.902 97.2149 265.902 97.2149" fill="black"/>
</g>
<path d="M255.063 97.2145C255.063 97.2145 254.85 97.2145 254.409 97.2145H252.459L244.845 97.2694L216.308 97.3793L117.805 97.5441H117.542L117.464 97.2616C116.385 93.1801 116.196 88.8754 116.911 84.6981C117.627 80.5207 119.227 76.5889 121.581 73.2227C123.935 69.8565 126.977 67.1513 130.459 65.3272C133.94 63.5032 137.763 62.612 141.616 62.7262L141.253 63.2442C140.643 60.8726 140.386 58.4073 140.492 55.9447C140.791 47.5541 145.124 39.4619 151.771 35.6865C154.994 33.827 158.58 32.8656 162.217 32.8861C165.854 32.9066 169.431 33.9085 172.636 35.8042L172.131 36.0083C175.689 26.4797 183.139 19.5726 191.245 16.3859C199.35 13.1992 208.388 13.5524 215.476 17.6418C222.214 21.5707 227.514 27.9485 230.477 35.6944C233.195 42.5092 233.844 50.1105 232.327 57.3653L232.049 57.02C235.921 56.5655 239.835 57.1833 243.436 58.8174C246.642 60.2496 249.529 62.4321 251.897 65.2143C252.975 66.4597 253.873 67.8814 254.558 69.4292C255.168 70.864 255.644 72.3629 255.981 73.9031C256.559 76.5824 256.884 79.3207 256.949 82.0738C257.073 85.8673 256.774 89.6631 256.06 93.3763C255.873 94.3405 255.635 95.2919 255.348 96.2255C255.149 96.8534 255.042 97.1517 255.042 97.1517" fill="#FF725C"/>
<path d="M212.451 62.1609C212.248 61.4387 212.14 60.688 212.131 59.9318C211.996 59.2254 211.882 58.362 211.654 57.3652L211.249 55.7954C211.092 55.246 210.864 54.6887 210.665 54.0922C209.616 51.3391 208.096 48.8343 206.189 46.7141C203.849 44.1352 200.97 42.2292 197.807 41.1631C194.643 40.0971 191.29 39.9036 188.043 40.5998C185.385 41.1646 182.855 42.3036 180.599 43.9513C179.073 45.0704 177.676 46.3881 176.436 47.8758C175.988 48.4017 175.66 48.8334 175.433 49.1238C175.205 49.4142 175.062 49.5476 175.034 49.5241C175.006 49.5005 175.077 49.3121 175.255 48.9825C175.502 48.4873 175.785 48.0149 176.101 47.5697C177.248 45.9067 178.613 44.4412 180.151 43.2214C182.452 41.4002 185.072 40.1278 187.843 39.4853C191.257 38.6917 194.798 38.8659 198.135 39.9914C201.471 41.117 204.494 43.1572 206.922 45.9214C208.881 48.1744 210.402 50.8454 211.391 53.7704C211.576 54.3983 211.797 54.9869 211.925 55.5599C212.053 56.1329 212.152 56.6902 212.259 57.2004C212.437 58.2364 212.487 59.139 212.558 59.869C212.62 60.6347 212.584 61.4062 212.451 62.1609Z" fill="#FAFAFA"/>
<path d="M202.688 54.163C202.873 53.8883 207.328 57.3026 212.651 61.7372L212.95 61.9805L212.089 62.271C214.223 55.5052 216.187 50.1757 216.472 50.2856C216.757 50.3955 215.269 55.8976 213.135 62.6712L212.886 63.4561L212.274 62.946L211.982 62.6948C206.652 58.2601 202.503 54.3985 202.688 54.163Z" fill="#FAFAFA"/>
<path d="M173.917 58.425C174.033 59.1477 174.057 59.8849 173.988 60.6149C174.024 61.3135 174.074 62.1847 174.159 63.1501C174.285 64.2579 174.482 65.3543 174.75 66.431C175.43 69.2308 176.587 71.8624 178.158 74.1858C180.073 77.0285 182.58 79.322 185.467 80.8731L186.029 81.187L186.619 81.446L187.779 81.9484C188.171 82.0897 188.569 82.1995 188.961 82.333C189.346 82.466 189.738 82.5735 190.135 82.6548C191.645 83.0132 193.187 83.1843 194.732 83.1649C197.359 83.1211 199.954 82.5188 202.375 81.3911C204.019 80.6238 205.574 79.6436 207.008 78.4713C207.52 78.0631 207.911 77.7256 208.175 77.4902C208.438 77.2547 208.594 77.1683 208.623 77.1919C208.651 77.2154 208.552 77.3881 208.324 77.6707C208.004 78.0907 207.654 78.4817 207.278 78.8402C205.91 80.1943 204.368 81.3183 202.702 82.176C200.224 83.4717 197.53 84.1904 194.789 84.2874C193.163 84.3455 191.536 84.1927 189.943 83.8321C189.524 83.7529 189.11 83.6428 188.705 83.5025C188.292 83.369 187.865 83.2513 187.452 83.1022L186.221 82.5763L185.602 82.3094L185.004 81.9719L183.816 81.2969C183.431 81.0457 183.068 80.771 182.698 80.512C181.98 79.9906 181.291 79.4219 180.635 78.8088C180.307 78.5184 180.023 78.173 179.717 77.8669C179.411 77.5608 179.112 77.2468 178.856 76.9015L178.073 75.8811L177.696 75.3788L177.361 74.8529C175.123 71.4473 173.808 67.4107 173.568 63.2129C173.568 62.1925 173.568 61.3135 173.568 60.5992C173.586 59.8595 173.704 59.1268 173.917 58.425Z" fill="#FAFAFA"/>
<path d="M182.691 67.6788C182.478 67.9221 178.421 63.9584 173.661 58.8252L173.39 58.5348L174.28 58.3699C171.391 64.7904 168.871 69.8216 168.587 69.6724C168.302 69.5233 170.394 64.2645 173.269 57.8284L173.604 57.0435L174.152 57.6321L174.422 57.9225C179.233 63.0793 182.933 67.4355 182.691 67.6788Z" fill="#FAFAFA"/>
<path d="M239.981 137C239.981 137 239.981 136.867 239.981 136.601V135.428C239.981 134.373 239.981 132.848 239.968 130.886C239.968 126.914 239.968 121.159 239.946 113.989L239.995 114.122L218.216 114.193L194.043 114.107H194.003V113.989C194.003 108.931 194.016 104.935 194.021 102.183C194.021 100.823 194.021 99.7749 194.021 99.0555C194.021 98.7115 194.021 98.4457 194.021 98.2737C194.017 98.1828 194.017 98.0908 194.021 98C194.021 98 194.021 98.0938 194.021 98.2737C194.021 98.4535 194.021 98.735 194.021 99.0555C194.021 99.7827 194.021 100.83 194.021 102.183C194.021 104.935 194.021 108.931 194.04 113.989L194 113.872L218.173 113.786L239.952 113.849H240V113.989C240 121.159 239.981 126.914 239.979 130.886C239.979 132.848 239.979 134.373 239.965 135.428C239.965 135.937 239.965 136.32 239.965 136.601C239.973 136.733 239.978 136.866 239.981 137Z" fill="#FF725C"/>
<path d="M136.756 132.291C136.656 132.291 136.571 124.505 136.571 114.898C136.571 105.291 136.656 97.5049 136.756 97.5049C136.855 97.5049 136.941 105.291 136.941 114.898C136.941 124.505 136.855 132.291 136.756 132.291Z" fill="#FF725C"/>
</svg>
