<svg width="27" height="22" viewBox="0 0 27 22" fill="none" xmlns="http://www.w3.org/2000/svg">
<path d="M18.1669 0.39845C18.0814 0.280212 17.9756 0.183815 17.8562 0.115407C17.7367 0.0469985 17.6062 0.00807901 17.4729 0.00112961C17.3397 -0.00581978 17.2067 0.0193534 17.0824 0.0750443C16.958 0.130735 16.8451 0.215722 16.7508 0.324586C16.6565 0.433451 16.5829 0.563804 16.5346 0.707336C16.4864 0.850868 16.4646 1.00443 16.4706 1.15823C16.4766 1.31203 16.5103 1.4627 16.5696 1.60062C16.6289 1.73854 16.7124 1.8607 16.8148 1.9593L23.7131 9.93215H0.911674C0.665532 9.94722 0.433776 10.0707 0.264162 10.2772C0.0945483 10.4837 0 10.7574 0 11.0419C0 11.3265 0.0945483 11.6002 0.264162 11.8066C0.433776 12.0131 0.665532 12.1366 0.911674 12.1517H23.7131L16.804 20.1152C16.6301 20.3254 16.533 20.6049 16.533 20.8956C16.533 21.1863 16.6301 21.4658 16.804 21.676C16.8926 21.7787 16.998 21.8602 17.114 21.9158C17.23 21.9714 17.3544 22 17.48 22C17.6056 22 17.73 21.9714 17.846 21.9158C17.962 21.8602 18.0674 21.7787 18.156 21.676L26.7012 11.8114C26.7921 11.7104 26.8645 11.5891 26.9139 11.455C26.9633 11.321 26.9888 11.1767 26.9888 11.031C26.9888 10.8853 26.9633 10.741 26.9139 10.6069C26.8645 10.4728 26.7921 10.3516 26.7012 10.2506L18.1669 0.39845Z" fill="white"/>
</svg>
