<svg width="475" height="475" viewBox="0 0 475 475" fill="none" xmlns="http://www.w3.org/2000/svg">
<path d="M338.86 400.849C340.83 401.134 342.568 402.41 343.71 404.039C344.852 405.668 345.447 407.626 345.751 409.593C346.337 413.397 345.253 417.695 343.797 421.259C339.951 419.392 337.947 414.854 337.076 412.488C335.699 408.75 335.48 401.156 338.86 400.849Z" fill="#EBEBEB"/>
<path d="M349.069 426.369C348.004 424.417 348.249 421.893 349.462 420.03C350.675 418.167 352.748 416.955 354.931 416.536C355.941 416.342 357.088 416.34 357.875 417.001C358.612 417.618 358.842 418.696 358.635 419.635C358.429 420.574 357.854 421.391 357.202 422.097C354.969 424.519 352.363 426.454 349.069 426.369Z" fill="#EBEBEB"/>
<path d="M348.163 438.772C348.143 438.773 348.112 438.491 348.068 437.984C348.02 437.425 347.959 436.701 347.886 435.832C347.764 434.026 347.537 431.452 348.22 428.708C348.887 425.975 350.249 423.725 351.56 422.436C352.208 421.781 352.808 421.334 353.245 421.067C353.458 420.924 353.641 420.841 353.759 420.776C353.879 420.714 353.944 420.687 353.949 420.695C353.987 420.749 352.942 421.246 351.702 422.572C350.451 423.873 349.146 426.088 348.49 428.776C347.82 431.463 348.01 434.01 348.083 435.821C348.129 436.731 348.165 437.469 348.176 437.979C348.187 438.489 348.181 438.771 348.163 438.772Z" fill="#E0E0E0"/>
<path d="M339.538 406.617C339.547 406.614 339.591 406.724 339.666 406.938C339.748 407.18 339.852 407.49 339.981 407.874C340.25 408.688 340.624 409.872 341.075 411.338C341.975 414.269 343.163 418.337 344.373 422.857C345.582 427.38 346.584 431.498 347.267 434.488C347.609 435.984 347.876 437.195 348.049 438.035C348.128 438.432 348.192 438.753 348.242 439.003C348.283 439.225 348.301 439.343 348.292 439.345C348.282 439.347 348.247 439.233 348.188 439.015C348.125 438.768 348.044 438.451 347.943 438.058C347.729 437.192 347.436 435.996 347.075 434.533C346.342 431.556 345.312 427.449 344.103 422.929C342.894 418.411 341.738 414.338 340.886 411.393C340.468 409.945 340.126 408.762 339.878 407.904C339.768 407.514 339.681 407.199 339.613 406.953C339.555 406.736 339.529 406.62 339.538 406.617Z" fill="#E0E0E0"/>
<path d="M344.302 430.079C342.379 425.805 338.27 422.587 333.661 421.743C332.487 421.528 331.042 421.572 330.399 422.577C329.754 423.584 330.324 424.921 331.034 425.881C333.992 429.88 339.527 431.765 344.311 430.402" fill="#EBEBEB"/>
<path d="M335.117 425.107C335.121 425.088 335.382 425.127 335.855 425.215C336.092 425.257 336.382 425.31 336.708 425.41C337.035 425.509 337.419 425.587 337.819 425.747C338.224 425.895 338.671 426.047 339.127 426.269C339.595 426.465 340.07 426.726 340.568 427.004C341.549 427.585 342.576 428.317 343.531 429.227C344.478 430.146 345.254 431.142 345.867 432.104C346.16 432.594 346.439 433.059 346.646 433.523C346.882 433.973 347.044 434.417 347.199 434.819C347.368 435.216 347.452 435.599 347.556 435.924C347.66 436.25 347.716 436.538 347.761 436.775C347.853 437.247 347.895 437.508 347.876 437.512C347.814 437.526 347.641 436.473 347.016 434.89C346.852 434.498 346.681 434.065 346.44 433.626C346.227 433.173 345.945 432.72 345.652 432.242C345.036 431.304 344.269 430.331 343.339 429.429C342.402 428.535 341.397 427.81 340.439 427.226C339.953 426.946 339.489 426.68 339.031 426.479C338.586 426.25 338.149 426.09 337.753 425.933C336.156 425.338 335.104 425.167 335.117 425.107Z" fill="#E0E0E0"/>
<path d="M404.802 366.118C404.699 366.208 401.893 363.18 398.534 359.357C395.175 355.532 392.536 352.359 392.639 352.269C392.741 352.178 395.547 355.205 398.906 359.03C402.264 362.854 404.904 366.027 404.802 366.118Z" fill="#E0E0E0"/>
<path d="M408.628 366.048C408.504 366.104 406.834 362.688 404.899 358.417C402.964 354.145 401.497 350.637 401.621 350.581C401.745 350.525 403.415 353.942 405.351 358.213C407.285 362.484 408.753 365.992 408.628 366.048Z" fill="#E0E0E0"/>
<path d="M413.717 351.305C413.865 351.35 412.877 354.465 412.41 358.441C411.919 362.415 412.138 365.675 411.985 365.684C411.922 365.688 411.788 364.879 411.72 363.555C411.653 362.232 411.678 360.393 411.918 358.382C412.162 356.371 412.575 354.58 412.955 353.311C413.335 352.041 413.658 351.285 413.717 351.305Z" fill="#E0E0E0"/>
<path d="M241.183 449.612C241.132 449.659 240.436 448.98 239.339 447.86C238.129 446.614 236.678 445.121 235.074 443.469C233.468 441.819 232.016 440.327 230.804 439.081C229.716 437.953 229.057 437.239 229.106 437.189C229.152 437.141 229.897 437.766 231.049 438.832C232.202 439.897 233.759 441.407 235.429 443.125C237.098 444.842 238.563 446.44 239.596 447.623C240.629 448.806 241.233 449.568 241.183 449.612Z" fill="#E0E0E0"/>
<path d="M247.534 449.927C247.418 450 245.144 446.594 242.454 442.322C239.764 438.048 237.678 434.525 237.794 434.453C237.909 434.38 240.183 437.785 242.873 442.059C245.563 446.33 247.65 449.854 247.534 449.927Z" fill="#E0E0E0"/>
<path d="M254.437 433.874C254.508 433.901 254.196 434.813 253.774 436.304C253.349 437.793 252.843 439.874 252.505 442.21C252.172 444.547 252.073 446.686 252.062 448.235C252.049 449.784 252.091 450.747 252.015 450.753C251.955 450.759 251.789 449.804 251.712 448.241C251.633 446.68 251.678 444.508 252.015 442.14C252.357 439.772 252.924 437.676 253.439 436.199C253.953 434.72 254.382 433.851 254.437 433.874Z" fill="#E0E0E0"/>
<path d="M412.214 138.556C429.813 131.45 438.319 111.424 431.213 93.8249C424.108 76.2263 404.081 67.7199 386.483 74.8254C368.884 81.9309 360.378 101.958 367.483 119.556C374.589 137.155 394.615 145.661 412.214 138.556Z" fill="#E0E0E0"/>
<path d="M412.214 134.759C429.812 127.654 438.319 107.627 431.213 90.0286C424.108 72.43 404.081 63.9236 386.482 71.0291C368.884 78.1346 360.377 98.1613 367.483 115.76C374.588 133.359 394.615 141.865 412.214 134.759Z" fill="#EBEBEB"/>
<path d="M399.336 125.917C412.048 125.917 422.353 115.612 422.353 102.9C422.353 90.1886 412.048 79.8837 399.336 79.8837C386.625 79.8837 376.32 90.1886 376.32 102.9C376.32 115.612 386.625 125.917 399.336 125.917Z" fill="white"/>
<path d="M407.717 110.424C411.87 105.792 411.482 98.6711 406.851 94.5179C402.219 90.3647 395.098 90.7526 390.945 95.3841C386.792 100.016 387.179 107.137 391.811 111.29C396.443 115.443 403.564 115.056 407.717 110.424Z" fill="#EBEBEB"/>
<path d="M426.963 73.8056L426.03 66.4735L433.493 58.4868L434.029 66.3984L426.963 73.8056Z" fill="#EBEBEB"/>
<path d="M442.981 67.9717L435.41 67.3551L427.822 74.6549L435.412 75.4662L442.981 67.9717Z" fill="#EBEBEB"/>
<path d="M434.714 64.4358C430.697 68.5075 426.678 72.5782 422.661 76.6499C416.286 83.109 409.913 89.568 403.538 96.0261C402.073 97.511 400.607 98.9958 399.142 100.481C397.75 101.892 399.925 104.071 401.319 102.657C405.336 98.5854 409.355 94.5147 413.372 90.443C419.747 83.9839 426.121 77.5249 432.495 71.0668C433.961 69.5819 435.426 68.0971 436.891 66.6122C438.283 65.2005 436.109 63.0231 434.714 64.4358Z" fill="#E0E0E0"/>
<path d="M308.321 71.2443C308.895 67.0681 303.002 63.6319 298.572 63.2747C296.46 63.1047 294.265 63.4277 292.265 62.7304C287.929 61.2189 286.197 55.6187 281.967 53.8336C278.804 52.4998 275.163 53.6873 272.097 55.2301C269.031 56.7729 266.001 58.7147 262.575 58.9342C259.596 59.1251 256.36 58.0203 253.754 59.4757C251.811 60.5606 250.793 62.7988 249.003 64.1193C247.251 65.4113 244.966 65.6849 242.792 65.8027C240.619 65.9205 238.369 65.9433 236.39 66.8486C234.412 67.7549 232.775 69.8478 233.185 71.9853L308.321 71.2443Z" fill="#EBEBEB"/>
<path d="M98.2974 94.0652C98.8389 90.1303 93.2852 86.8927 89.1119 86.5564C87.1216 86.3959 85.0544 86.6999 83.1696 86.0434C79.0846 84.6194 77.4535 79.3421 73.4673 77.6616C70.4871 76.4047 67.0567 77.5238 64.1687 78.9773C61.2797 80.4308 58.425 82.2605 55.1978 82.4676C52.3906 82.6472 49.342 81.606 46.8853 82.9778C45.0556 84 44.0961 86.109 42.4099 87.3525C40.7597 88.5695 38.607 88.8279 36.5588 88.939C34.5116 89.0502 32.3912 89.0711 30.5263 89.9251C28.6615 90.7792 27.1196 92.7504 27.5063 94.7644L98.2974 94.0652Z" fill="#EBEBEB"/>
<path d="M178.484 44.2796C178.91 41.1864 174.544 38.6413 171.264 38.3772C169.699 38.2509 168.075 38.4903 166.593 37.9735C163.382 36.8544 162.099 32.7057 158.966 31.3843C156.624 30.3963 153.928 31.276 151.657 32.4188C149.387 33.5617 147.142 35 144.605 35.1624C142.398 35.304 140.001 34.4851 138.071 35.5633C136.633 36.367 135.879 38.0248 134.552 39.0023C133.255 39.959 131.563 40.1613 129.953 40.2497C128.344 40.3371 126.677 40.3532 125.212 41.0249C123.746 41.6956 122.534 43.246 122.838 44.8287L178.484 44.2796Z" fill="#F5F5F5"/>
<path d="M106.169 157.97C106.595 154.877 102.229 152.332 98.9491 152.068C97.3845 151.941 95.76 152.181 94.278 151.664C91.067 150.545 89.7845 146.396 86.6514 145.075C84.3087 144.087 81.6126 144.966 79.3411 146.109C77.0706 147.252 74.8258 148.69 72.2893 148.853C70.0824 148.994 67.6856 148.175 65.7552 149.254C64.3169 150.057 63.5626 151.715 62.2364 152.693C60.9396 153.649 59.2467 153.853 57.6374 153.94C56.0281 154.027 54.3618 154.044 52.896 154.715C51.4301 155.386 50.2179 156.936 50.5219 158.519L106.169 157.97Z" fill="#F5F5F5"/>
<path d="M385.822 33.6481C386.248 30.5549 381.883 28.0098 378.602 27.7457C377.038 27.6194 375.413 27.8588 373.931 27.342C370.72 26.2229 369.438 22.0742 366.305 20.7528C363.962 19.7648 361.266 20.6445 358.995 21.7873C356.725 22.9302 354.48 24.3685 351.944 24.5309C349.737 24.6725 347.341 23.8536 345.409 24.9318C343.971 25.7355 343.217 27.3933 341.891 28.3708C340.593 29.3275 338.901 29.5298 337.292 29.6182C335.682 29.7056 334.016 29.7217 332.55 30.3934C331.084 31.0641 329.872 32.6145 330.176 34.1972L385.822 33.6481Z" fill="#F5F5F5"/>
<path d="M329.651 123.729C330.077 120.636 325.711 118.091 322.431 117.827C320.866 117.7 319.242 117.94 317.76 117.423C314.549 116.304 313.266 112.155 310.133 110.834C307.79 109.846 305.094 110.725 302.823 111.868C300.552 113.011 298.308 114.449 295.771 114.612C293.564 114.753 291.168 113.935 289.237 115.013C287.799 115.816 287.044 117.474 285.718 118.452C284.421 119.408 282.729 119.611 281.119 119.699C279.51 119.787 277.843 119.803 276.378 120.474C274.912 121.146 273.7 122.695 274.004 124.278L329.651 123.729Z" fill="#F5F5F5"/>
<path d="M122.79 207.035L166.441 161.909L178.679 166.049L221.47 237.87L246.788 250.824L268.452 313.798L201.97 310.354L122.79 207.035Z" fill="#E0E0E0"/>
<path d="M467.299 288.571C467.348 288.698 364.233 328.137 237.015 376.647C109.752 425.174 6.57972 464.395 6.53127 464.268C6.48282 464.141 109.576 424.711 236.838 376.184C364.056 327.674 467.25 288.444 467.299 288.571Z" fill="#263238"/>
<path d="M381.675 58.1258C379.599 58.5286 377.508 58.8193 375.407 58.7338C372.421 58.6112 369.366 57.6546 367.139 55.4506C364.684 53.0205 363.422 49.2927 360.735 47.1827C358.327 45.2903 354.606 45.3853 352.009 46.9443V64.0775C353.324 63.0515 355.756 60.971 359.466 62.7979C360.935 63.5208 362.256 64.3027 363.671 65.1529C367.637 67.5355 371.725 67.3417 375.901 65.4769C377.459 64.7815 379.608 63.3954 382.269 60.402C383.482 59.0378 382.53 57.9605 381.675 58.1258Z" fill="#FF725E"/>
<path d="M352.01 43.5765C352.147 43.5765 352.257 52.1037 352.257 62.6193C352.257 73.1386 352.146 81.6639 352.01 81.6639C351.873 81.6639 351.763 73.1386 351.763 62.6193C351.762 52.1037 351.873 43.5765 352.01 43.5765Z" fill="#263238"/>
<path d="M451.865 187.527L427.966 177.071L362.587 83.1535L345.037 76.8047L273.748 155.04L253.958 165.869L179.577 243.235L160.379 260.914L262.953 366.118L468.087 287.951V221.268L451.865 187.527Z" fill="#EBEBEB"/>
<path d="M362.587 83.1536L345.037 76.8057L308.418 116.993L346.293 86.2202L356.923 101.319C357.306 101.191 361.374 94.8072 361.374 94.8072C361.374 94.8072 380.409 108.755 380.146 108.376C379.882 107.997 362.587 83.1536 362.587 83.1536Z" fill="white"/>
<path d="M179.914 243.867L264.445 178.061L298.841 170.112L324.96 98.838L273.748 155.04L253.958 165.869L179.914 243.867Z" fill="#E0E0E0"/>
<path d="M427.966 177.072L446.435 193.964L468.087 221.268L451.865 187.527L427.966 177.072Z" fill="#E0E0E0"/>
<path d="M179.914 243.867C179.914 243.867 180.022 243.737 180.246 243.493C180.479 243.242 180.813 242.882 181.253 242.408C182.154 241.448 183.478 240.037 185.202 238.201C188.678 234.52 193.761 229.136 200.223 222.292C213.184 208.608 231.67 189.09 253.803 165.723L253.826 165.699L253.855 165.683C260.117 162.251 266.773 158.604 273.64 154.842L273.581 154.889C291.062 135.695 310.371 114.495 330.653 92.226C335.448 86.9649 340.188 81.7627 344.856 76.6413L344.967 76.5197L345.122 76.5757C351.062 78.7256 356.917 80.8441 362.671 82.9265L362.744 82.9531L362.789 83.0167C388.319 119.74 410.996 152.358 428.109 176.975L428.037 176.917C437.107 180.901 445.027 184.38 451.92 187.407L451.965 187.426L451.986 187.471C456.73 197.4 460.458 205.206 463.007 210.54C464.269 213.2 465.238 215.242 465.895 216.629C466.215 217.313 466.459 217.834 466.628 218.194C466.79 218.546 466.864 218.729 466.864 218.729C466.864 218.729 466.768 218.557 466.594 218.21C466.419 217.854 466.164 217.338 465.83 216.661C465.157 215.28 464.168 213.249 462.879 210.603C460.304 205.281 456.537 197.494 451.745 187.589L451.811 187.654C444.911 184.647 436.98 181.191 427.898 177.233L427.853 177.214L427.826 177.174C410.681 152.578 387.964 119.988 362.388 83.297L362.505 83.3863C356.751 81.3058 350.895 79.1892 344.954 77.0412L345.219 76.9757C340.552 82.0971 335.813 87.2993 331.018 92.5614C310.725 114.822 291.407 136.012 273.916 155.198L273.891 155.226L273.857 155.244C266.986 158.999 260.327 162.638 254.06 166.062L254.113 166.021C231.926 189.338 213.397 208.814 200.404 222.469C193.905 229.278 188.793 234.634 185.297 238.296C183.552 240.113 182.213 241.509 181.302 242.458C180.851 242.922 180.509 243.275 180.271 243.52C180.038 243.753 179.914 243.867 179.914 243.867Z" fill="#263238"/>
<path d="M131.829 170.098C129.272 170.593 126.698 170.953 124.11 170.846C120.433 170.696 116.671 169.517 113.929 166.804C110.906 163.811 109.351 159.221 106.044 156.623C103.078 154.292 98.4961 154.409 95.2993 156.329V177.427C96.9191 176.163 99.9125 173.602 104.481 175.852C106.29 176.743 107.916 177.705 109.659 178.752C114.543 181.686 119.576 181.447 124.719 179.151C126.638 178.295 129.284 176.589 132.56 172.902C134.054 171.221 132.881 169.893 131.829 170.098Z" fill="#FF725E"/>
<path d="M95.2993 152.182C95.4361 152.182 95.5462 162.682 95.5462 175.631C95.5462 188.586 95.4351 199.083 95.2993 199.083C95.1625 199.083 95.0523 188.586 95.0523 175.631C95.0513 162.682 95.1625 152.182 95.2993 152.182Z" fill="#263238"/>
<path d="M198.33 286.82L178.538 275.198L107.249 191.231L89.7 198.044L41.0154 303.698L17.1172 314.919L5.04553 351.551L6.78783 463.406L73.6764 438.409L264.012 365.716L198.33 286.82Z" fill="#EBEBEB"/>
<path d="M41.0154 303.698L50.5116 297.982L60.1645 278.875L67.8871 284.706L91.5288 205.25L108.126 192.147L107.25 191.231L89.7 198.044L41.0154 303.698Z" fill="#E0E0E0"/>
<path d="M89.7 198.044L107.25 191.23L143.869 234.362C143.869 234.362 113.685 207.706 113.301 207.706C113.301 207.706 110.327 217.701 109.944 217.563C109.56 217.426 91.8746 199.803 91.8746 199.803L84.6992 208.896L89.7 198.044Z" fill="white"/>
<path d="M264.012 365.716C264.012 365.716 263.586 365.239 262.786 364.295C261.982 363.341 260.801 361.938 259.261 360.11C256.176 356.426 251.661 351.033 245.908 344.16C234.409 330.382 217.967 310.68 198.167 286.954L198.222 287.001C191.955 283.325 185.304 279.426 178.424 275.391L178.391 275.372L178.366 275.342C160.381 254.169 140.047 230.232 118.596 204.978C114.71 200.4 110.86 195.865 107.06 191.39L107.338 191.46C101.396 193.766 95.5396 196.038 89.7864 198.271L89.9194 198.145C70.9992 239.143 54.1073 275.745 41.173 303.77L41.1464 303.829L41.0885 303.857C32.1043 308.06 24.1728 311.772 17.1751 315.046L17.2482 314.963C13.4083 326.527 10.3702 335.674 8.28878 341.942C7.24378 345.062 6.44008 347.464 5.89288 349.096C5.61928 349.899 5.41123 350.511 5.26778 350.933C5.12528 351.344 5.04358 351.551 5.04358 351.551C5.04358 351.551 5.10058 351.337 5.23073 350.921C5.36563 350.496 5.56228 349.88 5.81973 349.072C6.35078 347.434 7.13168 345.026 8.14628 341.896C10.1992 335.618 13.1946 326.456 16.9813 314.875L17.0003 314.818L17.0554 314.792C24.0436 311.499 31.9656 307.766 40.9384 303.538L40.8538 303.624C53.7548 275.584 70.604 238.961 89.4767 197.942L89.5176 197.853L89.6097 197.817C95.362 195.582 101.219 193.308 107.159 191.001L107.322 190.938L107.436 191.072C111.236 195.547 115.087 200.081 118.973 204.659C140.412 229.923 160.733 253.871 178.708 275.054L178.651 275.005C185.526 279.048 192.172 282.957 198.435 286.64L198.466 286.659L198.49 286.687C218.234 310.459 234.628 330.2 246.095 344.006C251.81 350.91 256.295 356.328 259.359 360.029C260.878 361.875 262.043 363.291 262.836 364.255C263.62 365.211 264.012 365.716 264.012 365.716Z" fill="#263238"/>
<path d="M83.0642 391.272L89.8434 362.255L120.302 316.178L144.371 310.29L176.624 346.026L205.338 353.29L249.343 371.652L66.0544 441.571L69.2531 417.241L83.0642 391.272Z" fill="#F5F5F5"/>
<path d="M83.0642 391.272C83.0642 391.272 82.7764 391.858 82.1845 392.992C81.586 394.132 80.7025 395.815 79.5464 398.017C77.2103 402.436 73.7751 408.937 69.3557 417.297L69.3681 417.257C68.4703 424.165 67.4063 432.353 66.2065 441.591L65.9984 441.427C106.78 425.847 170.66 401.443 242.294 374.077C244.622 373.189 246.943 372.303 249.253 371.422L249.247 371.881C234.143 365.576 219.42 359.431 205.245 353.513L205.278 353.524C195.438 351.032 185.853 348.604 176.566 346.252L176.498 346.235L176.451 346.183C164.987 333.467 154.188 321.489 144.217 310.43L144.419 310.492C135.895 312.571 127.899 314.52 120.346 316.362L120.458 316.283C107.944 335.162 97.603 350.763 89.9403 362.321L89.9565 362.283C87.7306 371.702 86.0178 378.95 84.8597 383.855C84.2764 386.294 83.8328 388.147 83.5335 389.401C83.2324 390.644 83.0642 391.272 83.0642 391.272C83.0642 391.272 83.1934 390.63 83.4746 389.378C83.7615 388.121 84.1862 386.261 84.7438 383.814C85.8772 378.907 87.553 371.653 89.7294 362.228L89.7342 362.208L89.7456 362.19C97.3779 350.612 107.68 334.985 120.146 316.074L120.186 316.013L120.259 315.996C127.808 314.142 135.802 312.18 144.322 310.089L144.442 310.059L144.524 310.151C154.508 321.201 165.319 333.167 176.796 345.871L176.681 345.802C185.97 348.148 195.556 350.571 205.397 353.057L205.414 353.062L205.431 353.068C219.608 358.982 234.333 365.124 249.438 371.425L250.01 371.664L249.431 371.884C247.121 372.766 244.8 373.651 242.471 374.539C170.81 401.836 106.906 426.177 66.1096 441.717L65.8673 441.809L65.9015 441.552C67.1299 432.317 68.2186 424.133 69.1372 417.228L69.1401 417.207L69.1505 417.188C73.6098 408.854 77.0773 402.375 79.4343 397.97C80.6151 395.779 81.5157 394.106 82.1275 392.97C82.7365 391.844 83.0642 391.272 83.0642 391.272Z" fill="#263238"/>
<path d="M394.666 296.924C394.711 296.881 395.537 297.63 396.763 298.952C397.989 300.27 399.598 302.175 401.224 304.393C402.847 306.613 404.177 308.722 405.065 310.29C405.954 311.857 406.42 312.87 406.364 312.901C406.3 312.936 405.726 311.984 404.765 310.47C403.805 308.956 402.438 306.892 400.824 304.686C399.208 302.482 397.653 300.555 396.5 299.184C395.347 297.81 394.613 296.976 394.666 296.924Z" fill="#263238"/>
<path d="M403.178 288.339C403.25 288.324 403.58 289.646 404.146 291.773C404.711 293.899 405.537 296.822 406.578 300.01C407.622 303.199 408.676 306.049 409.455 308.107C410.234 310.165 410.722 311.438 410.656 311.466C410.624 311.479 410.462 311.178 410.195 310.622C409.926 310.067 409.562 309.253 409.13 308.237C408.266 306.208 407.157 303.365 406.108 300.163C405.062 296.96 404.287 294.009 403.807 291.855C403.567 290.778 403.391 289.903 403.289 289.294C403.186 288.686 403.145 288.347 403.178 288.339Z" fill="#263238"/>
<path d="M417.521 293.842C417.59 293.883 417.127 294.646 416.64 295.98C416.149 297.31 415.704 299.235 415.604 301.401C415.568 303.575 415.452 305.574 415.536 306.984C415.622 308.405 415.756 309.288 415.679 309.301C415.622 309.311 415.367 308.455 415.187 307.013C415.011 305.558 415.072 303.582 415.109 301.376C415.21 299.159 415.726 297.18 416.314 295.851C416.901 294.514 417.476 293.809 417.521 293.842Z" fill="#263238"/>
<path d="M148.362 411.878C148.236 411.978 146.566 409.541 143.656 407.463C140.768 405.354 137.93 404.537 137.985 404.386C138.001 404.329 138.729 404.457 139.849 404.865C140.967 405.271 142.464 405.996 143.946 407.063C145.424 408.132 146.582 409.325 147.319 410.26C148.06 411.194 148.411 411.845 148.362 411.878Z" fill="#263238"/>
<path d="M148.375 392.099C148.46 392.113 148.287 393.156 148.259 394.847C148.227 396.536 148.414 398.879 149.12 401.356C149.835 403.831 150.92 405.917 151.843 407.33C152.764 408.748 153.463 409.541 153.398 409.598C153.373 409.621 153.178 409.442 152.844 409.097C152.504 408.758 152.059 408.223 151.554 407.527C150.54 406.141 149.376 404.026 148.644 401.492C147.921 398.956 147.785 396.546 147.909 394.833C147.968 393.976 148.062 393.286 148.17 392.817C148.27 392.348 148.342 392.092 148.375 392.099Z" fill="#263238"/>
<path d="M158.181 397.121C158.251 397.162 157.961 397.71 157.656 398.642C157.348 399.572 157.073 400.909 157.119 402.4C157.171 403.891 157.533 405.207 157.901 406.115C158.267 407.026 158.592 407.554 158.525 407.598C158.481 407.632 158.047 407.167 157.582 406.259C157.117 405.356 156.678 403.982 156.624 402.416C156.575 400.851 156.923 399.451 157.329 398.52C157.731 397.582 158.134 397.09 158.181 397.121Z" fill="#263238"/>
<path d="M60.2518 397.859C62.4273 397.585 64.6484 398.433 66.3375 399.83C68.0276 401.228 69.2331 403.133 70.1299 405.135C71.8656 409.006 71.971 413.889 71.4675 418.102C66.8344 417.243 63.3792 413.008 61.7614 410.749C59.204 407.179 56.7501 399.174 60.2518 397.859Z" fill="#FF725E"/>
<path d="M78.5631 421.989C76.8607 420.228 76.3829 417.474 77.1267 415.139C77.8706 412.805 79.7193 410.911 81.9166 409.828C82.9322 409.327 84.151 408.989 85.1808 409.46C86.1441 409.9 86.7037 410.979 86.7588 412.037C86.8148 413.094 86.4415 414.131 85.956 415.071C84.2916 418.298 82.0876 421.116 78.5631 421.989Z" fill="#FF725E"/>
<path d="M81.2278 435.432C81.2069 435.439 81.0919 435.149 80.8962 434.623C80.6825 434.042 80.4061 433.291 80.0736 432.39C79.4152 430.506 78.4215 427.837 78.3436 424.722C78.2524 421.623 79.0419 418.834 80.0584 417.079C80.5552 416.195 81.0625 415.543 81.4492 415.132C81.6335 414.918 81.8045 414.777 81.9099 414.673C82.0192 414.572 82.0799 414.524 82.0875 414.532C82.1445 414.578 81.1793 415.411 80.2493 417.183C79.3002 418.931 78.5621 421.667 78.6505 424.715C78.7246 427.766 79.6707 430.417 80.2778 432.319C80.5922 433.273 80.8469 434.046 81.0084 434.585C81.1708 435.125 81.2477 435.427 81.2278 435.432Z" fill="#263238"/>
<path d="M62.6591 403.791C62.6677 403.785 62.7465 403.89 62.889 404.094C63.0467 404.327 63.2481 404.626 63.498 404.996C64.0224 405.783 64.7662 406.93 65.6725 408.356C67.487 411.207 69.939 415.183 72.5467 419.632C75.1545 424.084 77.4231 428.166 79.0238 431.143C79.8247 432.632 80.4621 433.841 80.8915 434.683C81.092 435.082 81.2544 435.404 81.3808 435.655C81.49 435.879 81.5423 435.999 81.5328 436.003C81.5233 436.008 81.453 435.898 81.3257 435.684C81.186 435.44 81.0074 435.126 80.7851 434.739C80.3054 433.881 79.6423 432.696 78.8319 431.247C77.1837 428.298 74.8856 424.236 72.2807 419.786C69.6749 415.34 67.2543 411.35 65.4873 408.469C64.619 407.054 63.9103 405.897 63.3963 405.058C63.1664 404.675 62.9812 404.365 62.8358 404.125C62.7114 403.912 62.6506 403.796 62.6591 403.791Z" fill="#263238"/>
<path d="M74.5835 427.326C71.2908 423.347 65.9832 421.129 60.838 421.581C59.5279 421.696 58.0051 422.166 57.6156 423.422C57.2251 424.679 58.2217 425.933 59.2581 426.747C63.5702 430.13 70.0036 430.513 74.688 427.667" fill="#FF725E"/>
<path d="M63.3707 424.73C63.3688 424.709 63.6586 424.674 64.1868 424.629C64.4509 424.604 64.7739 424.577 65.1501 424.586C65.5263 424.596 65.9566 424.566 66.4288 424.62C66.9019 424.658 67.4215 424.688 67.9706 424.792C68.5254 424.863 69.1059 425.002 69.7167 425.152C70.928 425.482 72.2342 425.96 73.5148 426.647C74.7897 427.346 75.905 428.178 76.8379 429.02C77.292 429.455 77.7243 429.867 78.0805 430.301C78.4624 430.71 78.7645 431.134 79.0467 431.516C79.3431 431.887 79.5435 432.27 79.7487 432.585C79.9549 432.901 80.0993 433.191 80.2152 433.43C80.4508 433.904 80.5714 434.17 80.5524 434.179C80.4916 434.213 79.9995 433.144 78.8719 431.645C78.5821 431.276 78.2743 430.866 77.8896 430.471C77.5314 430.052 77.0982 429.654 76.647 429.231C75.7188 428.415 74.6187 427.605 73.3676 426.919C72.1098 426.243 70.8301 425.766 69.6417 425.426C69.0432 425.271 68.4732 425.125 67.9279 425.044C67.3883 424.931 66.8762 424.889 66.4098 424.838C64.5421 424.671 63.3736 424.797 63.3707 424.73Z" fill="#263238"/>
<path d="M454.878 155.452C449.44 156.506 443.965 157.27 438.459 157.045C430.638 156.724 422.634 154.218 416.802 148.446C410.372 142.081 407.065 132.316 400.029 126.788C393.72 121.832 383.974 122.079 377.174 126.164V171.042C380.619 168.353 386.987 162.905 396.705 167.69C400.551 169.585 404.013 171.633 407.718 173.859C418.107 180.099 428.814 179.592 439.754 174.708C443.835 172.886 449.463 169.257 456.434 161.415C459.612 157.842 457.119 155.017 454.878 155.452Z" fill="#FF725E"/>
<path d="M377.768 322.527C377.768 320.54 377.768 318.554 377.768 316.568C377.768 311.49 377.768 306.413 377.768 301.335C377.768 293.956 377.768 286.576 377.768 279.196C377.768 270.208 377.768 261.221 377.768 252.233C377.768 242.417 377.768 232.602 377.768 222.786C377.768 212.938 377.768 203.089 377.768 193.24C377.768 184.033 377.768 174.826 377.768 165.617C377.768 157.846 377.768 150.074 377.768 142.303C377.768 136.741 377.768 131.178 377.768 125.616C377.768 122.972 377.823 120.322 377.768 117.679C377.767 117.566 377.768 117.453 377.768 117.34C377.768 116.576 376.581 116.574 376.581 117.34C376.581 119.156 376.581 120.972 376.581 122.787C376.581 127.731 376.581 132.675 376.581 137.619C376.581 144.903 376.581 152.185 376.581 159.469C376.581 168.397 376.581 177.325 376.581 186.253C376.581 196.046 376.581 205.837 376.581 215.63C376.581 225.493 376.581 235.355 376.581 245.218C376.581 254.476 376.581 263.734 376.581 272.993C376.581 280.852 376.581 288.712 376.581 296.57C376.581 302.257 376.581 307.943 376.581 313.63C376.581 316.436 376.547 319.245 376.581 322.051C376.583 322.209 376.581 322.366 376.581 322.524C376.581 323.291 377.768 323.292 377.768 322.527Z" fill="#263238"/>
<path d="M197.995 123.895L196.921 117.161C199.619 112.769 201.048 107.515 200.694 101.907C199.857 88.6815 188.886 78.0672 175.64 77.6406C160.334 77.1485 147.887 89.9013 148.872 105.297C149.708 118.367 160.427 128.902 173.51 129.527C180.002 129.837 185.995 127.756 190.7 124.098L190.692 124.11L197.995 123.895Z" fill="white"/>
<path d="M197.995 123.895C197.995 123.895 197.849 123.911 197.539 123.927C197.206 123.943 196.745 123.964 196.151 123.992C194.887 124.043 193.056 124.116 190.694 124.211C190.639 124.213 190.593 124.171 190.591 124.116C190.59 124.092 190.598 124.068 190.612 124.051C190.612 124.051 190.617 124.043 190.62 124.04L190.762 124.179C188.223 126.168 184.403 128.42 179.307 129.324C176.774 129.783 173.958 129.867 171.003 129.469C168.054 129.046 164.984 128.065 162.061 126.441C159.15 124.807 156.406 122.516 154.155 119.639C151.913 116.767 150.114 113.312 149.268 109.474C148.392 105.653 148.373 101.511 149.313 97.4775C150.229 93.4334 152.259 89.5621 155.106 86.3236C156.508 84.6449 158.201 83.2712 159.922 82.0058C160.826 81.4377 161.724 80.8554 162.66 80.3652L164.091 79.685L164.805 79.3506L165.546 79.0884C169.47 77.613 173.631 77.1637 177.566 77.5598C181.518 77.937 185.195 79.343 188.333 81.2525C191.476 83.1772 194.081 85.6681 196.046 88.3965C198.003 91.1363 199.329 94.0974 200.082 96.9949C200.236 97.7274 200.387 98.4484 200.535 99.1571C200.668 99.8677 200.706 100.581 200.793 101.274C200.945 102.662 200.923 104.012 200.844 105.297C200.497 110.47 198.682 114.504 197.001 117.213L197.015 117.146C197.337 119.319 197.587 121.01 197.761 122.183C197.838 122.732 197.899 123.16 197.943 123.471C197.985 123.757 198.002 123.901 197.995 123.895C197.995 123.895 197.958 123.735 197.904 123.439C197.848 123.124 197.772 122.691 197.673 122.135C197.476 120.98 197.191 119.314 196.825 117.176C196.821 117.153 196.827 117.128 196.838 117.109C198.469 114.397 200.225 110.387 200.532 105.275C200.6 104.005 200.613 102.671 200.455 101.302C200.364 100.62 200.323 99.9171 200.189 99.216C200.039 98.5187 199.886 97.8091 199.73 97.0871C198.971 94.2342 197.651 91.3244 195.714 88.6349C193.77 85.9559 191.198 83.5144 188.102 81.6315C185.011 79.7629 181.398 78.3911 177.518 78.0282C173.653 77.6472 169.567 78.0937 165.72 79.5444L164.992 79.8018L164.292 80.1305L162.889 80.7984C161.97 81.28 161.091 81.8529 160.203 82.4096C158.515 83.6531 156.854 85.0002 155.478 86.6485C152.685 89.8262 150.691 93.6224 149.79 97.5896C148.864 101.546 148.877 105.615 149.73 109.366C150.553 113.134 152.312 116.532 154.508 119.362C156.714 122.197 159.405 124.459 162.265 126.079C165.135 127.688 168.153 128.669 171.058 129.1C173.968 129.508 176.748 129.443 179.254 129.006C184.292 128.148 188.095 125.958 190.64 124.018C190.684 123.983 190.747 123.991 190.781 124.035C190.809 124.071 190.808 124.122 190.782 124.158C190.779 124.162 190.773 124.17 190.773 124.17L190.691 124.009C193.028 123.965 194.837 123.932 196.089 123.908C196.693 123.901 197.162 123.894 197.502 123.89C197.821 123.888 197.995 123.895 197.995 123.895Z" fill="#263238"/>
<path d="M189.067 78.8367H174.819H160.571C160.478 79.0865 158.578 105.573 174.819 106.073C191.061 105.573 189.16 79.0865 189.067 78.8367Z" fill="#FF725E"/>
<path d="M190.865 79.5843H158.749C158.034 79.5843 157.456 79.0058 157.456 78.2914V77.5361C157.456 76.8217 158.034 76.2432 158.749 76.2432H190.865C191.58 76.2432 192.158 76.8217 192.158 77.5361V78.2914C192.158 79.0058 191.579 79.5843 190.865 79.5843Z" fill="#FF725E"/>
<path d="M165.901 101.527C160.754 100.181 157.291 96.4335 155.885 90.6908C154.849 86.4547 155.295 82.6604 155.315 82.5008L155.416 81.6791H162.724V83.5496H157.109C157.041 84.8426 157.022 87.495 157.715 90.2946C158.972 95.3724 161.886 98.5425 166.375 99.7167L165.901 101.527Z" fill="#FF725E"/>
<path d="M183.675 101.527L183.201 99.7177C187.706 98.5397 190.623 95.3525 191.873 90.2462C192.556 87.4551 192.536 84.8331 192.468 83.5506H186.852V81.6801H194.16L194.261 82.5018C194.281 82.6614 194.727 86.4557 193.691 90.6918C192.285 96.4336 188.822 100.181 183.675 101.527Z" fill="#FF725E"/>
<path d="M177.651 107.641C177.002 105.013 176.75 103.205 176.714 101.962H174.818H172.923C172.887 103.205 172.636 105.013 171.986 107.641C169.868 116.213 162.277 116.678 162.277 116.678V119.105H174.818H187.359V116.678C187.359 116.678 179.768 116.213 177.651 107.641Z" fill="#FF725E"/>
<path d="M189.967 79.476C189.967 79.6128 183.23 79.723 174.923 79.723C166.613 79.723 159.878 79.6118 159.878 79.476C159.878 79.3392 166.613 79.229 174.923 79.229C183.231 79.229 189.967 79.3392 189.967 79.476Z" fill="#263238"/>
<path d="M186.15 97.8889C186.179 97.9013 186.04 98.2917 185.739 98.9824C185.405 99.654 184.891 100.628 184.023 101.671C183.158 102.708 181.932 103.812 180.331 104.647C178.731 105.468 176.76 106 174.676 105.953C172.601 105.933 170.624 105.387 169.06 104.49C167.484 103.602 166.321 102.428 165.487 101.373C164.655 100.307 164.106 99.3624 163.764 98.6945C163.42 98.0267 163.266 97.641 163.293 97.6277C163.385 97.5726 164.074 99.1049 165.758 101.151C166.608 102.156 167.759 103.262 169.281 104.091C170.792 104.928 172.682 105.437 174.684 105.457C176.686 105.502 178.575 105.005 180.125 104.24C181.674 103.459 182.883 102.423 183.758 101.442C185.494 99.4422 186.05 97.8329 186.15 97.8889Z" fill="#263238"/>
<path opacity="0.3" d="M175.571 86.4082L176.561 88.4136C176.684 88.6606 176.919 88.8326 177.193 88.8725L179.406 89.1945C180.094 89.2943 180.369 90.1398 179.871 90.6252L178.269 92.1861C178.072 92.3789 177.981 92.6563 178.028 92.928L178.406 95.132C178.524 95.817 177.805 96.3395 177.189 96.0165L175.209 94.9753C174.965 94.847 174.674 94.847 174.428 94.9753L172.449 96.0165C171.833 96.3395 171.115 95.8179 171.232 95.132L171.61 92.928C171.656 92.6563 171.566 92.378 171.369 92.1861L169.767 90.6252C169.269 90.1398 169.544 89.2952 170.231 89.1945L172.445 88.8725C172.718 88.8326 172.954 88.6616 173.077 88.4136L174.067 86.4082C174.374 85.785 175.264 85.785 175.571 86.4082Z" fill="black"/>
<path d="M186.875 116.782C186.875 116.918 181.319 117.029 174.466 117.029C167.611 117.029 162.057 116.918 162.057 116.782C162.057 116.645 167.612 116.535 174.466 116.535C181.319 116.535 186.875 116.646 186.875 116.782Z" fill="#263238"/>
<path d="M305.8 204.487C306.098 204.449 309.611 204.137 310.314 203.143C311.017 202.15 310.398 200.869 310.398 200.869C310.398 200.869 311.631 199.878 311.775 198.65C311.918 197.421 311.006 196.129 311.006 196.129L311.347 195.001C311.846 193.349 311.038 192.601 311.038 192.601C311.038 192.601 309.819 191.779 309.476 190.547C309.133 189.315 305.273 188.801 303.398 188.432C301.411 188.04 299.021 187.533 297.102 189.86C294.529 192.983 290.175 197.917 290.175 197.917L293.845 207.922C293.845 207.922 295.486 208.919 299.146 207.993C302.806 207.067 305.8 204.487 305.8 204.487Z" fill="#FFBF9D"/>
<path d="M303.647 202.533L329.068 341.056L330.117 340.71L306.436 200.192L303.647 202.533Z" fill="#455A64"/>
<path d="M301.867 197.141C301.867 197.141 300.023 191.82 297.897 189.739C295.771 187.657 293.881 186.742 296.178 185.197C298.475 183.651 304.271 181.4 304.917 183.139C305.563 184.879 304.754 184.123 304.507 185.502C304.26 186.88 306.917 193.054 307.687 195.573C308.458 198.091 311.377 206.046 310.321 206.669C309.563 207.116 305.832 207.53 303.788 207.729C303.05 207.8 302.411 207.242 302.371 206.501L301.867 197.141Z" fill="#263238"/>
<path d="M314.723 198.084C314.149 194.899 311.964 190.603 307.24 188.724C302.515 186.845 303.14 187.581 303.14 187.581L302.608 189.58C308.716 189.315 311.117 194.41 311.897 195.489C312.879 196.85 313.51 200.104 312.253 200.846C310.996 201.588 308.209 200.131 308.209 200.131L306.627 201.3C306.627 201.3 311.013 203.801 312.994 203.792C314.974 203.784 315.376 201.714 314.723 198.084Z" fill="#263238"/>
<path d="M318.863 266.638C318.905 267.869 317.941 268.899 316.711 268.941C315.481 268.983 314.45 268.02 314.408 266.789C314.366 265.559 315.33 264.528 316.56 264.487C317.79 264.445 318.821 265.408 318.863 266.638Z" fill="#455A64"/>
<path d="M326.532 310.833C326.568 311.9 325.732 312.795 324.665 312.831C323.599 312.867 322.704 312.031 322.668 310.964C322.632 309.898 323.468 309.003 324.534 308.967C325.602 308.929 326.496 309.765 326.532 310.833Z" fill="#455A64"/>
<path d="M309.973 196.331C308.733 196.773 307.441 197.068 306.132 197.21C305.523 197.275 304.909 197.307 304.308 197.426C303.707 197.545 303.112 197.756 302.634 198.14C302.157 198.523 301.809 199.098 301.799 199.71C301.788 200.323 302.164 200.95 302.746 201.141C302.156 201.393 301.886 202.148 302.061 202.765C302.236 203.383 302.768 203.852 303.362 204.096C303.955 204.34 304.61 204.39 305.251 204.405C306.201 204.428 307.157 204.381 308.087 204.187C308.894 204.019 309.717 203.715 310.246 203.083C310.775 202.452 310.896 201.423 310.326 200.828C310.843 200.422 311.194 199.811 311.285 199.16" fill="#FFBF9D"/>
<path d="M302.149 196.958C301.481 196.628 300.955 195.915 301.05 195.176C301.161 194.321 302.006 193.767 302.81 193.452C304.723 192.704 306.825 192.641 308.879 192.587L309.878 193.181C310.08 193.592 310.284 194.011 310.357 194.462C310.429 194.914 310.35 195.413 310.042 195.751C309.749 196.074 309.305 196.202 308.884 196.316C307.388 196.722 306.516 197.065 304.97 197.184C304.228 197.24 302.816 197.286 302.149 196.958Z" fill="#FFBF9D"/>
<path d="M310.398 200.869C310.396 200.808 309.6 200.778 308.315 200.778C307.03 200.777 305.255 200.807 303.295 200.867C303.05 200.875 302.809 200.882 302.569 200.891C302.49 200.897 302.494 200.883 302.347 200.909C302.247 200.937 302.167 200.987 302.104 201.048C301.974 201.168 301.914 201.314 301.876 201.447C301.748 201.985 301.861 202.442 301.951 202.869C302.052 203.329 302.355 203.725 302.692 203.949C303.029 204.181 303.379 204.316 303.7 204.396C304.344 204.563 304.876 204.572 305.239 204.567C305.603 204.558 305.801 204.517 305.8 204.487C305.806 204.411 304.986 204.458 303.788 204.1C303.216 203.913 302.488 203.544 302.344 202.78C302.264 202.386 302.189 201.934 302.287 201.568C302.312 201.481 302.352 201.404 302.397 201.366C302.458 201.319 302.43 201.331 302.589 201.326C302.828 201.319 303.07 201.312 303.314 201.305C305.272 201.245 307.044 201.167 308.325 201.088C309.607 201.009 310.399 200.93 310.398 200.869Z" fill="#FF9A6C"/>
<path d="M311.006 196.129C310.996 196.07 310.333 196.136 309.264 196.29C308.195 196.443 306.721 196.684 305.088 196.978L305.129 196.974C305.07 196.976 305.006 196.978 304.941 196.979C304.067 197.027 303.224 197.221 302.559 197.664C301.876 198.104 301.573 198.881 301.617 199.473C301.657 200.078 301.904 200.5 302.083 200.76C302.268 201.021 302.413 201.131 302.434 201.111C302.457 201.09 302.361 200.947 302.23 200.672C302.103 200.401 301.922 199.985 301.927 199.468C301.933 198.957 302.2 198.353 302.781 197.999C303.357 197.637 304.146 197.457 304.96 197.415C305.017 197.413 305.072 197.412 305.124 197.41L305.15 197.409L305.165 197.406C306.797 197.11 308.262 196.819 309.317 196.588C310.373 196.359 311.017 196.188 311.006 196.129Z" fill="#FF9A6C"/>
<path d="M311.037 192.601C311.01 192.543 310.079 192.911 308.601 193.552L308.666 193.537C307.266 193.517 305.378 193.515 303.307 193.538C302.85 193.543 302.402 193.549 301.971 193.555L301.875 193.556L301.817 193.621C301.479 194.001 301.224 194.402 301.055 194.847C300.885 195.283 300.839 195.78 300.988 196.21C301.112 196.644 301.485 196.976 301.832 197.112C302.183 197.266 302.523 197.316 302.827 197.343C303.437 197.395 303.917 197.332 304.244 197.285C304.571 197.231 304.745 197.173 304.74 197.147C304.735 197.078 304.011 197.207 302.86 197.061C302.319 196.977 301.536 196.791 301.349 196.092C301.132 195.419 301.546 194.563 302.128 193.92L301.975 193.986C302.406 193.982 302.854 193.979 303.311 193.975C305.382 193.952 307.269 193.91 308.668 193.859L308.707 193.858L308.735 193.845C310.182 193.131 311.064 192.659 311.037 192.601Z" fill="#FF9A6C"/>
<path d="M293.066 197.42C293.066 197.42 297.761 190.398 297.991 190.287C298.22 190.176 305.729 189.206 307.45 189.958C309.171 190.711 311.261 191.805 311.261 191.805C311.261 191.805 311.511 193.738 308.524 193.88C305.538 194.022 302.427 193.944 302.427 193.944L300.785 196.334C300.785 196.334 301.459 202.74 295.78 204.54" fill="#FFBF9D"/>
<path d="M295.78 204.54C295.784 204.557 296.03 204.479 296.492 204.316C296.73 204.248 296.997 204.107 297.309 203.935C297.636 203.786 297.958 203.529 298.329 203.253C299.032 202.662 299.77 201.771 300.27 200.575C300.758 199.378 301.049 197.925 300.954 196.316L300.925 196.43C301.45 195.672 302.003 194.876 302.579 194.048L302.422 194.128C303.866 194.163 305.397 194.169 306.997 194.132C307.797 194.097 308.608 194.126 309.469 193.96C309.89 193.862 310.32 193.712 310.689 193.429C311.06 193.154 311.344 192.731 311.433 192.26C311.464 192.099 311.477 191.949 311.462 191.778L311.454 191.671L311.355 191.624C310.653 191.284 309.96 190.949 309.277 190.618C308.936 190.454 308.597 190.29 308.261 190.127C307.91 189.976 307.625 189.778 307.22 189.677C306.462 189.488 305.739 189.495 305.028 189.483C304.318 189.479 303.628 189.519 302.955 189.556C301.61 189.648 300.339 189.779 299.152 189.935C298.855 189.979 298.563 190.022 298.276 190.065L298.054 190.105C298.008 190.118 297.962 190.127 297.918 190.144C297.878 190.178 297.838 190.216 297.802 190.254C297.695 190.384 297.62 190.487 297.535 190.603C297.22 191.058 296.916 191.495 296.625 191.913C295.488 193.593 294.592 194.964 293.979 195.916C293.697 196.364 293.466 196.729 293.284 197.018C293.129 197.272 293.053 197.41 293.066 197.418C293.077 197.425 293.175 197.304 293.351 197.063C293.55 196.785 293.801 196.434 294.11 196.004C294.79 195.033 295.721 193.703 296.86 192.077C297.155 191.665 297.465 191.236 297.786 190.788L298.03 190.475L298.046 190.455L298.053 190.444L298.057 190.437C298.051 190.421 298.079 190.474 298.025 190.36C298.077 190.452 298.069 190.424 298.077 190.427L298.095 190.424L298.13 190.416L298.33 190.383C298.614 190.345 298.902 190.306 299.195 190.267C300.375 190.125 301.643 190.008 302.978 189.928C303.646 189.896 304.331 189.861 305.027 189.869C305.718 189.881 306.448 189.888 307.112 190.059C307.424 190.128 307.765 190.347 308.095 190.492C308.429 190.655 308.765 190.818 309.104 190.982C309.783 191.311 310.47 191.645 311.167 191.984L311.059 191.83C311.066 191.921 311.06 192.061 311.035 192.181C310.9 192.953 310.143 193.41 309.383 193.564C308.613 193.717 307.78 193.698 306.989 193.734C305.397 193.778 303.867 193.781 302.433 193.758L302.331 193.756L302.275 193.838C301.708 194.672 301.162 195.474 300.645 196.236L300.611 196.285L300.616 196.351C300.723 197.876 300.464 199.313 300.015 200.471C299.552 201.634 298.866 202.508 298.202 203.103C296.812 204.253 295.74 204.461 295.78 204.54Z" fill="#FF9A6C"/>
<path d="M290.754 195.977L262.993 200.13L255.334 173.692L246.029 213.244L251.719 217.122C255.28 219.549 259.738 220.26 263.878 219.062L295.454 210.472L290.754 195.977Z" fill="#FF725E"/>
<path d="M245.078 158.551L247.736 158.68L249.242 159.297C253.893 167.845 256.628 176.804 257.053 186.526L257.5 196.761L257.349 261.272L235.453 258.245L232.704 239.512L245.078 158.551Z" fill="#FF725E"/>
<path opacity="0.3" d="M256.709 256.669C256.709 256.669 256.751 235.175 256.869 227.016C256.986 218.856 254.535 189.313 254.535 189.313C254.535 189.313 245.344 249.479 245.674 249.571C246.003 249.663 256.709 256.669 256.709 256.669Z" fill="black"/>
<path d="M253.903 172.763C253.919 172.758 253.974 172.916 254.063 173.219C254.163 173.58 254.285 174.021 254.433 174.557C254.718 175.726 255.065 177.437 255.373 179.568C256.018 183.828 256.457 189.762 256.767 196.313C257.063 202.868 257.213 208.803 257.385 213.094C257.479 215.184 257.555 216.901 257.611 218.176C257.636 218.729 257.658 219.185 257.675 219.558C257.685 219.875 257.681 220.042 257.664 220.044C257.647 220.046 257.617 219.881 257.575 219.568C257.533 219.196 257.48 218.742 257.418 218.191C257.298 216.994 257.16 215.26 257.035 213.113C256.773 208.82 256.568 202.886 256.272 196.336C255.962 189.792 255.58 183.87 255.027 179.616C254.763 177.488 254.471 175.777 254.245 174.599C254.134 174.057 254.041 173.61 253.967 173.245C253.908 172.934 253.886 172.768 253.903 172.763Z" fill="#263238"/>
<path d="M214.848 370.536L213.332 382.418L213.526 383.947C213.526 383.947 232.714 387.704 233.463 391.012L198.487 396.715L197.136 388.69L199.014 369.116L214.848 370.536Z" fill="#263238"/>
<path d="M202.463 384.196C201.816 384.491 201.473 385.328 201.741 385.987C202.01 386.645 202.858 387.002 203.51 386.717C204.162 386.433 204.604 385.44 204.264 384.816C203.924 384.192 202.905 383.828 202.339 384.261" fill="#E0E0E0"/>
<path d="M198.486 396.716L198.121 393.866L231.792 389.463C231.792 389.463 233.46 389.887 233.463 391.012L198.486 396.716Z" fill="#455A64"/>
<path d="M214.063 383.677C214.084 383.849 213.244 384.066 212.493 384.752C211.725 385.419 211.412 386.229 211.243 386.186C211.08 386.179 211.169 385.117 212.092 384.301C213.008 383.479 214.074 383.515 214.063 383.677Z" fill="white"/>
<path d="M217.978 384.596C218.045 384.756 217.352 385.166 216.89 385.983C216.403 386.787 216.384 387.591 216.213 387.611C216.058 387.664 215.776 386.683 216.37 385.679C216.955 384.669 217.948 384.435 217.978 384.596Z" fill="white"/>
<path d="M220.778 388.647C220.629 388.708 220.252 387.894 220.538 386.887C220.817 385.878 221.562 385.378 221.657 385.508C221.776 385.632 221.34 386.219 221.117 387.049C220.877 387.874 220.945 388.603 220.778 388.647Z" fill="white"/>
<path d="M305.213 338.639L305.315 350.617L305.713 352.106C305.713 352.106 325.233 353.239 326.422 356.414L292.536 366.787L290.115 359.019L289.332 339.37L305.213 338.639Z" fill="#263238"/>
<path d="M294.786 353.846C294.185 354.226 293.958 355.102 294.313 355.719C294.668 356.335 295.557 356.574 296.165 356.204C296.772 355.835 297.077 354.792 296.655 354.219C296.233 353.647 295.174 353.423 294.673 353.927" fill="#E0E0E0"/>
<path d="M292.536 366.788L291.79 364.014L324.558 355.106C324.558 355.106 326.267 355.301 326.422 356.415L292.536 366.788Z" fill="#455A64"/>
<path d="M306.21 351.766C306.254 351.933 305.451 352.261 304.799 353.043C304.127 353.808 303.927 354.652 303.755 354.633C303.592 354.648 303.536 353.583 304.342 352.651C305.138 351.712 306.199 351.604 306.21 351.766Z" fill="white"/>
<path d="M310.213 352.148C310.3 352.296 309.67 352.798 309.322 353.67C308.949 354.531 309.039 355.331 308.872 355.374C308.724 355.448 308.313 354.513 308.766 353.438C309.21 352.359 310.162 351.991 310.213 352.148Z" fill="white"/>
<path d="M313.534 355.784C313.395 355.864 312.911 355.109 313.059 354.073C313.2 353.035 313.87 352.439 313.982 352.556C314.117 352.663 313.763 353.303 313.656 354.155C313.528 355.006 313.694 355.717 313.534 355.784Z" fill="white"/>
<path d="M228.57 158.568L226.934 122.846C226.238 113.973 230.821 106.173 239.71 105.722L240.533 105.728C248.824 105.792 255.679 112.209 256.283 120.479C256.844 128.173 257.365 136.681 257.282 140.806C257.111 149.345 248.559 150.607 248.559 150.607C248.54 150.608 248.681 155.797 248.769 158.302L250.969 164.086L243.894 162.612L228.57 158.568Z" fill="#FFBF9D"/>
<path d="M248.558 150.607C248.558 150.607 243.173 150.882 237.464 147.235C237.464 147.235 240.09 153.676 248.617 152.972L248.558 150.607Z" fill="#FF9A6C"/>
<path d="M253.482 127.906C253.5 128.55 252.969 129.096 252.296 129.128C251.626 129.158 251.065 128.662 251.048 128.018C251.03 127.374 251.561 126.827 252.232 126.795C252.904 126.764 253.464 127.262 253.482 127.906Z" fill="#263238"/>
<path d="M254.437 124.236C254.285 124.394 253.366 123.703 252.053 123.697C250.742 123.671 249.774 124.339 249.634 124.177C249.564 124.106 249.72 123.82 250.142 123.518C250.557 123.218 251.263 122.927 252.081 122.937C252.898 122.948 253.584 123.254 253.977 123.565C254.378 123.877 254.512 124.166 254.437 124.236Z" fill="#263238"/>
<path d="M241.496 128.096C241.514 128.74 240.983 129.286 240.31 129.317C239.639 129.348 239.079 128.852 239.062 128.207C239.044 127.563 239.575 127.016 240.247 126.986C240.919 126.955 241.479 127.452 241.496 128.096Z" fill="#263238"/>
<path d="M241.571 124.441C241.418 124.599 240.498 123.908 239.187 123.902C237.876 123.876 236.908 124.544 236.767 124.383C236.698 124.31 236.852 124.025 237.276 123.723C237.691 123.422 238.397 123.132 239.215 123.142C240.032 123.153 240.718 123.459 241.111 123.77C241.51 124.082 241.645 124.371 241.571 124.441Z" fill="#263238"/>
<path d="M246.2 134.562C246.194 134.487 247.011 134.353 248.335 134.193C248.67 134.161 248.988 134.097 249.046 133.869C249.127 133.628 248.989 133.266 248.831 132.875C248.522 132.061 248.199 131.208 247.86 130.315C246.512 126.671 245.538 123.677 245.685 123.624C245.833 123.57 247.045 126.481 248.393 130.124C248.717 131.023 249.027 131.879 249.323 132.699C249.446 133.081 249.661 133.515 249.486 134.016C249.394 134.265 249.147 134.445 248.931 134.501C248.716 134.565 248.528 134.568 248.361 134.576C247.03 134.637 246.205 134.637 246.2 134.562Z" fill="#263238"/>
<path d="M242.027 120.34C241.846 120.674 240.575 120.312 239.025 120.266C237.475 120.19 236.181 120.45 236.026 120.105C235.958 119.939 236.222 119.64 236.771 119.373C237.314 119.106 238.148 118.9 239.077 118.935C240.006 118.973 240.821 119.244 241.342 119.553C241.867 119.861 242.108 120.181 242.027 120.34Z" fill="#263238"/>
<path d="M254.527 120.378C254.256 120.678 253.186 120.376 251.9 120.371C250.616 120.328 249.529 120.588 249.276 120.278C249.166 120.128 249.334 119.828 249.808 119.543C250.275 119.258 251.057 119.023 251.94 119.04C252.824 119.057 253.59 119.322 254.04 119.624C254.495 119.926 254.646 120.232 254.527 120.378Z" fill="#263238"/>
<path d="M227.582 129.175C227.437 129.112 221.727 127.395 221.869 133.235C222.01 139.074 227.844 137.728 227.85 137.56C227.857 137.392 227.582 129.175 227.582 129.175Z" fill="#FFBF9D"/>
<path d="M226.013 135.39C225.987 135.372 225.913 135.463 225.743 135.547C225.578 135.628 225.29 135.688 224.983 135.581C224.361 135.369 223.817 134.403 223.763 133.351C223.736 132.82 223.834 132.31 224.012 131.888C224.18 131.456 224.449 131.151 224.759 131.088C225.066 131.009 225.291 131.189 225.366 131.352C225.447 131.513 225.413 131.63 225.445 131.64C225.461 131.654 225.567 131.539 225.515 131.299C225.488 131.183 225.416 131.047 225.276 130.939C225.134 130.828 224.926 130.775 224.71 130.804C224.261 130.845 223.866 131.27 223.669 131.735C223.449 132.202 223.324 132.774 223.356 133.371C223.421 134.547 224.051 135.633 224.9 135.857C225.313 135.954 225.654 135.822 225.826 135.68C226.006 135.532 226.034 135.401 226.013 135.39Z" fill="#FF9A6C"/>
<path d="M242.111 135.512C242.312 135.493 242.366 136.833 243.549 137.741C244.731 138.652 246.154 138.446 246.171 138.633C246.193 138.717 245.863 138.906 245.26 138.945C244.669 138.988 243.798 138.831 243.074 138.275C242.352 137.719 242.021 136.951 241.954 136.403C241.882 135.845 242.019 135.507 242.111 135.512Z" fill="#263238"/>
<path d="M267.807 112.402C267.706 112.06 267.45 111.783 267.139 111.609C266.461 111.229 265.692 111.298 264.946 111.303C263.092 111.314 261.244 110.881 259.573 110.079C260.142 109.774 260.673 109.408 261.12 108.941C262.043 107.979 262.553 106.524 262.094 105.273C262.007 105.039 261.864 104.793 261.623 104.725C261.242 104.617 260.918 104.997 260.66 105.299C259.812 106.29 259.018 106.725 257.717 106.623C256.91 106.56 256.125 106.396 255.483 106.016C255.457 105.99 255.434 105.962 255.408 105.936C255.097 105.629 254.794 105.337 254.496 105.054L254.494 105.051L254.495 105.053C252.249 102.923 250.326 101.455 248.363 100.715C245.487 99.6302 240.708 99.2711 237.752 100.118C234.796 100.964 232.18 103.435 231.834 106.49C230.136 105.117 227.633 105.185 225.62 106.047L225.569 106.026C223.326 106.882 222.094 109.299 221.478 111.621C221.445 111.747 221.416 111.877 221.384 112.004C220.647 113.233 219.631 114.294 218.407 115.044C218.191 115.176 217.944 115.338 217.923 115.589C217.903 115.839 218.118 116.041 218.325 116.182C218.876 116.558 219.513 116.8 220.172 116.902C219.977 117.455 219.746 117.993 219.458 118.508C219.212 118.946 218.92 119.47 219.153 119.915C219.333 120.259 219.778 120.392 220.161 120.327C220.543 120.262 220.88 120.042 221.203 119.827C220.963 120.437 220.725 121.046 220.487 121.656C221.307 121.78 222.154 121.696 222.942 121.437C223.47 123.584 223.921 127.57 224.508 129.019C226.058 129.011 226.432 128.834 227.219 129.076C228.238 129.389 227.892 131.188 229.196 130.651C229.86 130.377 230.832 127.815 231.042 127.127C232.429 122.565 232.815 117.703 232.172 112.98C233.087 111.96 234.2 111.12 235.429 110.517L235.33 110.61C237.7 109.728 240.382 108.852 242.673 109.923C244.449 110.753 245.523 112.554 246.87 113.98C249.422 116.683 252.274 118.092 255.989 118.169C256.381 120.74 256.574 124.954 256.754 127.358L258.701 122.497L258.703 122.517C258.863 122.231 258.994 121.943 259.119 121.655L259.163 121.568V121.557C259.363 121.095 259.553 120.632 259.809 120.174C259.816 120.181 259.825 120.187 259.833 120.194C261.162 121.315 263.044 119.514 261.984 118.135C261.774 117.862 261.526 117.619 261.241 117.421C261.849 117.967 262.744 118.215 263.52 117.958C264.296 117.7 264.884 116.896 264.798 116.083C264.739 115.528 264.331 115.04 263.825 114.832C264.879 114.89 265.951 114.636 266.857 114.093C267.45 113.733 268.027 113.154 267.807 112.402Z" fill="#263238"/>
<path d="M234.545 107.41C234.563 107.432 234.191 107.643 233.705 108.213C233.222 108.779 232.689 109.758 232.456 111.08C232.336 111.736 232.267 112.469 232.286 113.257C232.3 114.044 232.381 114.885 232.461 115.773C232.538 116.66 232.623 117.597 232.588 118.574C232.57 119.062 232.522 119.559 232.427 120.057C232.33 120.546 232.214 121.077 231.856 121.505C231.571 121.853 231.085 122.015 230.659 121.937C230.231 121.872 229.845 121.652 229.56 121.348C228.996 120.718 228.841 119.908 228.688 119.194L228.867 119.212C228.589 119.863 228.302 120.506 227.867 121.025C227.441 121.547 226.84 121.899 226.225 121.968C225.918 122.002 225.607 121.96 225.34 121.833C225.068 121.707 224.867 121.489 224.728 121.256C224.595 121.019 224.522 120.756 224.53 120.503C224.538 120.249 224.632 120.006 224.789 119.832L224.881 119.911C224.239 120.677 223.552 121.095 223.076 121.329C222.836 121.447 222.643 121.517 222.512 121.563C222.38 121.605 222.311 121.624 222.309 121.618C222.307 121.612 222.372 121.584 222.5 121.532C222.626 121.476 222.813 121.396 223.046 121.271C223.508 121.022 224.172 120.593 224.787 119.834L224.879 119.913C224.598 120.224 224.594 120.759 224.851 121.184C224.98 121.394 225.164 121.588 225.404 121.694C225.642 121.804 225.925 121.841 226.206 121.806C226.771 121.737 227.33 121.407 227.73 120.911C228.14 120.416 228.417 119.789 228.693 119.137L228.809 118.86L228.873 119.155C229.025 119.868 229.189 120.646 229.703 121.213C229.958 121.486 230.311 121.684 230.687 121.74C231.063 121.803 231.455 121.671 231.704 121.373C232.018 121.003 232.137 120.5 232.231 120.019C232.324 119.534 232.372 119.046 232.391 118.567C232.428 117.605 232.349 116.674 232.277 115.789C232.202 114.902 232.126 114.057 232.118 113.259C232.108 112.462 232.185 111.718 232.316 111.053C232.571 109.714 233.136 108.723 233.644 108.162C234.16 107.599 234.545 107.41 234.545 107.41Z" fill="#455A64"/>
<path d="M261.17 115.139C261.172 115.142 261.149 115.162 261.103 115.199C261.046 115.242 260.977 115.295 260.893 115.359C260.801 115.432 260.685 115.516 260.536 115.6C260.39 115.687 260.224 115.794 260.022 115.885C259.236 116.28 257.972 116.683 256.377 116.625C254.8 116.571 252.895 116.055 251.177 114.834C249.442 113.644 247.903 111.868 246.632 109.825C245.987 108.803 245.457 107.754 244.877 106.787C244.3 105.819 243.667 104.926 242.909 104.227C242.16 103.524 241.296 103.012 240.414 102.787C239.973 102.666 239.532 102.647 239.111 102.666C238.69 102.698 238.292 102.792 237.927 102.921C237.196 103.185 236.611 103.605 236.169 104.033C235.725 104.466 235.432 104.919 235.232 105.306C234.861 106.101 234.85 106.606 234.82 106.598C234.816 106.598 234.818 106.567 234.825 106.508C234.834 106.437 234.846 106.351 234.859 106.246C234.896 106.016 234.987 105.683 235.162 105.273C235.355 104.874 235.645 104.405 236.09 103.955C236.534 103.509 237.128 103.069 237.878 102.789C238.253 102.652 238.663 102.551 239.1 102.513C239.535 102.489 239.999 102.507 240.455 102.627C241.371 102.853 242.265 103.378 243.035 104.093C243.815 104.805 244.463 105.713 245.045 106.687C245.632 107.661 246.163 108.708 246.801 109.72C248.063 111.748 249.579 113.505 251.282 114.684C252.968 115.893 254.828 116.412 256.383 116.484C257.951 116.559 259.201 116.184 259.987 115.815C260.782 115.44 261.155 115.114 261.17 115.139Z" fill="#455A64"/>
<path d="M261.865 111.366C261.872 111.378 261.765 111.455 261.563 111.586C261.363 111.721 261.056 111.888 260.665 112.068C260.274 112.25 259.789 112.424 259.238 112.571C258.685 112.709 258.064 112.816 257.405 112.856C256.747 112.887 256.118 112.849 255.553 112.772C254.99 112.684 254.488 112.564 254.08 112.425C253.672 112.289 253.349 112.156 253.136 112.044C252.921 111.936 252.807 111.87 252.812 111.858C252.828 111.823 253.305 112.056 254.121 112.29C254.528 112.411 255.024 112.513 255.578 112.589C256.133 112.655 256.749 112.688 257.395 112.657C258.04 112.618 258.648 112.519 259.193 112.393C259.736 112.258 260.217 112.102 260.609 111.938C261.396 111.616 261.846 111.333 261.865 111.366Z" fill="#455A64"/>
<path d="M210.885 271.455L203.839 315.532C203.839 315.532 194.704 370.23 194.468 381.249L218.062 381.699C218.062 381.699 224.926 329.693 229.427 322.047C233.928 314.402 243.628 253.441 243.628 253.441L210.885 271.455Z" fill="#263238"/>
<path d="M246.144 248.908C246.144 248.908 293.577 274.235 297.289 280.286C300.97 286.287 308.315 349.354 308.315 349.354L287.117 356.9L276.57 299.304L225.494 280.288C225.494 280.288 211.816 274.798 205.421 268.541C199.027 262.284 200.776 250.749 200.776 250.749L205.186 245.064L248.308 237.545L246.144 248.908Z" fill="#263238"/>
<path d="M214.888 276.824C214.882 276.84 215.092 276.933 215.498 277.095C215.953 277.27 216.544 277.496 217.278 277.777C218.886 278.377 221.116 279.209 223.849 280.227C229.441 282.325 237.075 285.187 245.509 288.35C253.968 291.527 261.645 294.358 267.227 296.336C270.019 297.326 272.281 298.113 273.853 298.636C274.6 298.881 275.202 299.078 275.665 299.23C276.081 299.36 276.303 299.421 276.309 299.405C276.314 299.389 276.104 299.296 275.699 299.134C275.244 298.959 274.653 298.733 273.918 298.452C272.311 297.852 270.081 297.021 267.349 296.002C261.756 293.904 254.122 291.042 245.685 287.877C237.228 284.701 229.552 281.87 223.97 279.892C221.179 278.902 218.916 278.115 217.344 277.592C216.596 277.347 215.994 277.15 215.531 276.998C215.115 276.868 214.894 276.807 214.888 276.824Z" fill="#455A64"/>
<path d="M246.388 249.085C246.344 249.223 243.824 248.49 240.694 247.71C237.567 246.912 234.987 246.481 235.003 246.347C235.015 246.21 237.66 246.425 240.814 247.23C243.969 248.017 246.429 248.964 246.388 249.085Z" fill="#455A64"/>
<path d="M250.601 161.586L248.7 156.898L247.902 158.087L247.163 156.865L226.856 147.762L225.16 151.984L218.539 154.538C214.266 156.188 211.174 159.908 210.388 164.344L207.908 194.258L207.978 199.103L207.272 215.608C207.906 216.692 199.517 229.204 199.271 233.651C199.026 238.098 203.525 241.794 203.525 241.794L248.238 245.183C248.238 245.183 250.494 245.512 252.366 241.365C253.998 237.748 253.865 212.941 253.865 212.941C253.865 212.941 253.972 199.603 254.41 190.563C254.587 186.924 253.84 177.8 253.017 174.252L250.601 161.586Z" fill="#EBEBEB"/>
<path d="M224.271 151.588L226.088 148.641C226.088 148.641 235.192 155.009 237.53 161.518C239.87 168.027 239.82 196.763 238.629 204.753C237.342 213.377 236.584 223.654 222.905 238.107C207.173 254.729 213.024 272.191 209.881 273.444C209.881 273.444 185.718 265.704 186.107 262.991C188.018 249.643 204.571 219.753 204.716 219.364L207.141 192.576L206.859 160.862C210.624 158.298 212.653 156.188 216.188 155.022L224.271 151.588Z" fill="#FF725E"/>
<path opacity="0.3" d="M226.126 179.004L205.637 208.519L206.547 198.465L226.126 179.004Z" fill="black"/>
<path d="M235.386 217.517C235.369 217.512 235.422 217.266 235.524 216.797C235.633 216.282 235.777 215.599 235.958 214.745C236.313 212.959 236.791 210.366 237.122 207.13C237.279 205.513 237.412 203.737 237.43 201.827C237.456 199.918 237.316 197.888 237.099 195.74C236.714 191.443 236.292 186.729 235.848 181.779C235.52 178.021 235.205 174.4 234.909 171.018L234.904 170.947L234.935 170.887C235.677 169.455 236.392 168.075 237.078 166.751L237.222 167.069C236.421 166.861 235.644 166.659 234.887 166.463L234.808 166.443L234.762 166.377C231.69 161.889 229.101 158.163 227.262 155.575C226.34 154.283 225.613 153.268 225.095 152.595C224.842 152.254 224.631 152.006 224.496 151.835C224.345 151.684 224.268 151.597 224.272 151.587C224.366 151.489 225.576 152.874 227.464 155.427C229.365 157.975 232.005 161.667 235.116 166.134L234.992 166.048C235.75 166.238 236.528 166.434 237.331 166.637L237.603 166.705L237.474 166.956C236.795 168.284 236.088 169.667 235.354 171.103L235.379 170.972C235.681 174.355 236.005 177.978 236.34 181.736C236.771 186.689 237.18 191.407 237.553 195.707C237.758 197.847 237.884 199.908 237.839 201.833C237.803 203.758 237.648 205.544 237.469 207.167C237.092 210.414 236.559 213.007 236.145 214.784C235.935 215.673 235.755 216.359 235.62 216.819C235.488 217.283 235.402 217.521 235.386 217.517Z" fill="#263238"/>
<path d="M205.689 231.766C205.693 231.784 205.566 231.904 205.322 232.114C205.028 232.36 204.676 232.654 204.252 233.008C203.259 233.809 201.936 234.877 200.334 236.169L200.273 235.845C203.703 236.857 208.167 238.174 213.06 239.618L212.827 239.668L212.904 239.6C214.813 237.939 216.639 236.35 218.312 234.894L218.406 235.292C214.752 234.307 211.609 233.461 209.282 232.834C208.212 232.53 207.333 232.28 206.645 232.084C206.03 231.903 205.694 231.791 205.689 231.766C205.684 231.74 206.01 231.801 206.621 231.935C207.31 232.095 208.192 232.301 209.262 232.55C211.529 233.094 214.75 233.887 218.524 234.845L218.949 234.953L218.619 235.244C216.952 236.708 215.133 238.305 213.231 239.974L213.154 240.04L213.051 240.131L212.921 240.091C208.041 238.601 203.589 237.243 200.169 236.199L199.819 236.093L200.108 235.875C201.775 234.623 203.153 233.588 204.187 232.812C205.15 232.103 205.682 231.73 205.689 231.766Z" fill="#263238"/>
<path d="M251.319 164.851C251.263 164.875 250.971 164.263 250.278 163.344C249.894 162.85 249.47 162.304 249.007 161.708C248.524 161.074 247.989 160.333 247.592 159.419L247.99 159.471C247.311 160.373 246.578 161.347 245.814 162.364C245.244 163.11 244.694 163.83 244.176 164.508L244.059 164.66L243.887 164.581C241.924 163.675 240.232 162.876 239.038 162.288C237.844 161.701 237.145 161.328 237.169 161.276C237.192 161.223 237.933 161.502 239.163 162.013C240.392 162.524 242.109 163.268 244.084 164.146L243.796 164.219C244.309 163.538 244.855 162.814 245.419 162.065C246.194 161.054 246.935 160.087 247.621 159.19L247.862 158.877L248.019 159.242C248.758 160.951 249.914 162.181 250.511 163.181C251.152 164.167 251.361 164.835 251.319 164.851Z" fill="#263238"/>
<path d="M247.873 159.495C247.882 159.493 247.907 159.567 247.949 159.711C247.996 159.885 248.053 160.098 248.123 160.357C248.266 160.927 248.466 161.771 248.7 162.862C249.167 165.045 249.777 168.217 250.426 172.156C250.75 174.125 251.084 176.286 251.411 178.609C251.569 179.77 251.755 180.973 251.852 182.229C251.95 183.481 251.998 184.77 252.022 186.092C252.067 188.734 252.017 191.506 251.93 194.376C251.848 197.244 251.728 200.219 251.51 203.258C251.09 209.341 250.341 215.102 249.674 220.332C249.005 225.565 248.316 230.275 247.482 234.184C246.659 238.096 245.756 241.202 245.119 243.34C244.8 244.409 244.535 245.234 244.349 245.791C244.263 246.046 244.193 246.254 244.134 246.424C244.083 246.566 244.052 246.637 244.045 246.635C244.037 246.633 244.05 246.556 244.085 246.41C244.131 246.236 244.186 246.023 244.254 245.763C244.42 245.157 244.647 244.33 244.933 243.286C245.512 241.135 246.363 238.02 247.138 234.113C247.925 230.209 248.578 225.508 249.221 220.274C249.864 215.039 250.597 209.29 251.016 203.223C251.234 200.192 251.356 197.228 251.445 194.36C251.537 191.494 251.598 188.73 251.565 186.099C251.547 184.784 251.508 183.502 251.417 182.263C251.329 181.027 251.152 179.828 251.003 178.665C250.695 176.343 250.381 174.181 250.08 172.211C249.476 168.271 248.919 165.092 248.51 162.9C248.306 161.837 248.145 160.995 248.026 160.379C247.976 160.115 247.934 159.899 247.9 159.722C247.873 159.574 247.864 159.497 247.873 159.495Z" fill="#263238"/>
<path d="M182.929 259.662C182.929 259.662 183.367 262.17 183.162 263.5C182.957 264.829 180.721 269.537 180.721 269.537C180.721 269.537 179.459 269.618 179.807 266.475C180.154 263.331 180.606 261.972 180.606 261.972L182.929 259.662Z" fill="#FFBF9D"/>
<path d="M162.845 283.857C162.845 283.857 162.344 264.513 166.52 261.79C170.697 259.068 176.696 256.84 178.77 259.465C180.844 262.09 183.182 266.152 184.472 270.621C185.762 275.09 186.32 282.112 186.32 282.112L181.156 282.232C181.156 282.232 178.837 263.2 176.912 260.601C174.987 258.002 167.457 261.317 167.058 264.817C166.658 268.317 166.83 283.754 166.83 283.754L162.845 283.857Z" fill="#455A64"/>
<path d="M148.761 313.128C147.936 305.231 146.344 287.796 145.649 280.126C145.46 278.035 146.957 276.169 149.04 275.9L195.835 269.857C197.923 269.587 199.85 271.021 200.191 273.098L205.473 305.265C205.828 307.431 204.331 309.465 202.157 309.767L153.188 316.592C150.997 316.897 148.991 315.327 148.761 313.128Z" fill="#455A64"/>
<path d="M179.009 268.502L182.945 259.812L182.757 249.29L171.086 247.895L166.777 257.581C166.777 257.581 166.411 262.812 166.795 263.993C167.18 265.175 168.956 265.177 168.956 265.177C169.227 266.792 171.649 267.273 171.649 267.273C172.19 269.036 174.406 268.535 174.406 268.535C174.406 268.535 175.314 270.534 176.035 270.738C176.29 270.811 176.617 270.732 176.951 270.586C177.874 270.183 178.593 269.421 179.009 268.502Z" fill="#FFBF9D"/>
<path d="M169.105 262.547C169.222 262.555 169.273 263.132 169.22 263.833C169.167 264.535 169.03 265.096 168.913 265.088C168.797 265.079 168.745 264.504 168.798 263.802C168.851 263.1 168.989 262.538 169.105 262.547Z" fill="#FF9A6C"/>
<path d="M171.941 263.604C172.057 263.636 171.921 264.459 171.806 265.471C171.686 266.482 171.63 267.314 171.51 267.319C171.397 267.326 171.262 266.472 171.386 265.422C171.505 264.373 171.833 263.572 171.941 263.604Z" fill="#FF9A6C"/>
<path d="M174.99 265.238C175.1 265.285 174.902 265.99 174.712 266.861C174.516 267.731 174.398 268.454 174.278 268.449C174.165 268.447 174.094 267.682 174.298 266.768C174.499 265.856 174.886 265.192 174.99 265.238Z" fill="#FF9A6C"/>
<path d="M181.646 262.512C181.752 262.562 181.183 264.084 180.376 265.912C179.568 267.74 178.827 269.183 178.721 269.135C178.614 269.086 179.183 267.565 179.991 265.735C180.798 263.907 181.539 262.464 181.646 262.512Z" fill="#FF9A6C"/>
<path d="M169.699 260.719C169.714 260.772 169.591 260.868 169.351 260.902C169.116 260.937 168.761 260.891 168.446 260.671C168.133 260.452 167.967 260.135 167.919 259.902C167.869 259.665 167.916 259.517 167.971 259.511C168.087 259.496 168.222 260.004 168.689 260.325C169.15 260.653 169.673 260.606 169.699 260.719Z" fill="#FF9A6C"/>
<path d="M172.715 262.629C172.723 262.682 172.579 262.765 172.32 262.777C172.063 262.79 171.697 262.707 171.369 262.482C171.041 262.256 170.833 261.944 170.753 261.7C170.671 261.454 170.697 261.29 170.749 261.278C170.866 261.253 171.067 261.776 171.608 262.133C172.136 262.511 172.697 262.511 172.715 262.629Z" fill="#FF9A6C"/>
<path d="M179.19 264.622C179.248 264.59 179.336 264.966 178.926 265.234C178.532 265.462 177.945 265.494 177.346 265.306C176.748 265.114 176.309 264.72 176.085 264.389C175.857 264.053 175.821 263.799 175.87 263.78C175.968 263.722 176.431 264.577 177.476 264.905C177.972 265.068 178.498 265.07 178.788 264.969C179.088 264.86 179.135 264.62 179.19 264.622Z" fill="#FF9A6C"/>
<path d="M201.955 304.888C201.946 304.89 201.921 304.797 201.879 304.615C201.833 304.405 201.776 304.138 201.704 303.803C201.554 303.054 201.344 302.007 201.077 300.676C200.548 297.92 199.793 293.994 198.864 289.156C198.403 286.719 197.899 284.055 197.359 281.196C197.09 279.764 196.812 278.285 196.525 276.761C196.453 276.381 196.381 275.997 196.308 275.61L196.198 275.039C196.162 274.881 196.085 274.732 195.976 274.61C195.763 274.36 195.421 274.231 195.092 274.273C194.692 274.326 194.289 274.379 193.884 274.432C187.387 275.279 180.251 276.209 172.759 277.185C165.264 278.148 158.124 279.065 151.625 279.9C151.22 279.97 150.786 279.956 150.523 280.119C150.237 280.283 150.038 280.594 150.021 280.921C150.051 281.654 150.127 282.484 150.176 283.243C150.286 284.79 150.393 286.292 150.496 287.745C150.699 290.648 150.889 293.353 151.063 295.826C151.393 300.741 151.662 304.73 151.849 307.53C151.93 308.886 151.992 309.951 152.038 310.714C152.053 311.055 152.066 311.328 152.075 311.542C152.081 311.729 152.079 311.825 152.07 311.826C152.062 311.827 152.047 311.732 152.025 311.546C152.003 311.332 151.974 311.06 151.939 310.72C151.872 309.959 151.778 308.895 151.658 307.543C151.433 304.747 151.111 300.761 150.715 295.852C150.523 293.38 150.313 290.676 150.088 287.775C149.977 286.322 149.862 284.821 149.743 283.275C149.69 282.487 149.61 281.748 149.578 280.889C149.602 280.416 149.884 279.968 150.299 279.727C150.495 279.605 150.766 279.545 150.961 279.526L151.568 279.446C158.066 278.6 165.203 277.669 172.698 276.692C180.191 275.73 187.329 274.812 193.828 273.978C194.234 273.927 194.638 273.875 195.039 273.824C195.515 273.764 196.009 273.955 196.315 274.315C196.47 274.492 196.581 274.708 196.632 274.936L196.744 275.528C196.814 275.915 196.885 276.3 196.955 276.681C197.233 278.206 197.503 279.687 197.764 281.12C198.283 283.982 198.768 286.651 199.209 289.091C200.074 293.94 200.776 297.877 201.268 300.639C201.496 301.977 201.675 303.03 201.803 303.783C201.855 304.121 201.897 304.391 201.93 304.603C201.954 304.791 201.963 304.886 201.955 304.888Z" fill="#263238"/>
<path d="M179.862 284.35L168.858 285.705C168.585 285.738 168.337 285.544 168.303 285.272L168.051 283.225C168.018 282.953 168.212 282.705 168.484 282.671L179.487 281.316C179.76 281.283 180.009 281.476 180.042 281.749L180.294 283.795C180.328 284.069 180.134 284.317 179.862 284.35Z" fill="#263238"/>
<path d="M221.667 183.32L193.366 211.454L185.736 251.077L168.674 249.029L174.941 210.035C175.931 203.875 178.384 198.041 182.095 193.024L203.31 164.342C206.179 160.244 210.753 157.556 215.753 157.359C218.313 157.258 221.918 158.491 223.67 160.38C227.943 164.986 227.582 171.075 227.427 172.931" fill="#FF725E"/>
<path d="M227.426 172.931C227.426 172.931 227.561 172.139 227.55 170.614C227.523 169.105 227.365 166.799 226.224 164.112C225.651 162.778 224.794 161.378 223.556 160.099C222.265 158.849 220.46 158.005 218.455 157.511C216.433 156.986 214.139 157.202 211.897 157.856C209.647 158.527 207.419 159.766 205.51 161.546C204.547 162.426 203.695 163.471 202.908 164.571C202.102 165.656 201.279 166.764 200.44 167.895C198.76 170.158 197.014 172.511 195.205 174.948C191.589 179.824 187.727 185.033 183.663 190.515C182.657 191.89 181.591 193.253 180.624 194.726C179.656 196.195 178.786 197.75 178.013 199.373C176.462 202.615 175.34 206.148 174.726 209.834C173.545 217.167 172.322 224.759 171.07 232.535C170.173 238.129 169.29 243.626 168.428 248.99L168.388 249.247L168.645 249.278C174.505 249.978 180.206 250.66 185.708 251.318L185.931 251.344L185.973 251.124C188.816 236.259 191.389 222.805 193.553 211.491L193.5 211.59C202.176 202.914 209.228 195.864 214.124 190.969C216.547 188.529 218.436 186.626 219.733 185.321C220.361 184.68 220.845 184.187 221.185 183.84C221.51 183.504 221.666 183.321 221.666 183.321C221.666 183.321 221.483 183.477 221.145 183.8C220.795 184.138 220.3 184.618 219.655 185.242C218.341 186.531 216.428 188.41 213.974 190.818C209.049 195.685 201.958 202.695 193.231 211.319L193.189 211.36L193.178 211.418C190.986 222.726 188.379 236.174 185.499 251.032L185.764 250.838C180.263 250.175 174.562 249.487 168.703 248.781L168.92 249.068C169.782 243.704 170.667 238.207 171.566 232.614C172.815 224.838 174.033 217.246 175.211 209.914C175.815 206.273 176.918 202.783 178.446 199.579C179.208 197.976 180.065 196.438 181.018 194.986C181.966 193.535 183.029 192.171 184.034 190.79C188.086 185.298 191.937 180.079 195.541 175.193C197.343 172.75 199.081 170.391 200.753 168.122C201.589 166.988 202.408 165.877 203.209 164.789C203.989 163.69 204.811 162.675 205.751 161.806C207.613 160.056 209.789 158.831 211.989 158.162C214.192 157.51 216.416 157.287 218.39 157.784C220.354 158.254 222.136 159.076 223.386 160.269C224.604 161.508 225.465 162.882 226.043 164.191C227.197 166.829 227.389 169.115 227.447 170.616C227.471 171.374 227.459 171.953 227.441 172.341C227.428 172.732 227.426 172.931 227.426 172.931Z" fill="#263238"/>
</svg>
