<svg width="273" height="350" viewBox="0 0 273 350" fill="none" xmlns="http://www.w3.org/2000/svg">
<path d="M261.776 50.2666C258.664 46.26 258.599 38.9538 258.701 37.0023C258.942 32.562 249.218 6.64624 225.122 17.3463C216.481 17.3463 216.343 26.0289 214.703 27.7729C213.064 29.517 211.24 31.3365 210.805 33.7122C210.045 37.9262 213.972 42.0177 212.972 46.1751C212.601 47.7307 211.573 49.0599 210.851 50.4835C210.073 51.7561 209.462 53.8302 209.795 54.9803C210.213 56.103 210.764 57.1698 211.434 58.1573C212.113 59.1542 212.424 60.3625 212.314 61.57C211.934 63.7006 209.536 64.8885 208.851 66.953C208.165 69.0176 209.462 71.0728 210.601 72.8546C211.74 74.6363 212.833 76.8895 211.916 78.8032C211.308 79.7524 210.555 80.5959 209.684 81.3015C208.512 82.544 207.725 84.1106 207.422 85.8057C207.118 87.5008 207.313 89.2492 207.98 90.8325L221.871 88.0043C222.489 81.2858 223.106 74.5609 223.723 67.8298C227.78 68.8574 232.216 66.2177 234.142 65.7181L236.503 64.4171C241.671 65.3598 247.246 65.011 251.774 62.3242C256.303 59.6374 263.017 63.0784 262.137 57.8085C261.646 55.282 263.359 52.2935 261.776 50.2666Z" fill="#263238"/>
<path d="M245.977 25.7458L227.113 20.0894C221.038 19.1466 216.685 26.6885 216.046 32.8729C215.342 39.7831 214.759 48.2489 215.361 53.4434C216.565 63.9077 224.334 65.5481 224.334 65.5481C224.334 65.5481 222.973 80.3584 222.853 84.0634L246.088 71.921L249.024 29.5827C249.078 28.6715 248.795 27.7726 248.231 27.0626C247.668 26.3526 246.863 25.8829 245.977 25.7458Z" fill="#FFD3C1"/>
<path d="M217.222 41.3676C217.204 41.7141 217.32 42.0541 217.545 42.3148C217.77 42.5755 218.086 42.7363 218.426 42.7629C218.592 42.7838 218.76 42.7707 218.921 42.7244C219.082 42.678 219.232 42.5994 219.362 42.493C219.492 42.3867 219.6 42.2549 219.68 42.1053C219.759 41.9557 219.809 41.7914 219.825 41.6222C219.842 41.2756 219.727 40.9357 219.502 40.675C219.277 40.4143 218.961 40.2535 218.621 40.2269C218.455 40.2046 218.286 40.2168 218.125 40.2626C217.963 40.3084 217.813 40.387 217.682 40.4935C217.552 40.6001 217.444 40.7325 217.365 40.8827C217.285 41.0329 217.237 41.1979 217.222 41.3676Z" fill="#263238"/>
<path d="M216.519 38.3219C217.401 38.3876 218.278 38.5009 219.149 38.6613C219.986 39.0071 220.805 39.3973 221.603 39.8303C221.695 39.8303 221.603 39.5192 221.214 39.1421C220.661 38.6361 220.002 38.2653 219.287 38.0579C218.595 37.842 217.861 37.7999 217.148 37.9354C216.657 38.0579 216.454 38.237 216.519 38.3219Z" fill="#263238"/>
<path d="M230.28 42.4516C230.265 42.799 230.383 43.1389 230.609 43.3994C230.836 43.6598 231.153 43.8203 231.493 43.8468C231.66 43.8664 231.828 43.8521 231.989 43.8046C232.15 43.7572 232.299 43.6776 232.43 43.5705C232.56 43.4634 232.668 43.331 232.747 43.181C232.826 43.0309 232.876 42.8663 232.892 42.6967C232.905 42.3499 232.786 42.0113 232.56 41.7514C232.334 41.4915 232.018 41.3303 231.679 41.3015C231.512 41.2819 231.344 41.2962 231.183 41.3437C231.022 41.3911 230.872 41.4707 230.742 41.5778C230.612 41.6849 230.504 41.8173 230.425 41.9673C230.345 42.1174 230.296 42.282 230.28 42.4516Z" fill="#263238"/>
<path d="M230.521 40.2077C230.725 40.302 231.734 39.6138 233.299 39.3876C234.864 39.1613 236.124 39.5101 236.272 39.3876C236.42 39.265 236.124 39.1142 235.577 38.9539C234.792 38.7403 233.972 38.6953 233.169 38.8219C232.387 38.9192 231.636 39.1964 230.975 39.6327C230.539 39.9155 230.419 40.1606 230.521 40.2077Z" fill="#263238"/>
<path d="M225.65 49.5689C224.919 49.2968 224.156 49.1225 223.381 49.0504C223.02 49.0032 222.686 48.909 222.64 48.6638C222.623 48.2796 222.727 47.8999 222.936 47.5797C223.307 46.703 223.705 45.7885 224.112 44.8269C225.742 40.924 226.946 37.6998 226.789 37.6338C226.631 37.5678 225.187 40.6883 223.548 44.5912C223.159 45.534 222.779 46.4767 222.418 47.3534C222.175 47.7876 222.09 48.2948 222.177 48.7864C222.225 48.9156 222.301 49.0324 222.399 49.1285C222.496 49.2247 222.613 49.2977 222.742 49.3426C222.94 49.4073 223.145 49.4454 223.353 49.4558C224.111 49.5889 224.882 49.6269 225.65 49.5689Z" fill="#263238"/>
<path d="M224.334 65.4919C229.083 65.8544 233.834 64.81 238.013 62.4846C237.892 62.4846 233.827 69.7154 224.121 68.2447L224.334 65.4919Z" fill="#F4AF9B"/>
<path d="M226.113 53.0477C226.395 52.7153 226.755 52.4614 227.16 52.3097C227.565 52.1579 228.001 52.1135 228.428 52.1804C228.738 52.2224 229.036 52.3275 229.305 52.4895C229.574 52.6515 229.808 52.867 229.993 53.1232C230.172 53.3685 230.272 53.6637 230.28 53.9689C230.288 54.2741 230.204 54.5746 230.039 54.8295C229.803 55.074 229.502 55.2426 229.173 55.3147C228.844 55.3867 228.501 55.359 228.187 55.2349C227.532 54.965 226.934 54.568 226.428 54.0659C226.272 53.9463 226.143 53.7955 226.048 53.6228C225.996 53.5449 225.969 53.4529 225.969 53.3589C225.969 53.2648 225.996 53.1728 226.048 53.0949" fill="#F4AF9B"/>
<path d="M229.761 50.7284C229.53 50.7284 229.465 52.2651 228.113 53.3115C226.761 54.358 225.14 54.1223 225.122 54.3391C225.103 54.5559 225.474 54.6596 226.159 54.7068C227.053 54.7537 227.934 54.4802 228.65 53.9337C229.337 53.4059 229.797 52.6296 229.937 51.7655C230.021 51.115 229.863 50.719 229.761 50.7284Z" fill="#263238"/>
<path d="M230.697 35.1078C230.827 35.4943 232.234 35.3718 233.883 35.6451C235.531 35.9185 236.846 36.4276 237.077 36.0882C237.179 35.9185 236.966 35.5509 236.438 35.1455C235.737 34.6539 234.934 34.3313 234.092 34.2023C233.25 34.0732 232.389 34.1411 231.577 34.4007C230.965 34.6176 230.651 34.9192 230.697 35.1078Z" fill="#263238"/>
<path d="M218.037 34.1744C218.269 34.5137 219.251 34.1744 220.417 34.2498C221.584 34.3252 222.566 34.5515 222.807 34.2498C222.918 34.0895 222.807 33.7596 222.353 33.4296C221.782 33.0425 221.112 32.8359 220.427 32.8359C219.741 32.8359 219.071 33.0425 218.5 33.4296C218.084 33.6841 217.926 34.0141 218.037 34.1744Z" fill="#263238"/>
<path d="M224.89 18.7039C232.488 19.9212 239.916 22.0607 247.014 25.0767C248.663 25.7838 250.385 26.604 251.311 28.1501C252.237 29.6962 252.163 31.8456 252.006 33.8065L249.644 61.7209L248.663 61.6643C245.884 62.1357 245.644 60.665 243.615 58.6004C242.613 57.5535 241.864 56.2837 241.427 54.8914C240.99 53.499 240.877 52.0222 241.096 50.5777C241.504 48.0418 242.949 45.4964 242.171 43.0359C241.143 39.7928 236.781 38.6427 235.735 35.4091C235.133 33.5237 235.818 31.3931 235.114 29.5453C234.41 27.6976 232.734 26.7171 231.039 26.0572C229.345 25.3973 227.52 24.8505 226.122 23.6532C224.723 22.4559 223.862 20.2405 224.89 18.7039Z" fill="#263238"/>
<path d="M162.992 0H88.2388C85.1956 0 82.7286 2.51136 82.7286 5.60928V66.774C82.7286 69.8719 85.1956 72.3832 88.2388 72.3832H162.992C166.035 72.3832 168.502 69.8719 168.502 66.774V5.60928C168.502 2.51136 166.035 0 162.992 0Z" fill="#263238"/>
<path d="M125.615 47.3724C132.443 47.3724 137.978 41.7377 137.978 34.7869C137.978 27.8361 132.443 22.2014 125.615 22.2014C118.787 22.2014 113.252 27.8361 113.252 34.7869C113.252 41.7377 118.787 47.3724 125.615 47.3724Z" fill="#FF725C"/>
<path d="M122.642 38.4734V31.0447C122.642 30.9628 122.663 30.8822 122.702 30.8109C122.742 30.7396 122.799 30.6801 122.869 30.6382C122.938 30.5964 123.016 30.5736 123.097 30.5721C123.177 30.5706 123.257 30.5906 123.328 30.6299L129.81 34.4008C129.881 34.4432 129.94 34.5038 129.981 34.5766C130.022 34.6493 130.044 34.7318 130.044 34.8156C130.044 34.8995 130.022 34.9819 129.981 35.0547C129.94 35.1274 129.881 35.188 129.81 35.2304L123.328 38.9071C123.256 38.9507 123.174 38.9733 123.091 38.9726C123.007 38.9719 122.926 38.9478 122.855 38.903C122.784 38.8582 122.727 38.7944 122.689 38.7186C122.652 38.6429 122.636 38.558 122.642 38.4734Z" fill="white"/>
<path d="M203.192 315.826L205.341 336.802C205.341 336.802 185.115 346.059 185.134 350L225.233 347.247L223.214 314.374L203.192 315.826Z" fill="#455A64"/>
<g opacity="0.3">
<path d="M203.192 315.826L205.341 336.802C205.341 336.802 185.115 346.059 185.134 350L225.233 347.247L223.214 314.374L203.192 315.826Z" fill="black"/>
</g>
<g opacity="0.6">
<path d="M217.611 334.172C218.004 334.264 218.35 334.501 218.583 334.836C218.815 335.172 218.918 335.583 218.871 335.991C218.794 336.396 218.568 336.755 218.239 336.995C217.91 337.236 217.503 337.338 217.102 337.283C216.685 337.182 216.32 336.928 216.075 336.569C215.831 336.211 215.725 335.773 215.778 335.341C215.9 334.928 216.175 334.58 216.545 334.369C216.914 334.158 217.35 334.101 217.76 334.209" fill="white"/>
</g>
<g opacity="0.6">
<path d="M225.224 347.219L224.9 343.91L186.569 347.794C186.569 347.794 184.838 348.736 185.125 349.971L225.224 347.219Z" fill="white"/>
</g>
<path d="M204.665 336.641C204.665 336.839 205.674 336.858 206.674 337.433C207.675 338.008 208.249 338.81 208.425 338.725C208.601 338.64 208.23 337.499 206.999 336.839C205.767 336.18 204.609 336.462 204.665 336.641Z" fill="#263238"/>
<path d="M200.581 338.696C200.581 338.894 201.414 339.177 202.137 339.969C202.859 340.761 203.063 341.647 203.303 341.628C203.544 341.609 203.544 340.469 202.627 339.498C201.711 338.527 200.571 338.508 200.581 338.696Z" fill="#263238"/>
<path d="M198.525 343.985C198.71 343.985 198.914 343.043 198.34 341.949C197.766 340.856 196.821 340.516 196.747 340.686C196.673 340.856 197.284 341.402 197.738 342.279C198.192 343.156 198.33 343.985 198.525 343.985Z" fill="#263238"/>
<path d="M204.702 331.805C204.794 331.975 205.674 331.645 206.785 331.645C207.897 331.645 208.786 331.937 208.869 331.758C208.952 331.579 208.091 330.929 206.776 330.947C205.461 330.966 204.591 331.654 204.702 331.805Z" fill="#263238"/>
<path d="M204.341 327.572C205.012 327.709 205.706 327.656 206.35 327.421C207.066 327.242 207.756 326.973 208.406 326.62C208.792 326.414 209.163 326.181 209.518 325.923C209.736 325.779 209.93 325.601 210.092 325.395C210.21 325.243 210.274 325.055 210.274 324.862C210.274 324.669 210.21 324.481 210.092 324.329C209.986 324.198 209.851 324.093 209.698 324.024C209.545 323.956 209.379 323.924 209.212 323.933C208.955 323.946 208.702 324 208.462 324.094C208.04 324.23 207.631 324.404 207.239 324.612C206.584 324.972 205.987 325.433 205.471 325.979C204.6 326.922 204.332 327.685 204.406 327.723C204.48 327.761 204.906 327.129 205.804 326.337C206.327 325.879 206.906 325.493 207.526 325.187C207.892 325.011 208.269 324.863 208.656 324.744C209.073 324.603 209.434 324.574 209.582 324.744C209.731 324.914 209.638 324.848 209.582 324.98C209.458 325.124 209.319 325.254 209.166 325.366C208.823 325.621 208.48 325.847 208.138 326.055C207.549 326.408 206.929 326.704 206.286 326.941C205.623 327.104 204.974 327.315 204.341 327.572Z" fill="#263238"/>
<path d="M204.619 327.836C204.958 327.224 205.097 326.517 205.017 325.819C205 325.061 204.856 324.312 204.591 323.603C204.436 323.181 204.238 322.776 203.998 322.397C203.872 322.134 203.681 321.908 203.444 321.743C203.207 321.578 202.932 321.478 202.646 321.454C202.469 321.469 202.299 321.535 202.158 321.646C202.017 321.756 201.91 321.905 201.85 322.076C201.767 322.323 201.714 322.58 201.692 322.84C201.595 324.086 201.988 325.32 202.785 326.271C203.637 327.28 204.47 327.459 204.48 327.393C204.489 327.327 203.831 326.95 203.165 325.97C202.776 325.406 202.514 324.762 202.396 324.084C202.345 323.693 202.345 323.297 202.396 322.906C202.396 322.463 202.563 322.104 202.729 322.133C202.896 322.161 203.285 322.425 203.479 322.755C203.696 323.097 203.885 323.456 204.044 323.83C204.316 324.472 204.494 325.152 204.572 325.847C204.665 327.044 204.507 327.808 204.619 327.836Z" fill="#263238"/>
<path d="M199.71 162.311C199.71 162.311 181.948 244.404 181.402 251.738C180.855 259.073 203.424 322.349 203.424 322.349L222.871 318.578C222.871 318.578 221.64 225.125 221.019 223.296C220.399 221.467 225.974 175.528 225.974 175.528L199.71 162.311Z" fill="#263238"/>
<path d="M212.12 316.806L212.333 337.886C212.333 337.886 191.348 345.192 191.033 349.095L231.206 349.519L232.197 317.268L212.12 316.806Z" fill="#455A64"/>
<g opacity="0.6">
<path d="M224.788 336.443C225.163 336.57 225.48 336.831 225.681 337.178C225.882 337.524 225.953 337.933 225.881 338.329C225.767 338.717 225.512 339.048 225.169 339.254C224.826 339.46 224.419 339.527 224.029 339.441C223.623 339.302 223.282 339.016 223.072 338.636C222.862 338.256 222.797 337.811 222.89 337.386C223.047 336.985 223.352 336.662 223.739 336.486C224.127 336.31 224.566 336.295 224.964 336.443" fill="white"/>
</g>
<g opacity="0.6">
<path d="M231.188 349.519V346.823L192.672 347.059C192.672 347.059 190.866 347.803 191.033 349.095L231.188 349.519Z" fill="white"/>
</g>
<path d="M211.684 337.669C211.684 337.867 212.666 337.98 213.62 338.612C214.574 339.243 215.055 340.129 215.241 340.054C215.426 339.979 215.157 338.819 214 338.037C212.842 337.254 211.647 337.48 211.684 337.669Z" fill="#263238"/>
<path d="M207.424 339.328C207.378 339.526 208.221 339.885 208.86 340.742C209.499 341.6 209.684 342.505 209.879 342.505C210.073 342.505 210.221 341.374 209.406 340.318C208.591 339.262 207.434 339.14 207.424 339.328Z" fill="#263238"/>
<path d="M204.906 344.4C205.082 344.4 205.378 343.457 204.906 342.354C204.433 341.251 203.526 340.789 203.433 340.95C203.34 341.11 203.896 341.713 204.276 342.628C204.656 343.542 204.711 344.381 204.906 344.4Z" fill="#263238"/>
<path d="M212.166 332.852C212.24 333.04 213.148 332.786 214.25 332.852C215.352 332.917 216.213 333.342 216.324 333.172C216.435 333.002 215.62 332.229 214.315 332.163C213.009 332.097 212.074 332.691 212.166 332.852Z" fill="#263238"/>
<g opacity="0.3">
<path d="M212.166 320.982L212.194 324.734L231.947 325.064L232.058 321.68L212.166 320.982Z" fill="black"/>
</g>
<path d="M212.194 328.6C212.851 328.788 213.546 328.788 214.203 328.6C214.935 328.489 215.65 328.286 216.333 327.997C216.736 327.827 217.126 327.629 217.5 327.403C217.73 327.283 217.939 327.127 218.121 326.941C218.252 326.801 218.335 326.621 218.357 326.429C218.379 326.236 218.338 326.042 218.241 325.875C218.145 325.734 218.018 325.618 217.87 325.536C217.722 325.454 217.558 325.409 217.389 325.404C217.133 325.391 216.877 325.419 216.63 325.489C216.198 325.581 215.776 325.717 215.37 325.894C214.696 326.189 214.071 326.59 213.518 327.082C212.592 327.94 212.231 328.675 212.296 328.713C212.361 328.751 212.851 328.166 213.814 327.469C214.389 327.074 215.012 326.757 215.667 326.526C216.045 326.379 216.436 326.266 216.833 326.187C217.259 326.092 217.621 326.092 217.76 326.29C217.898 326.488 217.806 326.394 217.713 326.516C217.579 326.652 217.426 326.766 217.259 326.856C216.91 327.076 216.548 327.274 216.176 327.45C215.546 327.75 214.888 327.986 214.213 328.157C213.53 328.252 212.855 328.401 212.194 328.6Z" fill="#263238"/>
<path d="M212.444 328.892C212.836 328.317 213.04 327.631 213.027 326.931C213.078 326.173 213.003 325.411 212.805 324.678C212.689 324.244 212.528 323.823 212.324 323.424C212.223 323.149 212.054 322.906 211.833 322.718C211.612 322.529 211.347 322.403 211.064 322.349C210.884 322.348 210.708 322.4 210.557 322.499C210.406 322.597 210.286 322.739 210.212 322.906C210.101 323.141 210.026 323.392 209.99 323.65C209.916 324.106 209.916 324.571 209.99 325.027C210.081 325.797 210.358 326.532 210.796 327.167C211.555 328.242 212.37 328.505 212.379 328.439C212.388 328.373 211.777 327.94 211.203 326.903C210.87 326.306 210.668 325.644 210.61 324.961C210.58 324.566 210.605 324.17 210.684 323.782C210.759 323.349 210.925 323 211.083 323.047C211.24 323.094 211.611 323.386 211.768 323.735C211.955 324.096 212.113 324.471 212.24 324.857C212.446 325.523 212.561 326.215 212.583 326.912C212.564 328.119 212.342 328.854 212.444 328.892Z" fill="#263238"/>
<path d="M244.856 161.048L199.71 162.311L206.193 244.084L210.212 322.906L233.632 323.736C234.827 308.52 234.91 254.756 234.91 254.756L239.606 222.288C240.698 213.53 244.153 204.329 245.82 196.466C246.792 191.856 248.218 185.87 248.524 183.909C249.459 178.13 244.856 161.048 244.856 161.048Z" fill="#263238"/>
<path d="M202.34 181.128C202.351 181.25 202.351 181.373 202.34 181.496C202.34 181.76 202.34 182.118 202.34 182.57C202.34 183.513 202.248 184.927 202.183 186.699C202.118 188.472 202.016 190.687 201.942 193.233C201.868 195.778 201.738 198.682 201.683 201.887C201.507 208.298 201.414 215.934 201.451 224.418C201.488 232.903 201.711 242.217 202.183 251.993C202.655 261.77 203.396 271.074 204.229 279.512C204.683 283.726 205.081 287.732 205.582 291.475C205.822 293.361 206.026 295.152 206.267 296.886C206.508 298.621 206.758 300.28 206.989 301.864C207.415 305.041 207.915 307.898 208.313 310.415C208.712 312.932 209.091 315.128 209.425 316.854L210.138 320.917C210.212 321.369 210.277 321.718 210.314 321.973C210.324 322.095 210.324 322.218 210.314 322.34C210.274 322.223 210.243 322.104 210.221 321.982C210.175 321.728 210.101 321.379 210.008 320.936C209.814 319.993 209.545 318.626 209.202 316.882C208.86 315.138 208.434 312.969 208.017 310.452C207.6 307.935 207.091 305.088 206.619 301.911C206.378 300.327 206.128 298.668 205.869 296.934C205.619 295.199 205.406 293.389 205.156 291.522C204.637 287.751 204.229 283.773 203.757 279.55C202.905 271.112 202.164 261.807 201.673 252.022C201.183 242.236 201.016 232.903 200.979 224.418C200.942 215.934 201.099 208.288 201.312 201.878C201.386 198.672 201.535 195.769 201.636 193.223C201.738 190.678 201.849 188.51 201.951 186.69C202.053 184.871 202.146 183.532 202.201 182.561C202.201 182.108 202.257 181.76 202.275 181.496C202.287 181.371 202.308 181.248 202.34 181.128Z" fill="#455A64"/>
<path d="M176.642 71.7703L165.084 59.2036L155.972 65.6991L165.084 79.4253L176.642 71.7703Z" fill="#FFD3C1"/>
<path d="M249.737 76.4086L249.181 68.4425L223.075 68.0654L222.853 78.0679C222.853 78.0679 210.036 92.2089 205.378 108C197.562 134.604 194.728 168.467 194.728 168.467H248.153C247.598 159.096 243.801 138.13 243.801 138.13L255.673 102.07C258.627 89.1073 249.737 76.4086 249.737 76.4086Z" fill="#FF725C"/>
<path d="M185.097 112.412C185.097 112.412 185.245 112.563 185.542 112.817C185.967 113.211 186.422 113.57 186.903 113.892C188.658 115.096 190.66 115.88 192.756 116.183C194.2 116.392 195.668 116.377 197.108 116.136C198.655 115.956 200.312 115.74 202.053 115.504C205.545 115.023 209.369 114.42 213.37 113.732L233.836 110.083L240.05 109.046L241.745 108.773L242.328 108.66L241.736 108.735L240.041 108.971C238.569 109.178 236.439 109.508 233.809 109.914C228.558 110.771 221.334 112.129 213.333 113.515C209.332 114.203 205.517 114.806 202.035 115.297C200.294 115.532 198.636 115.758 197.08 115.947C193.556 116.55 189.938 115.786 186.94 113.807C186.465 113.487 186.007 113.141 185.569 112.77C185.264 112.534 185.097 112.412 185.097 112.412Z" fill="#263238"/>
<path d="M251.385 99.5624C251.414 99.4934 251.433 99.4203 251.441 99.3456C251.441 99.157 251.524 98.9496 251.57 98.7328C251.672 98.1954 251.802 97.4224 251.941 96.4514C252.345 93.9317 252.279 91.3571 251.746 88.8624C251.15 86.3476 249.671 84.1414 247.588 82.6592C246.955 82.2316 246.258 81.9131 245.523 81.7164C245.257 81.6383 244.984 81.5846 244.708 81.5562C245.699 81.7977 246.639 82.2159 247.486 82.7911C249.505 84.28 250.937 86.4526 251.524 88.9189C252.053 91.3972 252.134 93.9528 251.765 96.4608C251.654 97.4035 251.543 98.2049 251.459 98.7422C251.459 98.9685 251.432 99.1759 251.376 99.3644C251.371 99.4306 251.374 99.497 251.385 99.5624Z" fill="#263238"/>
<path d="M195.812 106.03C195.826 105.832 195.826 105.633 195.812 105.436L195.663 103.814C195.521 102.036 195.468 100.252 195.506 98.469C195.556 96.6843 195.695 94.9033 195.923 93.1331C196.006 92.558 196.08 92.0301 196.154 91.5304C196.191 91.3345 196.213 91.1359 196.219 90.9365C196.157 91.1247 196.108 91.3168 196.071 91.5116C195.987 91.8887 195.886 92.4543 195.784 93.1142C195.232 96.6597 195.141 100.264 195.515 103.833C195.589 104.512 195.663 105.068 195.728 105.445C195.737 105.642 195.765 105.838 195.812 106.03Z" fill="#263238"/>
<path d="M223.158 77.9173C223.813 76.0682 224.778 74.3488 226.011 72.836C227.863 70.2623 229.9 67.5661 232.817 66.35C234.799 65.5298 239.92 65.9823 241.291 64.3042C245.551 59.0438 239.309 55.8196 241.569 48.5511C244.06 40.6416 242.773 41.8577 242.967 35.6262L252.422 31.4688C253.913 32.6 258.044 36.6821 257.59 38.5204C257.15 40.5324 257.275 42.6299 257.951 44.5728C259.405 49.2205 264.434 51.9544 266.804 56.1873C269.175 60.4202 266.49 66.2651 266.425 71.271C266.36 76.277 268.212 82.2633 273 83.3475C271.189 87.0331 268.242 90.0133 264.61 91.8321L261.609 87.6746C261.849 89.5745 261.423 91.4995 260.407 93.1116C259.391 94.7236 257.849 95.9196 256.053 96.4892C255.043 92.1055 253.988 87.5992 251.376 83.9603C248.764 80.3213 244.236 77.7476 239.967 78.9166C237.105 79.6897 234.901 81.9334 232.345 83.4512C229.789 84.969 226.177 85.6195 224.14 83.4512C223.522 82.6933 223.106 81.7854 222.934 80.8157C222.762 79.8461 222.839 78.8476 223.158 77.9173Z" fill="#263238"/>
<g opacity="0.3">
<path d="M205.341 114.872C217.658 112.591 234.049 109.857 246.366 107.566C246.82 107.434 247.301 107.434 247.755 107.566C248.14 107.781 248.427 108.141 248.555 108.569C248.683 108.997 248.642 109.459 248.44 109.857C248.003 110.639 247.326 111.254 246.514 111.61C242.467 113.76 237.735 113.939 233.179 114.061L205.341 114.863V114.872Z" fill="black"/>
</g>
<path d="M196.386 116.126C200.22 116.202 244.301 108 244.301 108Z" fill="#FF725C"/>
<path d="M243.551 79.9818C246.783 80.3871 248.885 80.9245 252.663 85.0725C253.1 85.5614 253.476 86.1028 253.784 86.6846C257.988 94.2265 254.951 104.597 246.894 107.472L239.096 109.103L196.386 116.126C196.386 116.126 187.292 118.2 179.476 105.86C176.614 101.325 156.88 71.3652 156.88 71.3652L169.845 62.5317L195.978 90.9929L243.551 79.9818Z" fill="#FF725C"/>
<path d="M185.097 112.412C185.097 112.412 185.245 112.563 185.542 112.817C185.967 113.211 186.422 113.57 186.903 113.892C188.658 115.096 190.66 115.88 192.756 116.183C194.2 116.392 195.668 116.377 197.108 116.136C198.655 115.956 200.312 115.74 202.053 115.504C205.545 115.023 209.369 114.42 213.37 113.732L233.836 110.083L240.05 109.046L241.745 108.773L242.328 108.66L241.736 108.735L240.041 108.971C238.569 109.178 236.439 109.508 233.809 109.914C228.558 110.771 221.334 112.129 213.333 113.515C209.332 114.203 205.517 114.806 202.035 115.297C200.294 115.532 198.636 115.758 197.08 115.947C193.556 116.55 189.938 115.786 186.94 113.807C186.465 113.487 186.007 113.141 185.569 112.77C185.264 112.534 185.097 112.412 185.097 112.412Z" fill="#263238"/>
<path d="M251.385 99.5624C251.414 99.4934 251.433 99.4203 251.441 99.3456C251.441 99.157 251.524 98.9496 251.57 98.7328C251.672 98.1954 251.802 97.4224 251.941 96.4514C252.345 93.9317 252.279 91.3571 251.746 88.8624C251.15 86.3476 249.671 84.1414 247.588 82.6592C246.955 82.2316 246.258 81.9131 245.523 81.7164C245.257 81.6383 244.984 81.5846 244.708 81.5562C245.699 81.7977 246.639 82.2159 247.486 82.7911C249.505 84.28 250.937 86.4526 251.524 88.9189C252.053 91.3972 252.134 93.9528 251.765 96.4608C251.654 97.4035 251.543 98.2049 251.459 98.7422C251.459 98.9685 251.432 99.1759 251.376 99.3644C251.371 99.4306 251.374 99.497 251.385 99.5624Z" fill="#263238"/>
<path d="M195.812 106.03C195.826 105.832 195.826 105.633 195.812 105.436L195.663 103.814C195.521 102.036 195.468 100.252 195.506 98.469C195.556 96.6843 195.695 94.9033 195.923 93.1331C196.006 92.558 196.08 92.0301 196.154 91.5304C196.191 91.3345 196.213 91.1359 196.219 90.9365C196.157 91.1247 196.108 91.3168 196.071 91.5116C195.987 91.8887 195.886 92.4543 195.784 93.1142C195.232 96.6597 195.141 100.264 195.515 103.833C195.589 104.512 195.663 105.068 195.728 105.445C195.737 105.642 195.765 105.838 195.812 106.03Z" fill="#263238"/>
<path d="M165.029 49.4655C164.771 47.6745 164.69 45.8616 164.788 44.0542C164.797 43.9623 164.786 43.8696 164.755 43.7829C164.724 43.6961 164.674 43.6177 164.609 43.5533C164.544 43.4889 164.465 43.4404 164.379 43.4112C164.293 43.382 164.202 43.373 164.112 43.3849C163.555 43.4592 163.032 43.6993 162.609 44.0749C162.185 44.4506 161.88 44.9451 161.732 45.4966C161.446 46.4836 161.355 47.5185 161.463 48.5416C161.463 50.2197 161.463 51.5489 161.463 51.5489C161.463 51.5489 153.24 41.5277 151.573 41.0752C151.435 41.0068 151.284 40.9673 151.131 40.9588C150.977 40.9503 150.823 40.973 150.678 41.0257C150.534 41.0783 150.401 41.1599 150.287 41.2655C150.173 41.3711 150.082 41.4987 150.017 41.6408C149.712 42.1404 150.323 43.3094 150.323 43.3094L154.953 50.0594C154.953 50.0594 147.943 41.6691 146.674 41.6879C145.405 41.7068 144.822 42.6307 145.646 44.1862C146.248 45.3269 152.369 52.6708 152.369 52.6708C152.369 52.6708 145.822 46.2413 144.516 46.2885C143.21 46.3356 143.433 47.7497 144.118 48.3342C144.803 48.9187 149.674 54.66 149.674 54.66C149.674 54.66 144.942 50.5873 143.988 50.889C143.035 51.1907 143.442 52.2843 143.942 53.161C144.442 54.0378 156.314 66.1142 156.314 66.1142L166.612 60.8537C166.88 59.3829 166.826 57.8702 166.455 56.4229C165.833 54.1374 165.357 51.8135 165.029 49.4655Z" fill="#FFD3C1"/>
<path d="M152.674 277.462H8.24376C4.8528 277.462 2.10388 280.261 2.10388 283.713V285.532C2.10388 288.984 4.8528 291.782 8.24376 291.782H152.674C156.065 291.782 158.814 288.984 158.814 285.532V283.713C158.814 280.261 156.065 277.462 152.674 277.462Z" fill="#E0E0E0"/>
<path d="M74.3192 277.462H8.24376C4.8528 277.462 2.10388 280.261 2.10388 283.713V285.532C2.10388 288.984 4.8528 291.782 8.24376 291.782H74.3192C77.7101 291.782 80.4591 288.984 80.4591 285.532V283.713C80.4591 280.261 77.7101 277.462 74.3192 277.462Z" fill="#FF725C"/>
<path d="M12.2149 248.629C9.70873 248.619 7.30856 247.598 5.53989 245.791C3.77122 243.983 2.77818 241.536 2.7782 238.985V155.138C2.85069 153.021 3.74419 151.02 5.26298 149.573C6.78178 148.126 8.80206 147.351 10.8814 147.417H18.6233C20.1467 147.448 21.648 147.044 22.9574 146.25C24.2668 145.457 25.3318 144.307 26.0319 142.929L27.6896 139.488C28.3862 138.118 29.444 136.972 30.7444 136.18C32.0448 135.387 33.5364 134.979 35.0519 135.001H71.8078C73.189 134.983 74.5525 135.318 75.7727 135.977C76.993 136.636 78.0307 137.597 78.7904 138.772L80.5963 141.685C81.3545 142.858 82.3906 143.819 83.6092 144.478C84.8279 145.137 86.1898 145.473 87.5696 145.456H134.429C136.51 145.387 138.534 146.163 140.053 147.613C141.573 149.062 142.464 151.067 142.532 153.186V238.975C142.532 241.533 141.534 243.986 139.757 245.795C137.981 247.603 135.571 248.619 133.058 248.619L12.2149 248.629Z" fill="#FF725C"/>
<g opacity="0.3">
<path d="M12.2149 248.629C9.70873 248.619 7.30856 247.598 5.53989 245.791C3.77122 243.983 2.77818 241.536 2.7782 238.985V155.138C2.85069 153.021 3.74419 151.02 5.26298 149.573C6.78178 148.126 8.80206 147.351 10.8814 147.417H18.6233C20.1467 147.448 21.648 147.044 22.9574 146.25C24.2668 145.457 25.3318 144.307 26.0319 142.929L27.6896 139.488C28.3862 138.118 29.444 136.972 30.7444 136.18C32.0448 135.387 33.5364 134.979 35.0519 135.001H71.8078C73.189 134.983 74.5525 135.318 75.7727 135.977C76.993 136.636 78.0307 137.597 78.7904 138.772L80.5963 141.685C81.3545 142.858 82.3906 143.819 83.6092 144.478C84.8279 145.137 86.1898 145.473 87.5696 145.456H134.429C136.51 145.387 138.534 146.163 140.053 147.613C141.573 149.062 142.464 151.067 142.532 153.186V238.975C142.532 241.533 141.534 243.986 139.757 245.795C137.981 247.603 135.571 248.619 133.058 248.619L12.2149 248.629Z" fill="black"/>
</g>
<path d="M82.8651 145.503L53.0455 145.437L50.3876 140.365C49.4839 138.718 48.1602 137.351 46.5562 136.407C44.9523 135.463 43.1277 134.977 41.2751 135.001H12.1315C6.94547 135.001 2.74109 139.007 2.74109 143.957V238.457C2.74109 244.113 7.51962 248.629 13.4095 248.629H131.78C137.679 248.629 142.449 244.075 142.449 238.457V152.451C142.449 150.608 141.73 148.841 140.45 147.538C139.17 146.235 137.434 145.503 135.624 145.503H82.8651Z" fill="#FF725C"/>
<path d="M97.8951 217.113H84.6985C84.4529 217.113 84.2174 217.014 84.0437 216.837C83.87 216.66 83.7725 216.42 83.7725 216.17C83.7725 215.92 83.87 215.68 84.0437 215.503C84.2174 215.327 84.4529 215.227 84.6985 215.227H97.8951C101.317 215.234 104.607 213.88 107.062 211.453C109.517 209.026 110.944 205.719 111.038 202.237C111.133 198.754 109.887 195.372 107.566 192.811C105.246 190.251 102.035 188.714 98.6174 188.529C98.4198 188.519 98.2305 188.445 98.0772 188.318C97.9239 188.191 97.8147 188.017 97.7654 187.822C96.7905 183.99 94.7878 180.509 91.981 177.768C89.1742 175.028 85.6741 173.136 81.8719 172.305C78.0697 171.474 74.1152 171.735 70.4506 173.06C66.786 174.385 63.5556 176.722 61.1207 179.809C61.0215 179.936 60.8919 180.035 60.7443 180.096C60.5966 180.157 60.436 180.178 60.2779 180.158C59.6146 180.07 58.9465 180.026 58.2776 180.026C53.7626 180.132 49.4676 182.033 46.3113 185.321C43.155 188.609 41.3879 193.024 41.3879 197.622C41.3879 202.219 43.155 206.634 46.3113 209.923C49.4676 213.211 53.7626 215.112 58.2776 215.218H68.9738C69.2194 215.218 69.4549 215.317 69.6286 215.494C69.8023 215.671 69.8998 215.911 69.8998 216.161C69.8998 216.411 69.8023 216.65 69.6286 216.827C69.4549 217.004 69.2194 217.103 68.9738 217.103H58.2313C53.1521 217.103 48.2809 215.049 44.6893 211.393C41.0978 207.737 39.0801 202.778 39.0801 197.608C39.0801 192.437 41.0978 187.478 44.6893 183.822C48.2809 180.166 53.1521 178.112 58.2313 178.112C58.8006 178.112 59.3694 178.144 59.9353 178.206C62.5948 174.97 66.0692 172.532 69.9861 171.153C73.903 169.774 78.1147 169.506 82.1697 170.378C86.2247 171.25 89.9702 173.229 93.0047 176.103C96.0392 178.976 98.2484 182.636 99.3953 186.691C103.242 187.055 106.802 188.918 109.332 191.89C111.862 194.863 113.166 198.715 112.973 202.643C112.779 206.571 111.103 210.271 108.293 212.971C105.484 215.67 101.758 217.161 97.8951 217.132V217.113Z" fill="white"/>
<path d="M76.5582 225.711C76.3125 225.711 76.077 225.611 75.9033 225.434C75.7296 225.258 75.6321 225.018 75.6321 224.768V200.257C75.6321 200.007 75.7296 199.767 75.9033 199.59C76.077 199.413 76.3125 199.314 76.5582 199.314C76.8038 199.314 77.0393 199.413 77.213 199.59C77.3867 199.767 77.4842 200.007 77.4842 200.257V224.768C77.4842 225.018 77.3867 225.258 77.213 225.434C77.0393 225.611 76.8038 225.711 76.5582 225.711Z" fill="white"/>
<path d="M83.5966 210.014C83.4513 210.015 83.3077 209.982 83.1774 209.916C83.0471 209.851 82.9337 209.755 82.8465 209.637L76.7159 201.265C76.6934 201.238 76.665 201.216 76.6329 201.201C76.6008 201.186 76.5659 201.179 76.5307 201.18C76.4972 201.181 76.4642 201.189 76.4339 201.204C76.4036 201.219 76.3766 201.239 76.3547 201.265L69.8722 209.401C69.7163 209.597 69.4901 209.723 69.2435 209.749C68.9969 209.776 68.75 209.701 68.5572 209.543C68.3644 209.384 68.2414 209.154 68.2154 208.902C68.1893 208.651 68.2623 208.4 68.4183 208.204L74.9008 200.068C75.1046 199.82 75.3596 199.62 75.6476 199.483C75.9357 199.346 76.2498 199.276 76.5677 199.276C76.8842 199.281 77.1954 199.359 77.4778 199.504C77.7602 199.65 78.0064 199.858 78.1976 200.115L84.3468 208.496C84.4207 208.596 84.4744 208.71 84.5046 208.831C84.5349 208.952 84.5411 209.078 84.523 209.202C84.5049 209.326 84.4628 209.445 84.3992 209.552C84.3355 209.659 84.2516 209.752 84.1523 209.825C83.992 209.948 83.797 210.014 83.5966 210.014Z" fill="white"/>
<path d="M58.4908 268.492V264.269H59.2687V268.464C59.2687 270.217 60.0744 271.019 61.4821 271.019C62.8897 271.019 63.7046 270.217 63.7046 268.464V264.269H64.4548V268.492C64.4548 270.613 63.3342 271.707 61.4821 271.707C59.6299 271.707 58.4908 270.613 58.4908 268.492Z" fill="#263238"/>
<path d="M72.1133 268.878C72.1341 269.249 72.0786 269.621 71.9505 269.969C71.8223 270.318 71.6243 270.635 71.369 270.901C71.1137 271.167 70.8068 271.376 70.4678 271.515C70.1287 271.653 69.765 271.719 69.3999 271.706C68.9911 271.72 68.5856 271.627 68.2224 271.435C67.8592 271.244 67.5504 270.96 67.3255 270.613V273.705H66.5939V266.163H67.2977V267.19C67.5187 266.829 67.8294 266.533 68.1985 266.333C68.5675 266.133 68.9819 266.035 69.3999 266.05C69.7647 266.039 70.1277 266.105 70.4661 266.244C70.8045 266.383 71.1109 266.592 71.3659 266.858C71.6208 267.124 71.8189 267.441 71.9476 267.788C72.0762 268.136 72.1326 268.507 72.1133 268.878ZM71.3817 268.878C71.3653 268.472 71.2321 268.079 70.9985 267.75C70.765 267.42 70.4414 267.167 70.068 267.023C69.6945 266.879 69.2878 266.85 68.8982 266.94C68.5086 267.029 68.1535 267.233 67.8768 267.526C67.6002 267.819 67.4142 268.189 67.3421 268.588C67.27 268.988 67.315 269.401 67.4713 269.775C67.6277 270.149 67.8886 270.468 68.2216 270.692C68.5546 270.917 68.945 271.036 69.3443 271.037C69.6202 271.041 69.8939 270.988 70.1486 270.88C70.4032 270.771 70.6332 270.611 70.8244 270.409C71.0155 270.206 71.1636 269.966 71.2595 269.702C71.3554 269.439 71.397 269.158 71.3817 268.878Z" fill="#263238"/>
<path d="M73.6134 263.825H74.345V271.65H73.6134V263.825Z" fill="#263238"/>
<path d="M75.8454 268.878C75.8454 268.319 76.0084 267.772 76.3136 267.307C76.6189 266.842 77.0528 266.479 77.5605 266.265C78.0681 266.051 78.6267 265.995 79.1656 266.104C79.7046 266.214 80.1996 266.483 80.5881 266.878C80.9767 267.274 81.2413 267.778 81.3485 268.327C81.4557 268.875 81.4007 269.444 81.1904 269.961C80.9801 270.477 80.624 270.919 80.1671 271.23C79.7103 271.541 79.1731 271.706 78.6236 271.706C78.2553 271.72 77.8883 271.655 77.5453 271.518C77.2024 271.381 76.891 271.173 76.6304 270.907C76.3697 270.642 76.1656 270.325 76.0305 269.976C75.8955 269.627 75.8325 269.253 75.8454 268.878ZM80.6425 268.878C80.6243 268.474 80.4899 268.084 80.2559 267.757C80.0219 267.43 79.6986 267.18 79.3263 267.039C78.954 266.897 78.5489 266.87 78.1616 266.961C77.7742 267.051 77.4216 267.256 77.1476 267.549C76.8735 267.842 76.6901 268.211 76.6201 268.609C76.5501 269.007 76.5966 269.418 76.7539 269.789C76.9111 270.161 77.1722 270.477 77.5046 270.699C77.837 270.921 78.2262 271.039 78.6236 271.037C78.8987 271.042 79.1717 270.988 79.4254 270.88C79.6792 270.771 79.9081 270.611 80.0978 270.408C80.2875 270.205 80.4338 269.965 80.5275 269.701C80.6213 269.438 80.6604 269.158 80.6425 268.878Z" fill="#263238"/>
<path d="M86.9675 268.209V271.65H86.2636V270.782C86.0645 271.092 85.7881 271.343 85.4627 271.508C85.1373 271.674 84.7745 271.749 84.4115 271.725C83.1798 271.725 82.4297 271.075 82.4297 270.113C82.4297 269.151 82.9668 268.548 84.5319 268.548H86.2544V268.209C86.2544 267.266 85.7265 266.738 84.7171 266.738C84.0414 266.721 83.3829 266.956 82.8649 267.398L82.5316 266.832C83.1637 266.333 83.9451 266.07 84.7449 266.087C85.035 266.042 85.3314 266.064 85.6118 266.153C85.8922 266.241 86.1492 266.393 86.3633 266.597C86.5774 266.802 86.7431 267.053 86.8477 267.332C86.9524 267.611 86.9934 267.911 86.9675 268.209ZM86.2266 269.981V269.038H84.5226C83.4669 269.038 83.1242 269.462 83.1242 270.028C83.1242 270.594 83.6336 271.074 84.5041 271.074C84.8632 271.101 85.2217 271.014 85.5302 270.825C85.8387 270.636 86.082 270.354 86.2266 270.019V269.981Z" fill="#263238"/>
<path d="M93.9502 263.825V271.65H93.2464V270.547C93.0286 270.912 92.7188 271.211 92.3492 271.414C91.9796 271.616 91.5635 271.714 91.1442 271.697C90.4074 271.697 89.7007 271.399 89.1797 270.869C88.6587 270.338 88.366 269.619 88.366 268.869C88.366 268.119 88.6587 267.399 89.1797 266.869C89.7007 266.339 90.4074 266.041 91.1442 266.041C91.5531 266.026 91.9589 266.119 92.3222 266.311C92.6856 266.502 92.9943 266.786 93.2186 267.134V263.806L93.9502 263.825ZM93.2279 268.878C93.2097 268.474 93.0753 268.084 92.8413 267.757C92.6073 267.43 92.284 267.18 91.9117 267.039C91.5393 266.897 91.1343 266.87 90.7469 266.961C90.3596 267.051 90.007 267.256 89.7329 267.549C89.4589 267.842 89.2754 268.211 89.2054 268.609C89.1355 269.007 89.182 269.418 89.3392 269.789C89.4965 270.161 89.7576 270.477 90.09 270.699C90.4224 270.921 90.8115 271.039 91.209 271.037C91.4837 271.04 91.7561 270.986 92.0091 270.877C92.2622 270.768 92.4906 270.608 92.68 270.405C92.8694 270.202 93.0158 269.962 93.11 269.7C93.2043 269.437 93.2444 269.157 93.2279 268.878Z" fill="#263238"/>
<path d="M95.5245 271.122C95.522 271.047 95.5343 270.973 95.5606 270.903C95.587 270.834 95.6268 270.77 95.6778 270.716C95.7288 270.663 95.7899 270.62 95.8574 270.591C95.9249 270.562 95.9975 270.547 96.0709 270.547C96.1446 270.547 96.2177 270.562 96.2857 270.591C96.3537 270.62 96.4154 270.662 96.4671 270.716C96.5188 270.769 96.5595 270.833 96.5869 270.903C96.6143 270.972 96.6277 271.047 96.6265 271.122C96.6265 271.273 96.5683 271.418 96.4644 271.525C96.3604 271.633 96.2191 271.695 96.0709 271.697C95.9979 271.696 95.9259 271.68 95.8589 271.65C95.792 271.621 95.7314 271.578 95.6807 271.525C95.6299 271.471 95.59 271.408 95.5632 271.339C95.5364 271.27 95.5233 271.196 95.5245 271.122Z" fill="#263238"/>
<path d="M97.7192 271.122C97.718 271.048 97.7311 270.974 97.7579 270.905C97.7847 270.836 97.8246 270.773 97.8754 270.719C97.9261 270.666 97.9867 270.623 98.0536 270.594C98.1206 270.564 98.1926 270.548 98.2656 270.547C98.3393 270.547 98.4124 270.562 98.4804 270.591C98.5484 270.62 98.6101 270.662 98.6618 270.716C98.7135 270.769 98.7543 270.833 98.7816 270.903C98.809 270.972 98.8225 271.047 98.8212 271.122C98.8212 271.273 98.763 271.418 98.6591 271.525C98.5551 271.633 98.4138 271.695 98.2656 271.697C98.1926 271.696 98.1206 271.68 98.0536 271.65C97.9867 271.621 97.9261 271.578 97.8754 271.525C97.8246 271.471 97.7847 271.408 97.7579 271.339C97.7311 271.27 97.718 271.196 97.7192 271.122Z" fill="#263238"/>
<path d="M99.9141 271.122C99.9116 271.047 99.9239 270.973 99.9503 270.903C99.9766 270.834 100.016 270.77 100.067 270.716C100.118 270.663 100.18 270.62 100.247 270.591C100.315 270.562 100.387 270.547 100.461 270.547C100.534 270.547 100.607 270.562 100.675 270.591C100.743 270.62 100.805 270.662 100.857 270.716C100.908 270.769 100.949 270.833 100.977 270.903C101.004 270.972 101.017 271.047 101.016 271.122C101.016 271.273 100.958 271.418 100.854 271.525C100.75 271.633 100.609 271.695 100.461 271.697C100.388 271.696 100.316 271.68 100.249 271.65C100.182 271.621 100.121 271.578 100.07 271.525C100.02 271.471 99.9796 271.408 99.9529 271.339C99.9261 271.27 99.9129 271.196 99.9141 271.122Z" fill="#263238"/>
<g opacity="0.3">
<path d="M8.33467 284.264L0 297.736L1.30577 298.33C1.67559 298.499 2.07652 298.585 2.48187 298.584H5.13045L14.1875 284.264H8.33467Z" fill="white"/>
</g>
<g opacity="0.3">
<path d="M23.2444 284.264L14.3818 298.584H20.0402L29.0879 284.264H23.2444Z" fill="white"/>
</g>
<g opacity="0.3">
<path d="M47.7493 298.747L38.8867 313.067H44.545L53.602 298.747H47.7493Z" fill="white"/>
</g>
<g opacity="0.3">
<path d="M58.6594 277.462L49.7876 291.782H55.4459L64.5029 277.462H58.6594Z" fill="white"/>
</g>
<g opacity="0.3">
<path d="M73.5598 277.462L64.6973 291.782H70.3556L77.4864 280.469L78.3383 279.244C77.2456 278.047 75.5694 277.547 73.5598 277.462Z" fill="white"/>
</g>
<path d="M152.85 291.782C152.85 291.782 153.137 291.782 153.693 291.688C154.519 291.572 155.311 291.28 156.017 290.83C157.176 290.108 158.066 289.013 158.546 287.719C158.848 286.9 158.987 286.029 158.953 285.155C159.01 284.159 158.936 283.16 158.731 282.185C158.437 281.054 157.833 280.031 156.991 279.235C156.148 278.439 155.101 277.903 153.971 277.688C153.333 277.596 152.688 277.561 152.045 277.584H145.71H125.503L8.52149 277.65C7.14318 277.652 5.80783 278.139 4.7425 279.029C3.67717 279.919 2.94763 281.158 2.67796 282.534C2.57484 283.226 2.53763 283.927 2.56684 284.627C2.53721 285.324 2.58379 286.023 2.70575 286.71C2.98311 288.043 3.69478 289.241 4.72526 290.111C5.75574 290.98 7.04457 291.469 8.38259 291.499H20.6994H51.7599L104.352 291.556L139.811 291.631L149.452 291.678H139.811L104.352 291.763L51.7599 291.81H20.6994H8.38259C6.92447 291.797 5.51418 291.279 4.38329 290.342C3.25241 289.405 2.46817 288.104 2.15936 286.654C2.02782 285.933 1.9781 285.199 2.01119 284.466C1.9781 283.735 2.01844 283.002 2.13158 282.279C2.41944 280.79 3.20689 279.449 4.35909 278.486C5.51129 277.523 6.95657 276.998 8.44742 277L125.429 277.075H145.636H151.97C152.63 277.05 153.291 277.091 153.943 277.198C155.11 277.425 156.189 277.983 157.056 278.809C157.923 279.635 158.542 280.695 158.842 281.865C159.039 282.86 159.108 283.877 159.046 284.891C159.069 285.785 158.921 286.675 158.61 287.512C158.104 288.823 157.186 289.926 155.999 290.651C155.274 291.093 154.467 291.375 153.628 291.48C153.378 291.605 153.118 291.706 152.85 291.782Z" fill="#263238"/>
</svg>
